<?xml version="1.0" standalone="no"?><!DOCTYPE svg PUBLIC "-//W3C//DTD SVG 1.1//EN" "http://www.w3.org/Graphics/SVG/1.1/DTD/svg11.dtd"><svg class="icon" width="200px" height="200.00px" viewBox="0 0 1024 1024" version="1.1" xmlns="http://www.w3.org/2000/svg"><path fill="#2c2c2c" d="M947.626667 648.533333L853.333333 769.706667V211.370667a42.666667 42.666667 0 1 0-85.333333 0v620.501333c0 60.928 77.098667 87.381333 114.517333 39.296l132.48-170.24a42.666667 42.666667 0 0 0-67.328-52.437333zM42.666667 894.037333a42.666667 42.666667 0 1 1 0-85.333333h554.666666a42.666667 42.666667 0 1 1 0 85.333333H42.666667zM42.666667 595.370667a42.666667 42.666667 0 1 1 0-85.333334h554.666666a42.666667 42.666667 0 1 1 0 85.333334H42.666667zM0 254.037333a42.666667 42.666667 0 0 0 42.666667 42.666667h554.666666a42.666667 42.666667 0 1 0 0-85.333333H42.666667a42.666667 42.666667 0 0 0-42.666667 42.666666z"  /></svg>