<?xml version="1.0" standalone="no"?><!DOCTYPE svg PUBLIC "-//W3C//DTD SVG 1.1//EN" "http://www.w3.org/Graphics/SVG/1.1/DTD/svg11.dtd"><svg class="icon" width="200px" height="200.00px" viewBox="0 0 1024 1024" version="1.1" xmlns="http://www.w3.org/2000/svg"><path fill="#2c2c2c" d="M465.066667 268.8c-17.066667 17.066667-12.8 42.666667 4.266666 59.733333l145.066667 128H281.6c-25.6 0-42.666667 17.066667-42.666667 42.666667s17.066667 42.666667 42.666667 42.666667h345.6l-174.933333 149.333333c-17.066667 17.066667-21.333333 42.666667-4.266667 59.733333 17.066667 17.066667 42.666667 21.333333 59.733333 4.266667l217.6-187.733333c38.4-34.133333 38.4-93.866667 0-128l-200.533333-174.933334c-17.066667-12.8-46.933333-12.8-59.733333 4.266667z"  /><path fill="#2c2c2c" d="M512 42.666667C251.733333 42.666667 42.666667 251.733333 42.666667 512s209.066667 469.333333 469.333333 469.333333 469.333333-209.066667 469.333333-469.333333S772.266667 42.666667 512 42.666667z m0 853.333333c-213.333333 0-384-170.666667-384-384s170.666667-384 384-384 384 170.666667 384 384-170.666667 384-384 384z"  /></svg>