<?xml version="1.0" standalone="no"?><!DOCTYPE svg PUBLIC "-//W3C//DTD SVG 1.1//EN" "http://www.w3.org/Graphics/SVG/1.1/DTD/svg11.dtd"><svg class="icon" width="200px" height="200.00px" viewBox="0 0 1024 1024" version="1.1" xmlns="http://www.w3.org/2000/svg"><path fill="#2c2c2c" d="M496.512 245.418667a42.666667 42.666667 0 0 0-56.32-64.170667l-303.744 266.581333a85.333333 85.333333 0 0 0 0.128 128.341334l304.64 266.624a42.666667 42.666667 0 1 0 56.234667-64.256L192.768 512l303.744-266.538667z"  /><path fill="#2c2c2c" d="M880.512 245.418667a42.666667 42.666667 0 0 0-56.32-64.170667l-303.744 266.581333a85.333333 85.333333 0 0 0 0.128 128.341334l304.64 266.624a42.666667 42.666667 0 1 0 56.234667-64.256L576.768 512l303.744-266.538667z"  /></svg>