<?xml version="1.0" standalone="no"?><!DOCTYPE svg PUBLIC "-//W3C//DTD SVG 1.1//EN" "http://www.w3.org/Graphics/SVG/1.1/DTD/svg11.dtd"><svg class="icon" width="200px" height="200.00px" viewBox="0 0 1024 1024" version="1.1" xmlns="http://www.w3.org/2000/svg"><path fill="#2c2c2c" d="M499.2 311.466667c17.066667 17.066667 17.066667 42.666667 0 59.733333L401.066667 469.333333H725.333333c25.6 0 42.666667 17.066667 42.666667 42.666667s-17.066667 42.666667-42.666667 42.666667H401.066667l98.133333 98.133333c17.066667 17.066667 17.066667 42.666667 0 59.733333-17.066667 17.066667-42.666667 17.066667-59.733333 0L298.666667 571.733333c-34.133333-34.133333-34.133333-85.333333 0-119.466666l140.8-140.8c17.066667-17.066667 42.666667-17.066667 59.733333 0z"  /><path fill="#2c2c2c" d="M853.333333 85.333333H170.666667c-46.933333 0-85.333333 38.4-85.333334 85.333334v682.666666c0 46.933333 38.4 85.333333 85.333334 85.333334h682.666666c46.933333 0 85.333333-38.4 85.333334-85.333334V170.666667c0-46.933333-38.4-85.333333-85.333334-85.333334z m0 768H170.666667V170.666667h682.666666v682.666666z"  /></svg>