<?xml version="1.0" standalone="no"?><!DOCTYPE svg PUBLIC "-//W3C//DTD SVG 1.1//EN" "http://www.w3.org/Graphics/SVG/1.1/DTD/svg11.dtd"><svg class="icon" width="200px" height="200.00px" viewBox="0 0 1024 1024" version="1.1" xmlns="http://www.w3.org/2000/svg"><path fill="#2c2c2c" d="M126.805333 559.786667l-4.181333 4.224a202.752 202.752 0 0 0 0 285.226666l9.898667 9.984 0.085333-0.085333a207.445333 207.445333 0 0 0 290.858667-3.968l368.64-371.413333 0.426666-0.426667 14.336-14.421333-1.066666-1.066667a147.882667 147.882667 0 0 0-13.653334-192.042667 145.237333 145.237333 0 0 0-206.506666 0l-328.661334 331.093334 0.426667 0.426666a42.24 42.24 0 0 0-5.546667 64.128 41.472 41.472 0 0 0 63.658667-5.546666l0.426667 0.426666 328.704-331.093333a62.250667 62.250667 0 0 1 88.490666 0c24.32 24.490667 24.405333 64.213333 0.256 88.832l-368.938666 371.626667a124.458667 124.458667 0 0 1-176.938667 0 126.72 126.72 0 0 1-1.365333-176.853334l370.005333-372.736a186.709333 186.709333 0 0 1 265.429333 0 190.08 190.08 0 0 1 0 267.392l-328.661333 331.093334-0.981333 1.024a42.24 42.24 0 0 0 0 59.434666 41.514667 41.514667 0 0 0 59.946666-1.024l328.704-331.093333a274.56 274.56 0 0 0 0-386.261333 269.653333 269.653333 0 0 0-368.085333-14.293334l-0.597333-0.597333-383.36 386.261333a175.146667 175.146667 0 0 0-1.749334 1.792z"  /></svg>