<?xml version="1.0" standalone="no"?><!DOCTYPE svg PUBLIC "-//W3C//DTD SVG 1.1//EN" "http://www.w3.org/Graphics/SVG/1.1/DTD/svg11.dtd"><svg class="icon" width="200px" height="200.00px" viewBox="0 0 1024 1024" version="1.1" xmlns="http://www.w3.org/2000/svg"><path fill="#2c2c2c" d="M1024 938.666667V341.333333h-85.333333v597.333334H85.333333V341.333333H0v597.333334c0 46.933333 38.4 85.333333 85.333333 85.333333h853.333334c46.933333 0 85.333333-38.4 85.333333-85.333333zM917.333333 55.466667c-12.8-34.133333-42.666667-55.466667-81.066666-55.466667H187.733333c-34.133333 0-68.266667 21.333333-81.066666 55.466667L0 341.333333h1024l-106.666667-285.866666zM123.733333 256l64-170.666667h648.533334l64 170.666667H123.733333z"  /><path fill="#2c2c2c" d="M302.933333 516.266667c17.066667 102.4 102.4 183.466667 209.066667 183.466666 106.666667 0 196.266667-81.066667 209.066667-183.466666h-85.333334c-12.8 55.466667-64 98.133333-123.733333 98.133333s-110.933333-42.666667-123.733333-98.133333h-85.333334z"  /><path fill="#2c2c2c" d="M388.266667 512c0 25.6-21.333333 42.666667-42.666667 42.666667-25.6 0-42.666667-21.333333-42.666667-42.666667 0-25.6 21.333333-42.666667 42.666667-42.666667 21.333333-4.266667 42.666667 17.066667 42.666667 42.666667zM721.066667 512c0 25.6-21.333333 42.666667-42.666667 42.666667-25.6 0-42.666667-21.333333-42.666667-42.666667 0-25.6 21.333333-42.666667 42.666667-42.666667 25.6 0 42.666667 21.333333 42.666667 42.666667z"  /></svg>