<?xml version="1.0" standalone="no"?><!DOCTYPE svg PUBLIC "-//W3C//DTD SVG 1.1//EN" "http://www.w3.org/Graphics/SVG/1.1/DTD/svg11.dtd"><svg class="icon" width="200px" height="200.00px" viewBox="0 0 1024 1024" version="1.1" xmlns="http://www.w3.org/2000/svg"><path fill="#2c2c2c" d="M725.333333 0H85.333333C38.4 0 0 38.4 0 85.333333v853.333334c0 46.933333 38.4 85.333333 85.333333 85.333333h640c46.933333 0 85.333333-38.4 85.333334-85.333333V85.333333c0-46.933333-38.4-85.333333-85.333334-85.333333z m0 938.666667H85.333333V85.333333h640v853.333334z"  /><path fill="#2c2c2c" d="M682.666667 1024h256c46.933333 0 85.333333-38.4 85.333333-85.333333V170.666667c0-46.933333-38.4-85.333333-85.333333-85.333334h-42.666667v85.333334h42.666667v768h-256v85.333333z"  /><path fill="#2c2c2c" d="M938.666667 128c0 25.6-17.066667 42.666667-42.666667 42.666667s-42.666667-17.066667-42.666667-42.666667 17.066667-42.666667 42.666667-42.666667 42.666667 17.066667 42.666667 42.666667z"  /><path fill="#2c2c2c" d="M192 264.533333c0-25.6 17.066667-42.666667 42.666667-42.666666h341.333333c25.6 0 42.666667 17.066667 42.666667 42.666666s-17.066667 42.666667-42.666667 42.666667h-341.333333c-25.6 0-42.666667-17.066667-42.666667-42.666667zM192 512c0-25.6 17.066667-42.666667 42.666667-42.666667h341.333333c25.6 0 42.666667 17.066667 42.666667 42.666667s-17.066667 42.666667-42.666667 42.666667h-341.333333c-25.6 0-42.666667-17.066667-42.666667-42.666667zM192 750.933333c0-25.6 17.066667-42.666667 42.666667-42.666666h341.333333c25.6 0 42.666667 17.066667 42.666667 42.666666s-17.066667 42.666667-42.666667 42.666667h-341.333333c-25.6 0-42.666667-21.333333-42.666667-42.666667z"  /></svg>