<?xml version="1.0" standalone="no"?><!DOCTYPE svg PUBLIC "-//W3C//DTD SVG 1.1//EN" "http://www.w3.org/Graphics/SVG/1.1/DTD/svg11.dtd"><svg class="icon" width="200px" height="200.00px" viewBox="0 0 1024 1024" version="1.1" xmlns="http://www.w3.org/2000/svg"><path fill="#2c2c2c" d="M989.866667 507.733333l-469.333334-469.333333c-17.066667-17.066667-38.4-25.6-64-25.6L102.4 21.333333C55.466667 21.333333 21.333333 59.733333 21.333333 102.4l-8.533333 354.133333c0 21.333333 8.533333 46.933333 25.6 64l469.333333 469.333334c34.133333 34.133333 85.333333 34.133333 119.466667 0l362.666667-362.666667c29.866667-34.133333 29.866667-89.6 0-119.466667z m-422.4 422.4l-469.333334-469.333333 8.533334-354.133333 354.133333-8.533334 469.333333 469.333334-362.666666 362.666666z"  /><path fill="#2c2c2c" d="M298.666667 170.666667C226.133333 170.666667 170.666667 226.133333 170.666667 298.666667s55.466667 128 128 128 128-55.466667 128-128-55.466667-128-128-128z m0 170.666666c-25.6 0-42.666667-17.066667-42.666667-42.666666s17.066667-42.666667 42.666667-42.666667 42.666667 17.066667 42.666666 42.666667-17.066667 42.666667-42.666666 42.666666z"  /></svg>