<?xml version="1.0" standalone="no"?><!DOCTYPE svg PUBLIC "-//W3C//DTD SVG 1.1//EN" "http://www.w3.org/Graphics/SVG/1.1/DTD/svg11.dtd"><svg class="icon" width="200px" height="200.00px" viewBox="0 0 1024 1024" version="1.1" xmlns="http://www.w3.org/2000/svg"><path fill="#2c2c2c" d="M298.666667 213.333333c-25.6 0-42.666667 17.066667-42.666667 42.666667s17.066667 42.666667 42.666667 42.666667h426.666666c25.6 0 42.666667-17.066667 42.666667-42.666667s-17.066667-42.666667-42.666667-42.666667H298.666667z"  /><path fill="#2c2c2c" d="M853.333333 0H170.666667C123.733333 0 85.333333 38.4 85.333333 85.333333v844.8c0 72.533333 81.066667 110.933333 136.533334 68.266667l234.666666-187.733333c29.866667-25.6 76.8-25.6 106.666667 0l234.666667 187.733333c55.466667 42.666667 136.533333 4.266667 136.533333-68.266667V85.333333c4.266667-46.933333-34.133333-85.333333-81.066667-85.333333z m0 930.133333l-234.666666-187.733333c-64-51.2-149.333333-51.2-213.333334 0L170.666667 930.133333V85.333333h682.666666v844.8z"  /></svg>