<?xml version="1.0" standalone="no"?><!DOCTYPE svg PUBLIC "-//W3C//DTD SVG 1.1//EN" "http://www.w3.org/Graphics/SVG/1.1/DTD/svg11.dtd"><svg class="icon" width="200px" height="200.00px" viewBox="0 0 1024 1024" version="1.1" xmlns="http://www.w3.org/2000/svg"><path fill="#2c2c2c" d="M512 0C290.133333 0 106.666667 183.466667 106.666667 405.333333c0 162.133333 98.133333 302.933333 234.666666 366.933334v38.4c0 46.933333 38.4 85.333333 85.333334 85.333333h170.666666c46.933333 0 85.333333-38.4 85.333334-85.333333v-38.4c136.533333-64 234.666667-204.8 234.666666-366.933334C917.333333 183.466667 733.866667 0 512 0z m136.533333 695.466667l-51.2 21.333333V810.666667h-170.666666v-93.866667l-51.2-21.333333c-110.933333-51.2-183.466667-162.133333-183.466667-290.133334C192 230.4 337.066667 85.333333 512 85.333333s320 145.066667 320 320c0 128-76.8 238.933333-183.466667 290.133334zM362.666667 981.333333c0-25.6 17.066667-42.666667 42.666666-42.666666h213.333334c25.6 0 42.666667 17.066667 42.666666 42.666666s-17.066667 42.666667-42.666666 42.666667h-213.333334c-25.6 0-42.666667-17.066667-42.666666-42.666667z"  /><path fill="#2c2c2c" d="M695.466667 226.133333c17.066667 17.066667 21.333333 42.666667 4.266666 59.733334L576 426.666667c-34.133333 38.4-89.6 38.4-123.733333 4.266666L315.733333 294.4c-17.066667-17.066667-17.066667-42.666667 0-59.733333 17.066667-17.066667 42.666667-17.066667 59.733334 0L512 371.2l123.733333-140.8c12.8-17.066667 42.666667-17.066667 59.733334-4.266667z"  /><path fill="#2c2c2c" d="M512 375.466667c25.6 0 42.666667 17.066667 42.666667 42.666666v204.8c0 25.6-17.066667 42.666667-42.666667 42.666667s-42.666667-17.066667-42.666667-42.666667V418.133333c0-21.333333 17.066667-42.666667 42.666667-42.666666z"  /></svg>