<?xml version="1.0" standalone="no"?><!DOCTYPE svg PUBLIC "-//W3C//DTD SVG 1.1//EN" "http://www.w3.org/Graphics/SVG/1.1/DTD/svg11.dtd"><svg class="icon" width="200px" height="200.00px" viewBox="0 0 1024 1024" version="1.1" xmlns="http://www.w3.org/2000/svg"><path fill="#2c2c2c" d="M512 512V0c-29.866667 0-55.466667 4.266667-85.333333 8.533333C183.466667 46.933333 0 260.266667 0 512c0 281.6 230.4 512 512 512 251.733333 0 465.066667-183.466667 503.466667-426.666667 4.266667-29.866667 8.533333-55.466667 8.533333-85.333333H512z m0 426.666667C277.333333 938.666667 85.333333 746.666667 85.333333 512c0-204.8 145.066667-379.733333 341.333334-418.133333V597.333333h503.466666c-38.4 196.266667-213.333333 341.333333-418.133333 341.333334z"  /><path fill="#2c2c2c" d="M1015.466667 384C981.333333 192 832 42.666667 640 8.533333c-25.6-4.266667-55.466667-8.533333-85.333333-8.533333v469.333333h469.333333c0-29.866667-4.266667-59.733333-8.533333-85.333333zM640 384V93.866667c145.066667 34.133333 256 145.066667 290.133333 290.133333H640z"  /></svg>