<?xml version="1.0" standalone="no"?><!DOCTYPE svg PUBLIC "-//W3C//DTD SVG 1.1//EN" "http://www.w3.org/Graphics/SVG/1.1/DTD/svg11.dtd"><svg class="icon" width="200px" height="200.00px" viewBox="0 0 1024 1024" version="1.1" xmlns="http://www.w3.org/2000/svg"><path fill="#2c2c2c" d="M725.333333 439.466667l-256-149.333334C413.866667 256 341.333333 298.666667 341.333333 362.666667v294.4c0 64 72.533333 106.666667 128 72.533333l256-149.333333c55.466667-25.6 55.466667-110.933333 0-140.8z m-298.666666 221.866666v-298.666666l256 149.333333-256 149.333333z"  /><path fill="#2c2c2c" d="M512 0C230.4 0 0 230.4 0 512s230.4 512 512 512 512-230.4 512-512S793.6 0 512 0z m0 938.666667C277.333333 938.666667 85.333333 746.666667 85.333333 512S277.333333 85.333333 512 85.333333s426.666667 192 426.666667 426.666667-192 426.666667-426.666667 426.666667z"  /></svg>