<?xml version="1.0" standalone="no"?><!DOCTYPE svg PUBLIC "-//W3C//DTD SVG 1.1//EN" "http://www.w3.org/Graphics/SVG/1.1/DTD/svg11.dtd"><svg class="icon" width="200px" height="200.00px" viewBox="0 0 1024 1024" version="1.1" xmlns="http://www.w3.org/2000/svg"><path fill="#2c2c2c" d="M298.666667 725.333333c-25.6 0-42.666667 17.066667-42.666667 42.666667s17.066667 42.666667 42.666667 42.666667h426.666666c25.6 0 42.666667-17.066667 42.666667-42.666667s-17.066667-42.666667-42.666667-42.666667H298.666667z"  /><path fill="#2c2c2c" d="M853.333333 0H170.666667C123.733333 0 85.333333 38.4 85.333333 85.333333v853.333334c0 46.933333 38.4 85.333333 85.333334 85.333333h682.666666c46.933333 0 85.333333-38.4 85.333334-85.333333V85.333333c0-46.933333-38.4-85.333333-85.333334-85.333333z m-298.666666 85.333333v320L494.933333 341.333333c-25.6-29.866667-68.266667-29.866667-93.866666 0L341.333333 405.333333V89.6 85.333333h213.333334z m298.666666 853.333334H170.666667V85.333333h85.333333V460.8c0 59.733333 72.533333 85.333333 110.933333 42.666667l81.066667-85.333334 81.066667 85.333334c38.4 42.666667 110.933333 12.8 110.933333-42.666667V85.333333h213.333333v853.333334z"  /></svg>