<?xml version="1.0" standalone="no"?><!DOCTYPE svg PUBLIC "-//W3C//DTD SVG 1.1//EN" "http://www.w3.org/Graphics/SVG/1.1/DTD/svg11.dtd"><svg class="icon" width="200px" height="200.00px" viewBox="0 0 1024 1024" version="1.1" xmlns="http://www.w3.org/2000/svg"><path fill="#2c2c2c" d="M964.266667 68.266667c-51.2-12.8-128-25.6-196.266667-25.6-85.333333 0-183.466667 21.333333-230.4 34.133333-17.066667 4.266667-34.133333 4.266667-51.2 0C439.466667 64 341.333333 42.666667 256 42.666667c-68.266667 0-145.066667 12.8-196.266667 25.6-34.133333 8.533333-59.733333 42.666667-59.733333 81.066666v635.733334c0 55.466667 55.466667 98.133333 110.933333 85.333333 46.933333-8.533333 98.133333-17.066667 145.066667-17.066667s102.4 8.533333 149.333333 17.066667l76.8 76.8c17.066667 17.066667 42.666667 17.066667 59.733334 0l72.533333-76.8c51.2-8.533333 110.933333-17.066667 153.6-17.066667s98.133333 8.533333 149.333333 17.066667c55.466667 12.8 106.666667-29.866667 106.666667-85.333333V149.333333c0-38.4-25.6-72.533333-59.733333-81.066666zM938.666667 785.066667l-4.266667 4.266666c-51.2-12.8-115.2-21.333333-166.4-21.333333-51.2 0-115.2 12.8-166.4 21.333333l-25.6 4.266667-64 64-64-64-25.6-4.266667C371.2 776.533333 311.466667 768 256 768c-55.466667 0-115.2 8.533333-162.133333 17.066667H85.333333V149.333333C132.266667 140.8 200.533333 128 256 128c76.8 0 166.4 21.333333 209.066667 34.133333 29.866667 8.533333 64 8.533333 93.866666 0 42.666667-12.8 132.266667-34.133333 209.066667-34.133333 55.466667 0 123.733333 12.8 170.666667 21.333333v635.733334zM541.866667 891.733333z"  /><path fill="#2c2c2c" d="M469.333333 170.666667c0-25.6 17.066667-42.666667 42.666667-42.666667s42.666667 17.066667 42.666667 42.666667v426.666666c0 25.6-17.066667 42.666667-42.666667 42.666667s-42.666667-17.066667-42.666667-42.666667V170.666667z"  /></svg>