<?xml version="1.0" standalone="no"?><!DOCTYPE svg PUBLIC "-//W3C//DTD SVG 1.1//EN" "http://www.w3.org/Graphics/SVG/1.1/DTD/svg11.dtd"><svg class="icon" width="200px" height="200.00px" viewBox="0 0 1024 1024" version="1.1" xmlns="http://www.w3.org/2000/svg"><path fill="#2c2c2c" d="M938.666667 277.333333c0-38.4 12.8-76.8 29.866666-110.933333 17.066667-34.133333-4.266667-81.066667-42.666666-81.066667H192C85.333333 85.333333 0 170.666667 0 277.333333S85.333333 469.333333 192 469.333333h733.866667c38.4 0 59.733333-46.933333 42.666666-81.066666-17.066667-34.133333-29.866667-72.533333-29.866666-110.933334zM874.666667 384h-682.666667C132.266667 384 85.333333 337.066667 85.333333 277.333333S132.266667 170.666667 192 170.666667h682.666667c-12.8 29.866667-21.333333 68.266667-21.333334 106.666666 0 38.4 8.533333 76.8 21.333334 106.666667zM832 554.666667H98.133333c-38.4 0-59.733333 46.933333-42.666666 81.066666 17.066667 34.133333 29.866667 72.533333 29.866666 110.933334 0 38.4-12.8 76.8-29.866666 110.933333-17.066667 34.133333 4.266667 81.066667 42.666666 81.066667h733.866667c106.666667 0 192-85.333333 192-192S938.666667 554.666667 832 554.666667z m0 298.666666h-682.666667c12.8-29.866667 21.333333-68.266667 21.333334-106.666666 0-38.4-8.533333-76.8-21.333334-106.666667h682.666667c59.733333 0 106.666667 46.933333 106.666667 106.666667S891.733333 853.333333 832 853.333333z"  /></svg>