<?xml version="1.0" standalone="no"?><!DOCTYPE svg PUBLIC "-//W3C//DTD SVG 1.1//EN" "http://www.w3.org/Graphics/SVG/1.1/DTD/svg11.dtd"><svg class="icon" width="200px" height="200.00px" viewBox="0 0 1024 1024" version="1.1" xmlns="http://www.w3.org/2000/svg"><path fill="#2c2c2c" d="M938.666667 42.666667c-25.6 0-42.666667 17.066667-42.666667 42.666666v810.666667c0 25.6-17.066667 42.666667-42.666667 42.666667H170.666667c-25.6 0-42.666667-17.066667-42.666667-42.666667v-4.266667c0-25.6 17.066667-42.666667 42.666667-42.666666h597.333333c25.6 0 42.666667-17.066667 42.666667-42.666667V85.333333c0-46.933333-38.4-85.333333-85.333334-85.333333H128C81.066667 0 42.666667 38.4 42.666667 85.333333v810.666667c0 72.533333 55.466667 128 128 128h682.666666c72.533333 0 128-55.466667 128-128V85.333333c0-25.6-17.066667-42.666667-42.666666-42.666666zM128 85.333333h597.333333v678.4H170.666667c-17.066667 0-29.866667 4.266667-42.666667 8.533334V85.333333z"  /></svg>