<?xml version="1.0" standalone="no"?><!DOCTYPE svg PUBLIC "-//W3C//DTD SVG 1.1//EN" "http://www.w3.org/Graphics/SVG/1.1/DTD/svg11.dtd"><svg class="icon" width="200px" height="200.00px" viewBox="0 0 1024 1024" version="1.1" xmlns="http://www.w3.org/2000/svg"><path fill="#2c2c2c" d="M989.866667 213.333333L810.666667 34.133333c-34.133333-34.133333-85.333333-34.133333-119.466667 0L507.733333 213.333333c-34.133333 34.133333-34.133333 85.333333 0 119.466667l179.2 179.2c34.133333 34.133333 85.333333 34.133333 119.466667 0l179.2-179.2c38.4-29.866667 38.4-85.333333 4.266667-119.466667z m-243.2 243.2l-179.2-179.2 179.2-179.2 179.2 179.2-179.2 179.2zM341.333333 42.666667H85.333333C38.4 42.666667 0 81.066667 0 128v256c0 46.933333 38.4 85.333333 85.333333 85.333333h256c46.933333 0 85.333333-38.4 85.333334-85.333333V128c0-46.933333-38.4-85.333333-85.333334-85.333333z m0 341.333333H85.333333V128h256v256zM341.333333 597.333333H85.333333c-46.933333 0-85.333333 38.4-85.333333 85.333334v256c0 46.933333 38.4 85.333333 85.333333 85.333333h256c46.933333 0 85.333333-38.4 85.333334-85.333333v-256c0-46.933333-38.4-85.333333-85.333334-85.333334z m0 341.333334H85.333333v-256h256v256zM896 597.333333h-256c-46.933333 0-85.333333 38.4-85.333333 85.333334v256c0 46.933333 38.4 85.333333 85.333333 85.333333h256c46.933333 0 85.333333-38.4 85.333333-85.333333v-256c0-46.933333-38.4-85.333333-85.333333-85.333334z m0 341.333334h-256v-256h256v256z"  /></svg>