<?xml version="1.0" standalone="no"?><!DOCTYPE svg PUBLIC "-//W3C//DTD SVG 1.1//EN" "http://www.w3.org/Graphics/SVG/1.1/DTD/svg11.dtd"><svg class="icon" width="200px" height="200.00px" viewBox="0 0 1024 1024" version="1.1" xmlns="http://www.w3.org/2000/svg"><path fill="#2c2c2c" d="M311.466667 311.466667c17.066667-17.066667 42.666667-17.066667 59.733333 0l140.8 140.8 140.8-140.8c17.066667-17.066667 42.666667-17.066667 59.733333 0 17.066667 17.066667 17.066667 42.666667 0 59.733333L571.733333 512l140.8 140.8c17.066667 17.066667 17.066667 42.666667 0 59.733333-17.066667 17.066667-42.666667 17.066667-59.733333 0L512 571.733333l-140.8 140.8c-17.066667 17.066667-42.666667 17.066667-59.733333 0-17.066667-17.066667-17.066667-42.666667 0-59.733333l140.8-140.8-140.8-140.8c-17.066667-17.066667-17.066667-42.666667 0-59.733333z"  /><path fill="#2c2c2c" d="M512 64C264.533333 64 64 264.533333 64 512S264.533333 960 512 960 960 759.466667 960 512 759.466667 64 512 64z m0 810.666667c-200.533333 0-362.666667-162.133333-362.666667-362.666667S311.466667 149.333333 512 149.333333s362.666667 162.133333 362.666667 362.666667-162.133333 362.666667-362.666667 362.666667z"  /></svg>