<?xml version="1.0" standalone="no"?><!DOCTYPE svg PUBLIC "-//W3C//DTD SVG 1.1//EN" "http://www.w3.org/Graphics/SVG/1.1/DTD/svg11.dtd"><svg class="icon" width="200px" height="200.00px" viewBox="0 0 1024 1024" version="1.1" xmlns="http://www.w3.org/2000/svg"><path fill="#2c2c2c" d="M256 426.666667h85.333333V341.333333a170.666667 170.666667 0 1 1 341.333334 0v85.333334h85.333333a170.666667 170.666667 0 0 1 25.472 339.456l-12.586667 1.877333H628.48l36.394667-31.914667a42.666667 42.666667 0 0 0-56.32-64.128l-124.714667 109.44a42.666667 42.666667 0 0 0 1.28 65.237334l128 103.850666a42.666667 42.666667 0 0 0 53.76-66.304l-40.362667-32.725333 179.541334-0.938667A256.042667 256.042667 0 0 0 768 341.333333 256 256 0 0 0 256 341.333333a256 256 0 0 0 0 512h4.48v-0.298666a42.666667 42.666667 0 1 0 0-84.778667V768H256a170.666667 170.666667 0 0 1 0-341.333333z"  /></svg>