<?xml version="1.0" standalone="no"?><!DOCTYPE svg PUBLIC "-//W3C//DTD SVG 1.1//EN" "http://www.w3.org/Graphics/SVG/1.1/DTD/svg11.dtd"><svg class="icon" width="200px" height="200.00px" viewBox="0 0 1024 1024" version="1.1" xmlns="http://www.w3.org/2000/svg"><path fill="#2c2c2c" d="M512 904.405333a42.666667 42.666667 0 0 0 42.666667-42.666666v-301.44l55.637333 53.930666a42.666667 42.666667 0 1 0 59.392-61.312l-132.096-128a42.666667 42.666667 0 0 0-60.330667 0.981334l-123.904 128a42.666667 42.666667 0 1 0 61.269334 59.349333L469.333333 556.8v304.938667a42.666667 42.666667 0 0 0 42.666667 42.666666z"  /><path fill="#2c2c2c" d="M256 426.666667h85.333333V341.333333a170.666667 170.666667 0 1 1 341.333334 0v85.333334h85.333333a170.666667 170.666667 0 0 1 25.472 339.456l-12.586667 1.877333h-7.04l-2.005333 83.456 34.218667-0.938667A256.042667 256.042667 0 0 0 768 341.333333 256 256 0 0 0 256 341.333333a256 256 0 0 0 0 512h4.48v-0.298666a42.666667 42.666667 0 1 0 0-84.778667V768H256a170.666667 170.666667 0 0 1 0-341.333333z"  /><path fill="#2c2c2c" d="M770.645333 809.728m-41.728 0a41.728 41.728 0 1 0 83.456 0 41.728 41.728 0 1 0-83.456 0Z"  /></svg>