<?xml version="1.0" standalone="no"?><!DOCTYPE svg PUBLIC "-//W3C//DTD SVG 1.1//EN" "http://www.w3.org/Graphics/SVG/1.1/DTD/svg11.dtd"><svg class="icon" width="200px" height="200.00px" viewBox="0 0 1024 1024" version="1.1" xmlns="http://www.w3.org/2000/svg"><path fill="#2c2c2c" d="M768 384c0-140.8-115.2-256-256-256S256 243.2 256 384c-140.8 0-256 115.2-256 256s115.2 256 256 256h550.4v-4.266667C930.133333 874.666667 1024 768 1024 640c0-140.8-115.2-256-256-256z m25.6 426.666667H256c-93.866667 0-170.666667-76.8-170.666667-170.666667s76.8-170.666667 170.666667-170.666667h85.333333V384c0-93.866667 76.8-170.666667 170.666667-170.666667s170.666667 76.8 170.666667 170.666667v85.333333h85.333333c93.866667 0 170.666667 76.8 170.666667 170.666667 0 85.333333-64 157.866667-145.066667 170.666667z"  /></svg>