<?xml version="1.0" standalone="no"?><!DOCTYPE svg PUBLIC "-//W3C//DTD SVG 1.1//EN" "http://www.w3.org/Graphics/SVG/1.1/DTD/svg11.dtd"><svg class="icon" width="200px" height="200.00px" viewBox="0 0 1024 1024" version="1.1" xmlns="http://www.w3.org/2000/svg"><path fill="#2c2c2c" d="M395.093333 185.173333a44.288 44.288 0 0 1-3.712 60.245334l-288.298666 266.538666 289.152 266.581334c16.853333 15.530667 18.56 42.496 3.84 60.245333a39.082667 39.082667 0 0 1-57.173334 4.010667l-289.152-266.624c-36.864-33.962667-36.906667-94.336-0.085333-128.341334L337.92 181.248a39.082667 39.082667 0 0 1 57.130667 3.925333zM651.008 185.173333a44.288 44.288 0 0 0 3.712 60.245334l288.298667 266.538666-289.194667 266.581334a44.288 44.288 0 0 0-3.84 60.245333 39.082667 39.082667 0 0 0 57.173333 4.010667l289.194667-266.624c36.821333-33.962667 36.864-94.336 0.085333-128.341334l-288.298666-266.581333a39.082667 39.082667 0 0 0-57.173334 3.925333zM558.933333 42.88a42.666667 42.666667 0 0 1 38.186667 46.72l-85.333333 853.333333a42.666667 42.666667 0 1 1-84.906667-8.533333l85.333333-853.333333a42.666667 42.666667 0 0 1 46.72-38.186667z"  /></svg>