<?xml version="1.0" standalone="no"?><!DOCTYPE svg PUBLIC "-//W3C//DTD SVG 1.1//EN" "http://www.w3.org/Graphics/SVG/1.1/DTD/svg11.dtd"><svg class="icon" width="200px" height="200.00px" viewBox="0 0 1024 1024" version="1.1" xmlns="http://www.w3.org/2000/svg"><path fill="#2c2c2c" d="M213.333333 426.666667c0-25.6 17.066667-42.666667 42.666667-42.666667h512c25.6 0 42.666667 17.066667 42.666667 42.666667s-17.066667 42.666667-42.666667 42.666666H256c-25.6 0-42.666667-17.066667-42.666667-42.666666zM256 597.333333c-25.6 0-42.666667 17.066667-42.666667 42.666667s17.066667 42.666667 42.666667 42.666667h298.666667c25.6 0 42.666667-17.066667 42.666666-42.666667s-17.066667-42.666667-42.666666-42.666667H256z"  /><path fill="#2c2c2c" d="M554.666667 42.666667h-85.333334C209.066667 42.666667 0 251.733333 0 512c0 128 51.2 238.933333 132.266667 324.266667l4.266666 136.533333c0 17.066667 8.533333 29.866667 21.333334 38.4 12.8 8.533333 29.866667 4.266667 42.666666-4.266667l89.6-59.733333c55.466667 21.333333 115.2 34.133333 179.2 34.133333h85.333334c260.266667 0 469.333333-209.066667 469.333333-469.333333S814.933333 42.666667 554.666667 42.666667z m0 853.333333h-85.333334c-59.733333 0-115.2-12.8-166.4-38.4-12.8-8.533333-29.866667-4.266667-42.666666 4.266667l-42.666667 29.866666-4.266667-76.8c0-12.8-4.266667-21.333333-12.8-29.866666C132.266667 716.8 85.333333 618.666667 85.333333 512c0-213.333333 170.666667-384 384-384h85.333334c213.333333 0 384 170.666667 384 384s-170.666667 384-384 384z"  /></svg>