<?xml version="1.0" standalone="no"?><!DOCTYPE svg PUBLIC "-//W3C//DTD SVG 1.1//EN" "http://www.w3.org/Graphics/SVG/1.1/DTD/svg11.dtd"><svg class="icon" width="200px" height="200.00px" viewBox="0 0 1024 1024" version="1.1" xmlns="http://www.w3.org/2000/svg"><path fill="#2c2c2c" d="M245.76 491.52c32.768 0 61.44-28.672 61.44-61.44S278.528 368.64 245.76 368.64 184.32 397.312 184.32 430.08 212.992 491.52 245.76 491.52zM573.44 430.08c0 32.768-28.672 61.44-61.44 61.44s-61.44-28.672-61.44-61.44S479.232 368.64 512 368.64s61.44 28.672 61.44 61.44zM778.24 491.52c32.768 0 61.44-28.672 61.44-61.44S811.008 368.64 778.24 368.64s-61.44 28.672-61.44 61.44 28.672 61.44 61.44 61.44z"  /><path fill="#2c2c2c" d="M880.64 20.48H143.36c-69.632 0-122.88 53.248-122.88 122.88v573.44c0 69.632 53.248 122.88 122.88 122.88h266.24l102.4 155.648 102.4-155.648H880.64c69.632 0 122.88-53.248 122.88-122.88v-573.44c0-69.632-53.248-122.88-122.88-122.88z m40.96 696.32c0 24.576-16.384 40.96-40.96 40.96h-307.2L512 847.872l-61.44-90.112H143.36c-24.576 0-40.96-16.384-40.96-40.96v-573.44c0-24.576 16.384-40.96 40.96-40.96h737.28c24.576 0 40.96 16.384 40.96 40.96v573.44z"  /></svg>