<?xml version="1.0" standalone="no"?><!DOCTYPE svg PUBLIC "-//W3C//DTD SVG 1.1//EN" "http://www.w3.org/Graphics/SVG/1.1/DTD/svg11.dtd"><svg class="icon" width="200px" height="200.00px" viewBox="0 0 1024 1024" version="1.1" xmlns="http://www.w3.org/2000/svg"><path fill="#2c2c2c" d="M213.333333 42.666667c0-25.6 17.066667-42.666667 42.666667-42.666667h554.666667c72.533333 0 128 55.466667 128 128v682.666667c0 25.6-17.066667 42.666667-42.666667 42.666666s-42.666667-17.066667-42.666667-42.666666V128c0-25.6-17.066667-42.666667-42.666666-42.666667H256c-25.6 0-42.666667-17.066667-42.666667-42.666666z"  /><path fill="#2c2c2c" d="M277.333333 328.533333c-25.6 0-42.666667 17.066667-42.666666 42.666667s17.066667 42.666667 42.666666 42.666667h341.333334c25.6 0 42.666667-17.066667 42.666666-42.666667s-17.066667-42.666667-42.666666-42.666667h-341.333334zM234.666667 576c0-25.6 17.066667-42.666667 42.666666-42.666667h341.333334c25.6 0 42.666667 17.066667 42.666666 42.666667s-17.066667 42.666667-42.666666 42.666667h-341.333334c-25.6 0-42.666667-17.066667-42.666666-42.666667zM277.333333 738.133333c-25.6 0-42.666667 17.066667-42.666666 42.666667s17.066667 42.666667 42.666666 42.666667h341.333334c25.6 0 42.666667-17.066667 42.666666-42.666667s-17.066667-42.666667-42.666666-42.666667h-341.333334z"  /><path fill="#2c2c2c" d="M725.333333 128H170.666667c-46.933333 0-85.333333 38.4-85.333334 85.333333v725.333334c0 46.933333 38.4 85.333333 85.333334 85.333333h554.666666c46.933333 0 85.333333-38.4 85.333334-85.333333V213.333333c0-46.933333-38.4-85.333333-85.333334-85.333333z m0 810.666667H170.666667V213.333333h554.666666v725.333334z"  /></svg>