<?xml version="1.0" standalone="no"?><!DOCTYPE svg PUBLIC "-//W3C//DTD SVG 1.1//EN" "http://www.w3.org/Graphics/SVG/1.1/DTD/svg11.dtd"><svg class="icon" width="200px" height="200.00px" viewBox="0 0 1024 1024" version="1.1" xmlns="http://www.w3.org/2000/svg"><path fill="#2c2c2c" d="M682.666667 170.666667H170.666667C76.8 170.666667 0 247.466667 0 341.333333v512c0 93.866667 76.8 170.666667 170.666667 170.666667h512c93.866667 0 170.666667-76.8 170.666666-170.666667V341.333333c0-93.866667-76.8-170.666667-170.666666-170.666666z m85.333333 682.666666c0 46.933333-38.4 85.333333-85.333333 85.333334H170.666667c-46.933333 0-85.333333-38.4-85.333334-85.333334V341.333333c0-46.933333 38.4-85.333333 85.333334-85.333333h512c46.933333 0 85.333333 38.4 85.333333 85.333333v512z"  /><path fill="#2c2c2c" d="M341.333333 85.333333h512c46.933333 0 85.333333 38.4 85.333334 85.333334v512c0 34.133333-17.066667 59.733333-42.666667 76.8v89.6c72.533333-17.066667 128-85.333333 128-166.4V170.666667c0-93.866667-76.8-170.666667-170.666667-170.666667H341.333333C256 0 187.733333 59.733333 174.933333 140.8h89.6C273.066667 110.933333 302.933333 85.333333 341.333333 85.333333z"  /><path fill="#2c2c2c" d="M384 810.666667c0 25.6 17.066667 42.666667 42.666667 42.666666s42.666667-17.066667 42.666666-42.666666v-170.666667h170.666667c25.6 0 42.666667-17.066667 42.666667-42.666667s-17.066667-42.666667-42.666667-42.666666h-170.666667V384c0-25.6-17.066667-42.666667-42.666666-42.666667s-42.666667 17.066667-42.666667 42.666667v170.666667H213.333333c-25.6 0-42.666667 17.066667-42.666666 42.666666s17.066667 42.666667 42.666666 42.666667h170.666667v170.666667z"  /></svg>