<?xml version="1.0" standalone="no"?><!DOCTYPE svg PUBLIC "-//W3C//DTD SVG 1.1//EN" "http://www.w3.org/Graphics/SVG/1.1/DTD/svg11.dtd"><svg class="icon" width="200px" height="200.00px" viewBox="0 0 1024 1024" version="1.1" xmlns="http://www.w3.org/2000/svg"><path fill="#2c2c2c" d="M938.666667 298.666667c46.933333 0 85.333333-38.4 85.333333-85.333334V85.333333c0-46.933333-38.4-85.333333-85.333333-85.333333h-128c-46.933333 0-85.333333 38.4-85.333334 85.333333v21.333334H298.666667V85.333333c0-46.933333-38.4-85.333333-85.333334-85.333333H85.333333C38.4 0 0 38.4 0 85.333333v128c0 46.933333 38.4 85.333333 85.333333 85.333334h21.333334v426.666666H85.333333c-46.933333 0-85.333333 38.4-85.333333 85.333334v128c0 46.933333 38.4 85.333333 85.333333 85.333333h128c46.933333 0 85.333333-38.4 85.333334-85.333333v-21.333334h426.666666v21.333334c0 46.933333 38.4 85.333333 85.333334 85.333333h128c46.933333 0 85.333333-38.4 85.333333-85.333333v-128c0-46.933333-38.4-85.333333-85.333333-85.333334h-21.333334V298.666667h21.333334zM85.333333 213.333333V85.333333h128v128H85.333333z m128 725.333334H85.333333v-128h128v128z m512-128v21.333333H298.666667V810.666667c0-46.933333-38.4-85.333333-85.333334-85.333334h-21.333333V298.666667H213.333333c46.933333 0 85.333333-38.4 85.333334-85.333334v-21.333333h426.666666V213.333333c0 46.933333 38.4 85.333333 85.333334 85.333334h21.333333v426.666666H810.666667c-46.933333 0-85.333333 38.4-85.333334 85.333334z m213.333334 0v128h-128v-128h128zM810.666667 213.333333V85.333333h128v128h-128z"  /></svg>