<?xml version="1.0" standalone="no"?><!DOCTYPE svg PUBLIC "-//W3C//DTD SVG 1.1//EN" "http://www.w3.org/Graphics/SVG/1.1/DTD/svg11.dtd"><svg class="icon" width="200px" height="200.00px" viewBox="0 0 1024 1024" version="1.1" xmlns="http://www.w3.org/2000/svg"><path fill="#2c2c2c" d="M0 256v682.666667c0 46.933333 38.4 85.333333 85.333333 85.333333h853.333334c46.933333 0 85.333333-38.4 85.333333-85.333333V256H0z m938.666667 682.666667H85.333333V341.333333h853.333334v597.333334z"  /><path fill="#2c2c2c" d="M938.666667 0H85.333333C38.4 0 0 38.4 0 85.333333v256h1024V85.333333c0-46.933333-38.4-85.333333-85.333333-85.333333z m0 256H85.333333V85.333333h853.333334v170.666667z"  /><path fill="#2c2c2c" d="M512 21.333333c25.6 0 42.666667 17.066667 42.666667 42.666667V298.666667c0 25.6-17.066667 42.666667-42.666667 42.666666s-42.666667-17.066667-42.666667-42.666666V64c0-25.6 17.066667-42.666667 42.666667-42.666667zM170.666667 512c0-25.6 17.066667-42.666667 42.666666-42.666667h597.333334c25.6 0 42.666667 17.066667 42.666666 42.666667s-17.066667 42.666667-42.666666 42.666667H213.333333c-25.6 0-42.666667-17.066667-42.666666-42.666667zM170.666667 768c0-25.6 17.066667-42.666667 42.666666-42.666667h384c25.6 0 42.666667 17.066667 42.666667 42.666667s-17.066667 42.666667-42.666667 42.666667H213.333333c-25.6 0-42.666667-17.066667-42.666666-42.666667z"  /></svg>