<?xml version="1.0" standalone="no"?><!DOCTYPE svg PUBLIC "-//W3C//DTD SVG 1.1//EN" "http://www.w3.org/Graphics/SVG/1.1/DTD/svg11.dtd"><svg class="icon" width="200px" height="200.00px" viewBox="0 0 1024 1024" version="1.1" xmlns="http://www.w3.org/2000/svg"><path fill="#2c2c2c" d="M426.666667 31.573333a42.666667 42.666667 0 1 0 0 85.333334h170.666666a42.666667 42.666667 0 1 0 0-85.333334h-170.666666zM42.666667 213.333333a42.666667 42.666667 0 0 1 42.666666-42.666666h853.333334a42.666667 42.666667 0 1 1 0 85.333333H85.333333a42.666667 42.666667 0 0 1-42.666666-42.666667zM856.362667 298.794667a42.666667 42.666667 0 0 1 39.509333 45.568l-39.850667 560.725333A128 128 0 0 1 728.362667 1024H295.552a128 128 0 0 1-127.658667-118.826667L128.128 349.866667a42.666667 42.666667 0 1 1 85.077333-6.101334l39.850667 555.264a42.666667 42.666667 0 0 0 42.538667 39.594667H728.32a42.666667 42.666667 0 0 0 42.581333-39.637333l39.893334-560.725334a42.666667 42.666667 0 0 1 45.568-39.509333z"  /><path fill="#2c2c2c" d="M469.333333 384a42.666667 42.666667 0 1 0-85.333333 0v426.666667a42.666667 42.666667 0 1 0 85.333333 0V384zM597.333333 341.333333a42.666667 42.666667 0 0 1 42.666667 42.666667v426.666667a42.666667 42.666667 0 1 1-85.333333 0V384a42.666667 42.666667 0 0 1 42.666666-42.666667z"  /></svg>