<?xml version="1.0" standalone="no"?><!DOCTYPE svg PUBLIC "-//W3C//DTD SVG 1.1//EN" "http://www.w3.org/Graphics/SVG/1.1/DTD/svg11.dtd"><svg class="icon" width="200px" height="200.00px" viewBox="0 0 1024 1024" version="1.1" xmlns="http://www.w3.org/2000/svg"><path fill="#2c2c2c" d="M853.333333 0H170.666667C76.8 0 0 76.8 0 170.666667v682.666666c0 93.866667 76.8 170.666667 170.666667 170.666667h682.666666c93.866667 0 170.666667-76.8 170.666667-170.666667V170.666667c0-93.866667-76.8-170.666667-170.666667-170.666667z m85.333334 853.333333c0 46.933333-38.4 85.333333-85.333334 85.333334H170.666667c-46.933333 0-85.333333-38.4-85.333334-85.333334V170.666667c0-46.933333 38.4-85.333333 85.333334-85.333334h682.666666c46.933333 0 85.333333 38.4 85.333334 85.333334v682.666666z"  /><path fill="#2c2c2c" d="M268.8 379.733333l-102.4 21.333334V328.533333l123.733333-25.6h64v413.866667h-85.333333V379.733333zM529.066667 494.933333h-25.6c-4.266667 0-12.8-4.266667-17.066667-8.533333-4.266667-4.266667-4.266667-8.533333-8.533333-17.066667v-29.866666-25.6c0-8.533333 4.266667-12.8 8.533333-17.066667 4.266667-4.266667 8.533333-8.533333 17.066667-8.533333H554.666667c8.533333 0 12.8 4.266667 17.066666 8.533333 4.266667 4.266667 8.533333 8.533333 8.533334 17.066667V469.333333c0 8.533333-4.266667 12.8-8.533334 17.066667-4.266667 4.266667-8.533333 4.266667-17.066666 8.533333h-25.6z m0 226.133334h-25.6c-4.266667 0-12.8-4.266667-17.066667-8.533334-4.266667-4.266667-4.266667-8.533333-8.533333-17.066666v-25.6-25.6c0-8.533333 4.266667-12.8 8.533333-17.066667 4.266667-4.266667 8.533333-8.533333 17.066667-8.533333H554.666667c8.533333 0 12.8 4.266667 17.066666 8.533333 4.266667 4.266667 8.533333 8.533333 8.533334 17.066667v51.2c0 8.533333-4.266667 12.8-8.533334 17.066666-4.266667 4.266667-8.533333 8.533333-17.066666 8.533334h-25.6zM768 379.733333l-102.4 21.333334V328.533333l123.733333-25.6H853.333333v413.866667h-85.333333V379.733333z"  /></svg>