<?xml version="1.0" standalone="no"?><!DOCTYPE svg PUBLIC "-//W3C//DTD SVG 1.1//EN" "http://www.w3.org/Graphics/SVG/1.1/DTD/svg11.dtd"><svg class="icon" width="200px" height="200.00px" viewBox="0 0 1024 1024" version="1.1" xmlns="http://www.w3.org/2000/svg"><path fill="#2c2c2c" d="M938.666667 42.666667H85.333333C38.4 42.666667 0 81.066667 0 128v597.333333c0 46.933333 38.4 85.333333 85.333333 85.333334h392.533334v85.333333H341.333333c-25.6 0-42.666667 17.066667-42.666666 42.666667s17.066667 42.666667 42.666666 42.666666h341.333334c25.6 0 42.666667-17.066667 42.666666-42.666666s-17.066667-42.666667-42.666666-42.666667h-119.466667v-85.333333H938.666667c46.933333 0 85.333333-38.4 85.333333-85.333334V128c0-46.933333-38.4-85.333333-85.333333-85.333333z m0 682.666666H85.333333V128h853.333334v597.333333z"  /></svg>