<?xml version="1.0" standalone="no"?><!DOCTYPE svg PUBLIC "-//W3C//DTD SVG 1.1//EN" "http://www.w3.org/Graphics/SVG/1.1/DTD/svg11.dtd"><svg class="icon" width="200px" height="200.00px" viewBox="0 0 1024 1024" version="1.1" xmlns="http://www.w3.org/2000/svg"><path fill="#2c2c2c" d="M1024 896V298.666667h-85.333333v597.333333H85.333333V298.666667H0v597.333333c0 46.933333 38.4 85.333333 85.333333 85.333333h853.333334c46.933333 0 85.333333-38.4 85.333333-85.333333z"  /><path fill="#2c2c2c" d="M938.666667 42.666667H85.333333C38.4 42.666667 0 81.066667 0 128v256h1024V128c0-46.933333-38.4-85.333333-85.333333-85.333333z m0 256H85.333333V128h853.333334v170.666667zM669.866667 567.466667l-166.4-106.666667c-55.466667-38.4-132.266667 4.266667-132.266667 72.533333v213.333334c0 68.266667 72.533333 106.666667 132.266667 72.533333l166.4-106.666667c55.466667-34.133333 55.466667-110.933333 0-145.066666z m-209.066667 179.2v-213.333334l166.4 106.666667-166.4 106.666667z"  /><path fill="#2c2c2c" d="M473.6 68.266667c17.066667 12.8 21.333333 42.666667 8.533333 59.733333L320 349.866667c-12.8 17.066667-42.666667 21.333333-59.733333 8.533333-21.333333-12.8-25.6-38.4-12.8-59.733333l166.4-221.866667c12.8-21.333333 42.666667-21.333333 59.733333-8.533333zM763.733333 68.266667c17.066667 12.8 21.333333 42.666667 8.533334 59.733333l-166.4 221.866667c-12.8 17.066667-42.666667 21.333333-59.733334 8.533333-17.066667-12.8-21.333333-42.666667-8.533333-59.733333l166.4-221.866667c17.066667-21.333333 42.666667-21.333333 59.733333-8.533333z"  /></svg>