<?xml version="1.0" standalone="no"?><!DOCTYPE svg PUBLIC "-//W3C//DTD SVG 1.1//EN" "http://www.w3.org/Graphics/SVG/1.1/DTD/svg11.dtd"><svg class="icon" width="200px" height="200.00px" viewBox="0 0 1024 1024" version="1.1" xmlns="http://www.w3.org/2000/svg"><path fill="#2c2c2c" d="M938.666667 708.266667l-162.133334-119.466667c-21.333333-17.066667-51.2-21.333333-76.8-12.8l-81.066666 25.6c-17.066667 4.266667-29.866667 4.266667-38.4 4.266667-21.333333-8.533333-59.733333-29.866667-102.4-72.533334s-64-81.066667-72.533334-102.4c-4.266667-8.533333-4.266667-17.066667 0-38.4l25.6-81.066666c8.533333-25.6 4.266667-55.466667-12.8-76.8L302.933333 72.533333C268.8 25.6 200.533333 25.6 166.4 72.533333l-85.333333 102.4c-68.266667 85.333333-85.333333 204.8-25.6 302.933334C102.4 554.666667 170.666667 657.066667 260.266667 742.4c85.333333 85.333333 183.466667 153.6 264.533333 200.533333 98.133333 59.733333 221.866667 46.933333 311.466667-21.333333l102.4-81.066667c46.933333-29.866667 42.666667-98.133333 0-132.266666z m-153.6 149.333333c-64 51.2-149.333333 59.733333-213.333334 17.066667-72.533333-46.933333-166.4-110.933333-247.466666-187.733334-81.066667-81.066667-149.333333-174.933333-192-247.466666-38.4-68.266667-29.866667-149.333333 17.066666-209.066667l81.066667-106.666667 119.466667 162.133334-25.6 81.066666c-8.533333 25.6-12.8 59.733333 0 93.866667 12.8 34.133333 38.4 81.066667 89.6 132.266667 51.2 51.2 98.133333 76.8 132.266666 89.6 34.133333 12.8 68.266667 8.533333 98.133334 0l81.066666-25.6 162.133334 119.466666-102.4 81.066667zM499.2 72.533333c-4.266667-21.333333 8.533333-46.933333 34.133333-51.2 136.533333-25.6 268.8 8.533333 358.4 89.6 93.866667 85.333333 140.8 217.6 115.2 379.733334-4.266667 21.333333-25.6 38.4-46.933333 34.133333-21.333333-4.266667-38.4-25.6-34.133333-46.933333 21.333333-136.533333-17.066667-238.933333-85.333334-302.933334S665.6 81.066667 554.666667 102.4c-29.866667 8.533333-51.2-8.533333-55.466667-29.866667z"  /><path fill="#2c2c2c" d="M494.933333 238.933333c-4.266667-21.333333 12.8-42.666667 38.4-46.933333 153.6-21.333333 307.2 98.133333 290.133334 285.866667-4.266667 21.333333-21.333333 42.666667-46.933334 38.4s-42.666667-21.333333-38.4-46.933334c12.8-128-89.6-209.066667-192-196.266666-25.6 4.266667-46.933333-12.8-51.2-34.133334z"  /></svg>