<?xml version="1.0" standalone="no"?><!DOCTYPE svg PUBLIC "-//W3C//DTD SVG 1.1//EN" "http://www.w3.org/Graphics/SVG/1.1/DTD/svg11.dtd"><svg class="icon" width="200px" height="200.00px" viewBox="0 0 1024 1024" version="1.1" xmlns="http://www.w3.org/2000/svg"><path fill="#2c2c2c" d="M853.333333 0H170.666667C76.8 0 0 76.8 0 170.666667v682.666666c0 93.866667 76.8 170.666667 170.666667 170.666667h682.666666c93.866667 0 170.666667-76.8 170.666667-170.666667V170.666667c0-93.866667-76.8-170.666667-170.666667-170.666667z m85.333334 853.333333c0 46.933333-38.4 85.333333-85.333334 85.333334H170.666667c-46.933333 0-85.333333-38.4-85.333334-85.333334V170.666667c0-46.933333 38.4-85.333333 85.333334-85.333334h682.666666c46.933333 0 85.333333 38.4 85.333334 85.333334v682.666666z"  /><path fill="#2c2c2c" d="M853.333333 209.066667c4.266667 21.333333-12.8 42.666667-38.4 46.933333h-8.533333c-34.133333 4.266667-81.066667 8.533333-128 34.133333-46.933333 25.6-89.6 81.066667-93.866667 200.533334-4.266667 157.866667-76.8 243.2-157.866666 294.4-64 38.4-132.266667 51.2-174.933334 59.733333-8.533333 4.266667-17.066667 4.266667-25.6 4.266667-21.333333 4.266667-46.933333-8.533333-51.2-29.866667-4.266667-21.333333 8.533333-46.933333 29.866667-51.2 8.533333 0 21.333333-4.266667 34.133333-8.533333 42.666667-8.533333 93.866667-21.333333 140.8-46.933334 59.733333-34.133333 110.933333-98.133333 115.2-221.866666 4.266667-145.066667 64-226.133333 136.533334-268.8 64-38.4 132.266667-42.666667 162.133333-46.933334h8.533333c25.6-8.533333 46.933333 8.533333 51.2 34.133334z"  /></svg>