<?xml version="1.0" standalone="no"?><!DOCTYPE svg PUBLIC "-//W3C//DTD SVG 1.1//EN" "http://www.w3.org/Graphics/SVG/1.1/DTD/svg11.dtd"><svg class="icon" width="200px" height="200.00px" viewBox="0 0 1024 1024" version="1.1" xmlns="http://www.w3.org/2000/svg"><path fill="#2c2c2c" d="M512 85.333333a42.666667 42.666667 0 0 1 42.666667 42.666667v494.336l97.834666-97.834667a42.666667 42.666667 0 0 1 60.330667 60.330667L571.733333 725.973333a85.333333 85.333333 0 0 1-119.466666 1.237334l-140.458667-134.826667a42.666667 42.666667 0 1 1 59.050667-61.568L469.333333 625.28V128a42.666667 42.666667 0 0 1 42.666667-42.666667z m426.666667 469.333334a42.666667 42.666667 0 0 1 42.666666 42.666666v256a85.333333 85.333333 0 0 1-85.333333 85.333334H128a85.333333 85.333333 0 0 1-85.333333-85.333334v-246.357333a42.666667 42.666667 0 1 1 85.333333 0V853.333333h768v-256a42.666667 42.666667 0 0 1 42.666667-42.666666z"  /></svg>