<?xml version="1.0" standalone="no"?><!DOCTYPE svg PUBLIC "-//W3C//DTD SVG 1.1//EN" "http://www.w3.org/Graphics/SVG/1.1/DTD/svg11.dtd"><svg class="icon" width="200px" height="200.00px" viewBox="0 0 1024 1024" version="1.1" xmlns="http://www.w3.org/2000/svg"><path fill="#2c2c2c" d="M793.6 268.8L597.333333 106.666667c-34.133333-29.866667-89.6-25.6-119.466666 8.533333L64 610.133333c-17.066667 17.066667-21.333333 42.666667-21.333333 64l17.066666 179.2c4.266667 46.933333 46.933333 81.066667 93.866667 76.8l179.2-17.066666c21.333333 0 42.666667-12.8 59.733333-29.866667l320-379.733333c4.266667 0 4.266667-4.266667 8.533334-8.533334 0-4.266667 4.266667-4.266667 4.266666-8.533333L810.666667 384c25.6-29.866667 21.333333-85.333333-17.066667-115.2z m-469.333333 563.2l-179.2 17.066667-17.066667-183.466667 294.4-349.866667 200.533333 162.133334-298.666666 354.133333z m349.866666-418.133333l-200.533333-162.133334L546.133333 170.666667l196.266667 166.4-68.266667 76.8zM469.333333 861.866667c0-25.6 17.066667-42.666667 42.666667-42.666667h426.666667c25.6 0 42.666667 17.066667 42.666666 42.666667s-17.066667 42.666667-42.666666 42.666666H512c-25.6 0-42.666667-21.333333-42.666667-42.666666z"  /></svg>