<?xml version="1.0" standalone="no"?><!DOCTYPE svg PUBLIC "-//W3C//DTD SVG 1.1//EN" "http://www.w3.org/Graphics/SVG/1.1/DTD/svg11.dtd"><svg class="icon" width="200px" height="200.00px" viewBox="0 0 1024 1024" version="1.1" xmlns="http://www.w3.org/2000/svg"><path fill="#2c2c2c" d="M499.498667 584.832l426.666666-426.666667a42.666667 42.666667 0 0 0-60.330666-60.330666l-426.666667 426.666666a42.666667 42.666667 0 1 0 60.330667 60.330667zM170.666667 85.333333h384a42.666667 42.666667 0 1 1 0 85.333334H170.666667v682.666666h682.666666v-388.48h0.256a42.666667 42.666667 0 0 1 84.821334 0H938.666667V853.333333a85.333333 85.333333 0 0 1-85.333334 85.333334H170.666667a85.333333 85.333333 0 0 1-85.333334-85.333334V170.666667a85.333333 85.333333 0 0 1 85.333334-85.333334z"  /></svg>