<?xml version="1.0" standalone="no"?><!DOCTYPE svg PUBLIC "-//W3C//DTD SVG 1.1//EN" "http://www.w3.org/Graphics/SVG/1.1/DTD/svg11.dtd"><svg class="icon" width="200px" height="200.00px" viewBox="0 0 1024 1024" version="1.1" xmlns="http://www.w3.org/2000/svg"><path fill="#2c2c2c" d="M934.4 183.466667l-89.6-93.866667c-34.133333-34.133333-85.333333-34.133333-119.466667 0l-375.466666 388.266667c-12.8 12.8-17.066667 25.6-21.333334 38.4L294.4 640c-17.066667 64 38.4 119.466667 102.4 106.666667l119.466667-29.866667c12.8-4.266667 29.866667-12.8 38.4-21.333333l375.466666-388.266667c38.4-38.4 38.4-89.6 4.266667-123.733333zM499.2 631.466667l-119.466667 29.866666 29.866667-123.733333 375.466667-388.266667 89.6 93.866667-375.466667 388.266667z"  /><path fill="#2c2c2c" d="M443.733333 89.6h-298.666666c-46.933333 0-85.333333 38.4-85.333334 85.333333v695.466667c0 46.933333 38.4 85.333333 85.333334 85.333333h678.4c46.933333 0 85.333333-38.4 85.333333-85.333333V605.866667c-4.266667-21.333333-21.333333-38.4-42.666667-38.4s-38.4 17.066667-42.666666 38.4V870.4H149.333333V174.933333h298.666667c21.333333 0 42.666667-21.333333 42.666667-42.666666s-21.333333-42.666667-46.933334-42.666667z"  /></svg>