<?xml version="1.0" standalone="no"?><!DOCTYPE svg PUBLIC "-//W3C//DTD SVG 1.1//EN" "http://www.w3.org/Graphics/SVG/1.1/DTD/svg11.dtd"><svg class="icon" width="200px" height="200.00px" viewBox="0 0 1024 1024" version="1.1" xmlns="http://www.w3.org/2000/svg"><path fill="#2c2c2c" d="M768 341.333333v341.333334a256 256 0 0 1-260.48 256v85.333333H512a341.333333 341.333333 0 0 0 341.333333-341.333333V341.333333A341.333333 341.333333 0 1 0 170.666667 341.333333v321.152h85.333333V341.333333a256 256 0 1 1 512 0z"  /><path fill="#2c2c2c" d="M213.333333 341.333333h42.666667V256H213.333333a213.333333 213.333333 0 0 0 0 426.666667h42.666667v-85.333334H213.333333a128 128 0 1 1 0-256zM810.666667 341.333333h-42.666667V256h42.666667a213.333333 213.333333 0 0 1 0 426.666667h-42.666667v-85.333334h42.666667a128 128 0 1 0 0-256z"  /><path fill="#2c2c2c" d="M554.666667 981.333333a42.666667 42.666667 0 1 1-85.333334 0 42.666667 42.666667 0 0 1 85.333334 0z"  /></svg>