<?xml version="1.0" standalone="no"?><!DOCTYPE svg PUBLIC "-//W3C//DTD SVG 1.1//EN" "http://www.w3.org/Graphics/SVG/1.1/DTD/svg11.dtd"><svg class="icon" width="200px" height="200.00px" viewBox="0 0 1024 1024" version="1.1" xmlns="http://www.w3.org/2000/svg"><path fill="#2c2c2c" d="M682.666667 256c-25.6 0-42.666667 17.066667-42.666667 42.666667s17.066667 42.666667 42.666667 42.666666h128c25.6 0 42.666667-17.066667 42.666666-42.666666s-17.066667-42.666667-42.666666-42.666667h-128zM640 512c0-25.6 17.066667-42.666667 42.666667-42.666667h128c25.6 0 42.666667 17.066667 42.666666 42.666667s-17.066667 42.666667-42.666666 42.666667h-128c-25.6 0-42.666667-17.066667-42.666667-42.666667zM640 725.333333c0-25.6 17.066667-42.666667 42.666667-42.666666h128c25.6 0 42.666667 17.066667 42.666666 42.666666s-17.066667 42.666667-42.666666 42.666667h-128c-25.6 0-42.666667-17.066667-42.666667-42.666667zM234.666667 686.933333H145.066667l98.133333-179.2-89.6-170.666666h93.866667l29.866666 64c8.533333 17.066667 12.8 29.866667 21.333334 51.2 0 0 0 4.266667 4.266666 4.266666 8.533333-21.333333 17.066667-42.666667 21.333334-55.466666l25.6-64h89.6L345.6 512l98.133333 174.933333H349.866667l-34.133334-68.266666c-8.533333-17.066667-17.066667-38.4-25.6-59.733334-8.533333 21.333333-17.066667 38.4-25.6 59.733334l-29.866666 68.266666z"  /><path fill="#2c2c2c" d="M938.666667 0H256C209.066667 0 170.666667 38.4 170.666667 85.333333v128H85.333333C38.4 213.333333 0 251.733333 0 298.666667v426.666666c0 46.933333 38.4 85.333333 85.333333 85.333334h85.333334v128c0 46.933333 38.4 85.333333 85.333333 85.333333h682.666667c46.933333 0 85.333333-38.4 85.333333-85.333333V85.333333c0-46.933333-38.4-85.333333-85.333333-85.333333zM85.333333 725.333333V298.666667h426.666667v426.666666H85.333333z m853.333334 213.333334H256v-128h256c46.933333 0 85.333333-38.4 85.333333-85.333334V298.666667c0-46.933333-38.4-85.333333-85.333333-85.333334H256V85.333333h682.666667v853.333334z"  /></svg>