<?xml version="1.0" standalone="no"?><!DOCTYPE svg PUBLIC "-//W3C//DTD SVG 1.1//EN" "http://www.w3.org/Graphics/SVG/1.1/DTD/svg11.dtd"><svg class="icon" width="200px" height="200.00px" viewBox="0 0 1024 1024" version="1.1" xmlns="http://www.w3.org/2000/svg"><path fill="#2c2c2c" d="M853.333333 0H170.666667C76.8 0 0 76.8 0 170.666667v682.666666c0 93.866667 76.8 170.666667 170.666667 170.666667h682.666666c93.866667 0 170.666667-76.8 170.666667-170.666667V170.666667c0-93.866667-76.8-170.666667-170.666667-170.666667z m85.333334 853.333333c0 46.933333-38.4 85.333333-85.333334 85.333334H170.666667c-46.933333 0-85.333333-38.4-85.333334-85.333334V170.666667c0-46.933333 38.4-85.333333 85.333334-85.333334h682.666666c46.933333 0 85.333333 38.4 85.333334 85.333334v682.666666z"  /><path fill="#2c2c2c" d="M955.733333 409.6H76.8v-85.333333h878.933333v85.333333z"  /><path fill="#2c2c2c" d="M337.066667 968.533333V366.933333h85.333333v601.6h-85.333333z"  /></svg>