<?xml version="1.0" standalone="no"?><!DOCTYPE svg PUBLIC "-//W3C//DTD SVG 1.1//EN" "http://www.w3.org/Graphics/SVG/1.1/DTD/svg11.dtd"><svg class="icon" width="200px" height="200.00px" viewBox="0 0 1024 1024" version="1.1" xmlns="http://www.w3.org/2000/svg"><path fill="#2c2c2c" d="M256 554.666667c0-25.6 17.066667-42.666667 42.666667-42.666667h426.666666c25.6 0 42.666667 17.066667 42.666667 42.666667s-17.066667 42.666667-42.666667 42.666666H298.666667c-25.6 0-42.666667-17.066667-42.666667-42.666666zM298.666667 725.333333c-25.6 0-42.666667 17.066667-42.666667 42.666667s17.066667 42.666667 42.666667 42.666667h213.333333c25.6 0 42.666667-17.066667 42.666667-42.666667s-17.066667-42.666667-42.666667-42.666667H298.666667z"  /><path fill="#2c2c2c" d="M913.066667 273.066667L665.6 25.6c-12.8-17.066667-34.133333-25.6-59.733333-25.6H170.666667C123.733333 0 85.333333 38.4 85.333333 85.333333v853.333334c0 46.933333 38.4 85.333333 85.333334 85.333333h682.666666c46.933333 0 85.333333-38.4 85.333334-85.333333V332.8c0-21.333333-8.533333-42.666667-25.6-59.733333zM640 119.466667L819.2 298.666667H640V119.466667zM853.333333 938.666667H170.666667V85.333333h384v213.333334c0 46.933333 38.4 85.333333 85.333333 85.333333h213.333333v554.666667z"  /></svg>