<?xml version="1.0" standalone="no"?><!DOCTYPE svg PUBLIC "-//W3C//DTD SVG 1.1//EN" "http://www.w3.org/Graphics/SVG/1.1/DTD/svg11.dtd"><svg class="icon" width="200px" height="200.00px" viewBox="0 0 1024 1024" version="1.1" xmlns="http://www.w3.org/2000/svg"><path fill="#2c2c2c" d="M42.666667 170.666667c0-25.6 17.066667-42.666667 42.666666-42.666667h853.333334c25.6 0 42.666667 17.066667 42.666666 42.666667s-17.066667 42.666667-42.666666 42.666666H85.333333c-25.6 0-42.666667-17.066667-42.666666-42.666666zM42.666667 512c0-25.6 17.066667-42.666667 42.666666-42.666667h256c25.6 0 42.666667 17.066667 42.666667 42.666667s-17.066667 42.666667-42.666667 42.666667H85.333333c-25.6 0-42.666667-17.066667-42.666666-42.666667zM85.333333 810.666667c-25.6 0-42.666667 17.066667-42.666666 42.666666s17.066667 42.666667 42.666666 42.666667h426.666667c25.6 0 42.666667-17.066667 42.666667-42.666667s-17.066667-42.666667-42.666667-42.666666H85.333333z"  /><path fill="#2c2c2c" d="M951.466667 827.733333l-85.333334-119.466666c46.933333-38.4 72.533333-98.133333 72.533334-162.133334 0-119.466667-93.866667-213.333333-213.333334-213.333333s-213.333333 93.866667-213.333333 213.333333 93.866667 213.333333 213.333333 213.333334c21.333333 0 42.666667-4.266667 64-8.533334l93.866667 128c12.8 17.066667 42.666667 21.333333 59.733333 8.533334 17.066667-12.8 21.333333-38.4 8.533334-59.733334zM725.333333 674.133333c-72.533333 0-128-55.466667-128-128s55.466667-128 128-128 128 55.466667 128 128-55.466667 128-128 128z"  /></svg>