<?xml version="1.0" standalone="no"?><!DOCTYPE svg PUBLIC "-//W3C//DTD SVG 1.1//EN" "http://www.w3.org/Graphics/SVG/1.1/DTD/svg11.dtd"><svg class="icon" width="200px" height="200.00px" viewBox="0 0 1024 1024" version="1.1" xmlns="http://www.w3.org/2000/svg"><path fill="#2c2c2c" d="M640 64H64c-38.4 0-55.466667 42.666667-34.133333 72.533333l200.533333 230.4V810.666667c0 12.8 4.266667 25.6 17.066667 34.133333l140.8 106.666667a42.666667 42.666667 0 0 0 68.266666-34.133334V366.933333l213.333334-230.4c29.866667-25.6 8.533333-72.533333-29.866667-72.533333zM375.466667 332.8v494.933333l-55.466667-42.666666V332.8L157.866667 149.333333h384L375.466667 332.8z"  /><path fill="#2c2c2c" d="M618.666667 358.4c-25.6 0-42.666667 21.333333-42.666667 42.666667 0 25.6 17.066667 42.666667 42.666667 42.666666h341.333333c25.6 0 42.666667-21.333333 42.666667-42.666666 0-25.6-17.066667-42.666667-42.666667-42.666667h-341.333333zM576 627.2c0-25.6 17.066667-42.666667 42.666667-42.666667h341.333333c25.6 0 42.666667 21.333333 42.666667 42.666667s-17.066667 42.666667-42.666667 42.666667h-341.333333c-25.6 4.266667-42.666667-17.066667-42.666667-42.666667zM618.666667 810.666667c-25.6 0-42.666667 21.333333-42.666667 42.666666 0 25.6 17.066667 42.666667 42.666667 42.666667h341.333333c25.6 0 42.666667-21.333333 42.666667-42.666667 0-25.6-17.066667-42.666667-42.666667-42.666666h-341.333333z"  /></svg>