<?xml version="1.0" standalone="no"?><!DOCTYPE svg PUBLIC "-//W3C//DTD SVG 1.1//EN" "http://www.w3.org/Graphics/SVG/1.1/DTD/svg11.dtd"><svg class="icon" width="200px" height="200.00px" viewBox="0 0 1024 1024" version="1.1" xmlns="http://www.w3.org/2000/svg"><path fill="#2c2c2c" d="M896 256h-384l-76.8-98.133333c-17.066667-17.066667-42.666667-29.866667-68.266667-29.866667H128c-46.933333 0-85.333333 38.4-85.333333 85.333333v640c0 46.933333 38.4 85.333333 85.333333 85.333334h768c46.933333 0 85.333333-38.4 85.333333-85.333334V341.333333c0-46.933333-38.4-85.333333-85.333333-85.333333z m0 597.333333H128V213.333333h238.933333l76.8 98.133334c17.066667 17.066667 42.666667 29.866667 68.266667 29.866666h384v512z"  /><path fill="#2c2c2c" d="M298.666667 554.666667c-25.6 0-42.666667 17.066667-42.666667 42.666666s17.066667 42.666667 42.666667 42.666667h426.666666c25.6 0 42.666667-17.066667 42.666667-42.666667s-17.066667-42.666667-42.666667-42.666666H298.666667z"  /></svg>