<?xml version="1.0" standalone="no"?><!DOCTYPE svg PUBLIC "-//W3C//DTD SVG 1.1//EN" "http://www.w3.org/Graphics/SVG/1.1/DTD/svg11.dtd"><svg class="icon" width="200px" height="200.00px" viewBox="0 0 1024 1024" version="1.1" xmlns="http://www.w3.org/2000/svg"><path fill="#2c2c2c" d="M597.333333 85.333333a42.666667 42.666667 0 0 1 42.666667-42.666666h256a85.333333 85.333333 0 0 1 85.333333 85.333333v256a42.666667 42.666667 0 1 1-85.333333 0V188.330667l-268.501333 268.501333a42.666667 42.666667 0 0 1-60.330667-60.330667L835.669333 128H640a42.666667 42.666667 0 0 1-42.666667-42.666667zM128 835.669333l268.501333-268.501333a42.666667 42.666667 0 0 1 60.330667 60.330667L188.330667 896H384a42.666667 42.666667 0 1 1 0 85.333333H128a85.333333 85.333333 0 0 1-85.333333-85.333333v-256a42.666667 42.666667 0 1 1 85.333333 0v195.669333zM426.666667 85.333333a42.666667 42.666667 0 0 0-42.666667-42.666666H128a85.333333 85.333333 0 0 0-85.333333 85.333333v256a42.666667 42.666667 0 0 0 85.333333 0V188.330667l268.501333 268.501333a42.666667 42.666667 0 0 0 60.330667-60.330667L188.330667 128H384a42.666667 42.666667 0 0 0 42.666667-42.666667zM896 835.669333l-268.501333-268.501333a42.666667 42.666667 0 0 0-60.330667 60.330667L835.669333 896H640a42.666667 42.666667 0 1 0 0 85.333333h256a85.333333 85.333333 0 0 0 85.333333-85.333333v-256a42.666667 42.666667 0 1 0-85.333333 0v195.669333z"  /></svg>