<?xml version="1.0" standalone="no"?><!DOCTYPE svg PUBLIC "-//W3C//DTD SVG 1.1//EN" "http://www.w3.org/Graphics/SVG/1.1/DTD/svg11.dtd"><svg class="icon" width="200px" height="200.00px" viewBox="0 0 1024 1024" version="1.1" xmlns="http://www.w3.org/2000/svg"><path fill="#2c2c2c" d="M853.333333 170.666667H170.666667C76.8 170.666667 0 247.466667 0 341.333333v512c0 93.866667 76.8 170.666667 170.666667 170.666667h682.666666c93.866667 0 170.666667-76.8 170.666667-170.666667V341.333333c0-93.866667-76.8-170.666667-170.666667-170.666666z m85.333334 682.666666c0 46.933333-38.4 85.333333-85.333334 85.333334H170.666667c-46.933333 0-85.333333-38.4-85.333334-85.333334V341.333333c0-46.933333 38.4-85.333333 85.333334-85.333333h682.666666c46.933333 0 85.333333 38.4 85.333334 85.333333v512z"  /><path fill="#2c2c2c" d="M341.333333 426.666667H256c-46.933333 0-85.333333 38.4-85.333333 85.333333v170.666667c0 46.933333 38.4 85.333333 85.333333 85.333333h85.333333c46.933333 0 85.333333-38.4 85.333334-85.333333v-170.666667c0-46.933333-38.4-85.333333-85.333334-85.333333z m0 256H256v-170.666667h85.333333v170.666667zM768 426.666667h-85.333333c-46.933333 0-85.333333 38.4-85.333334 85.333333v170.666667c0 46.933333 38.4 85.333333 85.333334 85.333333h85.333333c46.933333 0 85.333333-38.4 85.333333-85.333333v-170.666667c0-46.933333-38.4-85.333333-85.333333-85.333333z m0 256h-85.333333v-170.666667h85.333333v170.666667z"  /><path fill="#2c2c2c" d="M341.333333 85.333333h341.333334v85.333334h85.333333V85.333333c0-46.933333-38.4-85.333333-85.333333-85.333333H341.333333C294.4 0 256 38.4 256 85.333333v85.333334h85.333333V85.333333z"  /><path fill="#2c2c2c" d="M12.8 597.333333c0-25.6 17.066667-42.666667 42.666667-42.666666h136.533333c25.6 0 42.666667 17.066667 42.666667 42.666666s-17.066667 42.666667-42.666667 42.666667H55.466667c-25.6 0-42.666667-21.333333-42.666667-42.666667zM780.8 597.333333c0-25.6 17.066667-42.666667 42.666667-42.666666h136.533333c25.6 0 42.666667 17.066667 42.666667 42.666666s-17.066667 42.666667-42.666667 42.666667h-136.533333c-21.333333 0-42.666667-21.333333-42.666667-42.666667zM358.4 597.333333c0-25.6 17.066667-42.666667 42.666667-42.666666h221.866666c25.6 0 42.666667 17.066667 42.666667 42.666666s-17.066667 42.666667-42.666667 42.666667H401.066667c-21.333333 0-42.666667-21.333333-42.666667-42.666667z"  /></svg>