<?xml version="1.0" standalone="no"?><!DOCTYPE svg PUBLIC "-//W3C//DTD SVG 1.1//EN" "http://www.w3.org/Graphics/SVG/1.1/DTD/svg11.dtd"><svg class="icon" width="200px" height="200.00px" viewBox="0 0 1024 1024" version="1.1" xmlns="http://www.w3.org/2000/svg"><path fill="#2c2c2c" d="M35.562667 237.141333a402.944 402.944 0 0 0 498.858666 546.389334l188.842667 188.885333a176.213333 176.213333 0 0 0 249.173333-249.216l-188.842666-188.842667A402.901333 402.901333 0 0 0 241.770667 33.493333l3.626666 28.330667L291.477333 107.989333a315.050667 315.050667 0 0 1 409.130667 397.738667L682.730667 557.653333l227.669333 227.626667a88.448 88.448 0 0 1-125.098667 125.098667l-227.626666-227.626667-51.882667 17.877333a315.093333 315.093333 0 0 1-394.666667-416.938666L67.434667 239.786667l-31.829334-2.688z"  /><path fill="#2c2c2c" d="M234.944 56.661333a43.904 43.904 0 0 1 62.037333 0l190.976 190.976a87.765333 87.765333 0 0 1 0 124.117334L372.032 487.68a87.765333 87.765333 0 0 1-124.16 0L60.224 299.989333a43.904 43.904 0 1 1 62.08-62.037333l187.690667 187.690667L425.877333 309.674667 234.944 118.741333a43.904 43.904 0 0 1 0-62.08z"  /><path fill="#2c2c2c" d="M118.549333 223.445333a51.541333 51.541333 0 1 1-72.874666 72.874667 51.541333 51.541333 0 0 1 72.874666-72.874667zM296.512 45.44a51.541333 51.541333 0 1 1-72.832 72.874667 51.541333 51.541333 0 0 1 72.832-72.874667z"  /></svg>