<?xml version="1.0" standalone="no"?><!DOCTYPE svg PUBLIC "-//W3C//DTD SVG 1.1//EN" "http://www.w3.org/Graphics/SVG/1.1/DTD/svg11.dtd"><svg class="icon" width="200px" height="200.00px" viewBox="0 0 1024 1024" version="1.1" xmlns="http://www.w3.org/2000/svg"><path fill="#2c2c2c" d="M302.933333 145.066667L196.266667 34.133333C170.666667 8.533333 128 8.533333 102.4 34.133333L29.866667 106.666667C4.266667 132.266667 4.266667 170.666667 29.866667 196.266667l110.933333 110.933333c25.6 25.6 64 25.6 89.6 0l76.8-76.8c21.333333-21.333333 21.333333-64-4.266667-85.333333zM183.466667 234.666667L102.4 153.6l46.933333-46.933333 81.066667 81.066666-46.933333 46.933334zM972.8 674.133333l-145.066667-145.066666c-8.533333-8.533333-21.333333-17.066667-34.133333-21.333334l-76.8-25.6-17.066667-51.2c-17.066667-46.933333-72.533333-59.733333-106.666666-25.6l-196.266667 196.266667c-34.133333 34.133333-21.333333 89.6 25.6 106.666667l51.2 17.066666 25.6 76.8c4.266667 12.8 12.8 25.6 21.333333 34.133334l145.066667 145.066666c51.2 51.2 132.266667 51.2 179.2 0l123.733333-123.733333c55.466667-55.466667 55.466667-136.533333 4.266667-183.466667z m-59.733333 119.466667l-123.733334 123.733333c-17.066667 17.066667-42.666667 17.066667-59.733333 0l-145.066667-145.066666-25.6-76.8c-8.533333-25.6-29.866667-46.933333-55.466666-55.466667h-17.066667l149.333333-149.333333 4.266667 21.333333c8.533333 25.6 29.866667 46.933333 55.466667 55.466667l76.8 25.6 145.066666 145.066666c12.8 12.8 12.8 38.4-4.266666 55.466667z"  /><path fill="#2c2c2c" d="M238.933333 243.2c17.066667-17.066667 42.666667-17.066667 59.733334 0l247.466666 247.466667c17.066667 17.066667 17.066667 42.666667 0 59.733333-17.066667 17.066667-42.666667 17.066667-59.733333 0L238.933333 302.933333c-17.066667-17.066667-17.066667-42.666667 0-59.733333zM597.333333 605.866667c17.066667-17.066667 42.666667-17.066667 59.733334 0l149.333333 149.333333c17.066667 17.066667 17.066667 42.666667 0 59.733333-17.066667 17.066667-42.666667 17.066667-59.733333 0L597.333333 665.6c-12.8-12.8-12.8-42.666667 0-59.733333z"  /></svg>