<?xml version="1.0" standalone="no"?><!DOCTYPE svg PUBLIC "-//W3C//DTD SVG 1.1//EN" "http://www.w3.org/Graphics/SVG/1.1/DTD/svg11.dtd"><svg class="icon" width="200px" height="200.00px" viewBox="0 0 1024 1024" version="1.1" xmlns="http://www.w3.org/2000/svg"><path fill="#2c2c2c" d="M42.794667 42.666667a42.666667 42.666667 0 0 0 0 85.333333h51.968a42.666667 42.666667 0 0 1 42.069333 35.712L219.136 660.906667A128 128 0 0 0 345.429333 768h508.032a42.666667 42.666667 0 1 0 0-85.333333H345.429333a42.666667 42.666667 0 0 1-42.112-35.712L221.056 149.76A128 128 0 0 0 94.72 42.666667H42.794667z"  /><path fill="#2c2c2c" d="M298.666667 213.333333a42.666667 42.666667 0 0 0 0 85.333334h569.344a42.666667 42.666667 0 0 1 41.002666 54.442666l-36.821333 128a42.666667 42.666667 0 0 1-40.96 30.890667H384.469333a42.666667 42.666667 0 1 0 0 85.333333h446.72a128 128 0 0 0 123.008-92.629333l36.778667-128A128 128 0 0 0 868.010667 213.333333H298.666667zM426.666667 874.666667a64 64 0 1 1-128 0 64 64 0 0 1 128 0zM746.666667 938.666667a64 64 0 1 0 0-128 64 64 0 0 0 0 128z"  /></svg>