<?xml version="1.0" standalone="no"?><!DOCTYPE svg PUBLIC "-//W3C//DTD SVG 1.1//EN" "http://www.w3.org/Graphics/SVG/1.1/DTD/svg11.dtd"><svg class="icon" width="200px" height="200.00px" viewBox="0 0 1024 1024" version="1.1" xmlns="http://www.w3.org/2000/svg"><path fill="#2c2c2c" d="M31.189333 349.696c222.208 345.429333 727.125333 342.186667 946.730667 0.768l-20.309333 0.512-53.76-43.178667c-186.794667 284.8-609.536 287.445333-798.506667-0.64h-40.746667l-26.752 41.514667-6.656 1.024z"  /><path fill="#2c2c2c" d="M110.08 326.528a42.965333 42.965333 0 1 1-85.930667 0 42.965333 42.965333 0 0 1 85.973334 0zM985.898667 325.674667a42.965333 42.965333 0 1 1-85.930667 0 42.965333 42.965333 0 0 1 85.930667 0z"  /><path fill="#2c2c2c" d="M634.026667 549.290667a42.666667 42.666667 0 0 1 54.698666 25.514666l58.410667 160.384a42.666667 42.666667 0 1 1-80.213333 29.184l-58.368-160.384a42.666667 42.666667 0 0 1 25.514666-54.698666zM422.954667 549.333333a42.666667 42.666667 0 0 0-54.698667 25.472l-58.368 160.426667a42.666667 42.666667 0 1 0 80.213333 29.141333l58.325334-160.341333a42.666667 42.666667 0 0 0-25.472-54.698667zM218.538667 479.317333a42.666667 42.666667 0 0 0-60.117334 5.248l-109.696 130.730667a42.666667 42.666667 0 0 0 65.365334 54.869333l109.696-130.730666a42.666667 42.666667 0 0 0-5.248-60.117334zM829.738667 444.245333a42.666667 42.666667 0 0 1 60.117333 5.248l109.653333 130.730667a42.666667 42.666667 0 1 1-65.322666 54.869333l-109.696-130.730666a42.666667 42.666667 0 0 1 5.248-60.117334z"  /></svg>