<?xml version="1.0" standalone="no"?><!DOCTYPE svg PUBLIC "-//W3C//DTD SVG 1.1//EN" "http://www.w3.org/Graphics/SVG/1.1/DTD/svg11.dtd"><svg class="icon" width="200px" height="200.00px" viewBox="0 0 1024 1024" version="1.1" xmlns="http://www.w3.org/2000/svg"><path fill="#2c2c2c" d="M206.293333 149.504A489.770667 489.770667 0 0 0 21.333333 533.333333C21.333333 804.309333 241.024 1024 512 1024s490.666667-219.690667 490.666667-490.666667c0-155.178667-72.021333-293.504-184.448-383.402666L768 213.333333v5.717334a405.333333 405.333333 0 1 1-512 0V213.333333L206.293333 149.504z"  /><path fill="#2c2c2c" d="M275.712 182.912a42.666667 42.666667 0 1 1-85.333333 0 42.666667 42.666667 0 0 1 85.333333 0zM833.621333 182.912a42.666667 42.666667 0 1 1-85.333333 0 42.666667 42.666667 0 0 1 85.333333 0z"  /><path fill="#2c2c2c" d="M512 0a42.666667 42.666667 0 0 1 42.666667 42.666667v298.666666a42.666667 42.666667 0 1 1-85.333334 0V42.666667a42.666667 42.666667 0 0 1 42.666667-42.666667z"  /></svg>