<?xml version="1.0" standalone="no"?><!DOCTYPE svg PUBLIC "-//W3C//DTD SVG 1.1//EN" "http://www.w3.org/Graphics/SVG/1.1/DTD/svg11.dtd"><svg class="icon" width="200px" height="200.00px" viewBox="0 0 1024 1024" version="1.1" xmlns="http://www.w3.org/2000/svg"><path fill="#2c2c2c" d="M891.733333 196.266667c-93.866667-89.6-238.933333-89.6-332.8 0l-17.066666 17.066666c-17.066667 17.066667-42.666667 17.066667-59.733334 0l-17.066666-17.066666c-93.866667-89.6-238.933333-89.6-332.8 0s-93.866667 238.933333 0 328.533333L512 896l375.466667-371.2c93.866667-89.6 93.866667-238.933333 4.266666-328.533333z m-59.733333 264.533333L512 776.533333l-315.733333-311.466666C136.533333 405.333333 136.533333 315.733333 192 256c59.733333-59.733333 153.6-59.733333 213.333333 0l76.8 76.8c17.066667 17.066667 42.666667 17.066667 59.733334 0L618.666667 256c59.733333-59.733333 153.6-59.733333 213.333333 0 55.466667 59.733333 55.466667 149.333333 0 204.8z"  /></svg>