<?xml version="1.0" standalone="no"?><!DOCTYPE svg PUBLIC "-//W3C//DTD SVG 1.1//EN" "http://www.w3.org/Graphics/SVG/1.1/DTD/svg11.dtd"><svg class="icon" width="200px" height="200.00px" viewBox="0 0 1024 1024" version="1.1" xmlns="http://www.w3.org/2000/svg"><path fill="#2c2c2c" d="M788.437333 521.856a42.666667 42.666667 0 0 1 38.528 24.32l0.256-0.170667L955.434667 768c32.853333 56.874667-8.192 128-73.898667 128h-214.912l23.210667 21.333333a42.666667 42.666667 0 1 1-57.728 62.848l-98.090667-90.112a42.666667 42.666667 0 0 1-5.034667-57.301333l82.645334-108.330667a42.666667 42.666667 0 0 1 67.84 51.754667l-26.282667 34.474667h228.352l-127.701333-221.226667a42.666667 42.666667 0 0 1 34.645333-67.584zM627.2 370.133333L512 170.666667 380.330667 398.762667a42.666667 42.666667 0 1 1-76.672-37.376l-0.213334-0.128L438.101333 128c32.853333-56.874667 114.944-56.874667 147.797334 0l114.090666 197.632 10.154667-35.2a42.666667 42.666667 0 0 1 82.005333 23.594667l-36.864 128a42.666667 42.666667 0 0 1-49.024 30.122666l-133.802666-25.6a42.666667 42.666667 0 1 1 16.042666-83.84l38.656 7.424zM246.784 630.058667L142.506667 810.666667h262.485333v0.085333l2.56-0.085333a42.666667 42.666667 0 1 1-2.56 85.248V896H142.506667c-65.706667 0-106.752-71.125333-73.898667-128l106.496-184.448-37.546667 7.381333a42.666667 42.666667 0 1 1-16.426666-83.754666l130.730666-25.6a42.666667 42.666667 0 0 1 49.152 29.909333l38.229334 130.773333a42.666667 42.666667 0 0 1-81.92 23.936l-10.538667-36.138666z"  /></svg>