<?xml version="1.0" standalone="no"?><!DOCTYPE svg PUBLIC "-//W3C//DTD SVG 1.1//EN" "http://www.w3.org/Graphics/SVG/1.1/DTD/svg11.dtd"><svg class="icon" width="200px" height="200.00px" viewBox="0 0 1024 1024" version="1.1" xmlns="http://www.w3.org/2000/svg"><path fill="#2c2c2c" d="M341.333333 0H85.333333C38.4 0 0 38.4 0 85.333333v256c0 46.933333 38.4 85.333333 85.333333 85.333334h256c46.933333 0 85.333333-38.4 85.333334-85.333334V85.333333c0-46.933333-38.4-85.333333-85.333334-85.333333z m0 341.333333H85.333333V85.333333h256v256zM938.666667 597.333333h-256c-46.933333 0-85.333333 38.4-85.333334 85.333334v256c0 46.933333 38.4 85.333333 85.333334 85.333333h256c46.933333 0 85.333333-38.4 85.333333-85.333333v-256c0-46.933333-38.4-85.333333-85.333333-85.333334z m0 341.333334h-256v-256h256v256zM140.8 554.666667c25.6 0 42.666667 17.066667 42.666667 42.666666v256c0 25.6 17.066667 42.666667 42.666666 42.666667h256c25.6 0 42.666667 17.066667 42.666667 42.666667s-17.066667 42.666667-42.666667 42.666666h-256c-72.533333 0-128-55.466667-128-128v-256c0-25.6 21.333333-42.666667 42.666667-42.666666zM887.466667 469.333333c-25.6 0-42.666667-17.066667-42.666667-42.666666V170.666667c0-25.6-17.066667-42.666667-42.666667-42.666667h-256c-25.6 0-42.666667-17.066667-42.666666-42.666667s17.066667-42.666667 42.666666-42.666666h256c72.533333 0 128 55.466667 128 128v256c0 25.6-21.333333 42.666667-42.666666 42.666666z"  /><path fill="#2c2c2c" d="M1006.933333 354.133333c17.066667 12.8 21.333333 42.666667 8.533334 59.733334l-59.733334 81.066666c-34.133333 42.666667-98.133333 46.933333-132.266666 4.266667l64-55.466667 59.733333-81.066666c12.8-17.066667 38.4-21.333333 59.733333-8.533334z m-243.2 12.8c17.066667-17.066667 42.666667-12.8 59.733334 4.266667l64 72.533333-64 55.466667-64-72.533333c-17.066667-17.066667-17.066667-42.666667 4.266666-59.733334zM264.533333 669.866667c17.066667-12.8 21.333333-42.666667 8.533334-59.733334L213.333333 529.066667c-34.133333-42.666667-98.133333-46.933333-132.266666-4.266667l64 55.466667 59.733333 81.066666c12.8 17.066667 38.4 21.333333 59.733333 8.533334z m-247.466666-12.8c17.066667 17.066667 42.666667 12.8 59.733333-4.266667l64-72.533333-64-55.466667L17.066667 597.333333c-17.066667 17.066667-17.066667 42.666667 0 59.733334z"  /></svg>