<?xml version="1.0" standalone="no"?><!DOCTYPE svg PUBLIC "-//W3C//DTD SVG 1.1//EN" "http://www.w3.org/Graphics/SVG/1.1/DTD/svg11.dtd"><svg class="icon" width="200px" height="200.00px" viewBox="0 0 1024 1024" version="1.1" xmlns="http://www.w3.org/2000/svg"><path fill="#2c2c2c" d="M512 0C311.466667 51.2 170.666667 234.666667 170.666667 443.733333V810.666667h682.666666v-366.933334c0-209.066667-140.8-392.533333-341.333333-443.733333z m256 725.333333H256v-281.6c0-162.133333 102.4-302.933333 256-354.133333 153.6 51.2 256 192 256 354.133333V725.333333z"  /><path fill="#2c2c2c" d="M768 554.666667v256h213.333333v-213.333334l-213.333333-42.666666z m128 170.666666h-42.666667v-68.266666l42.666667 8.533333V725.333333zM42.666667 597.333333v213.333334h213.333333v-256l-213.333333 42.666666z m128 128H128v-59.733333l42.666667-8.533333V725.333333zM512 810.666667c25.6 0 42.666667 17.066667 42.666667 42.666666v128c0 25.6-17.066667 42.666667-42.666667 42.666667s-42.666667-17.066667-42.666667-42.666667v-128c0-25.6 17.066667-42.666667 42.666667-42.666666zM682.666667 853.333333c25.6 0 42.666667 17.066667 42.666666 42.666667v42.666667c0 25.6-17.066667 42.666667-42.666666 42.666666s-42.666667-17.066667-42.666667-42.666666v-42.666667c0-25.6 17.066667-42.666667 42.666667-42.666667zM341.333333 853.333333c25.6 0 42.666667 17.066667 42.666667 42.666667v42.666667c0 25.6-17.066667 42.666667-42.666667 42.666666s-42.666667-17.066667-42.666666-42.666666v-42.666667c0-25.6 17.066667-42.666667 42.666666-42.666667zM512 256c-119.466667 0-213.333333 93.866667-213.333333 213.333333s93.866667 213.333333 213.333333 213.333334 213.333333-93.866667 213.333333-213.333334-93.866667-213.333333-213.333333-213.333333z m0 341.333333c-72.533333 0-128-55.466667-128-128s55.466667-128 128-128 128 55.466667 128 128-55.466667 128-128 128z"  /></svg>