<?xml version="1.0" standalone="no"?><!DOCTYPE svg PUBLIC "-//W3C//DTD SVG 1.1//EN" "http://www.w3.org/Graphics/SVG/1.1/DTD/svg11.dtd"><svg class="icon" width="200px" height="200.00px" viewBox="0 0 1024 1024" version="1.1" xmlns="http://www.w3.org/2000/svg"><path fill="#2c2c2c" d="M298.666667 213.333333C226.133333 213.333333 170.666667 268.8 170.666667 341.333333s55.466667 128 128 128 128-55.466667 128-128-55.466667-128-128-128z m0 170.666667c-25.6 0-42.666667-17.066667-42.666667-42.666667s17.066667-42.666667 42.666667-42.666666 42.666667 17.066667 42.666666 42.666666-17.066667 42.666667-42.666666 42.666667z"  /><path fill="#2c2c2c" d="M938.666667 85.333333H85.333333C38.4 85.333333 0 123.733333 0 170.666667v682.666666c0 46.933333 38.4 85.333333 85.333333 85.333334h853.333334c46.933333 0 85.333333-38.4 85.333333-85.333334V170.666667c0-46.933333-38.4-85.333333-85.333333-85.333334z m0 768H98.133333c8.533333 0 12.8-4.266667 21.333334-8.533333l281.6-234.666667 76.8 81.066667c29.866667 34.133333 81.066667 38.4 115.2 8.533333l200.533333-153.6 136.533333 247.466667 12.8 12.8V853.333333z m0-213.333333l-72.533334-128c-25.6-46.933333-85.333333-59.733333-128-25.6L537.6 640l-72.533333-85.333333c-29.866667-34.133333-81.066667-38.4-115.2-8.533334l-260.266667 213.333334V170.666667h853.333333v469.333333z"  /></svg>