<?xml version="1.0" standalone="no"?><!DOCTYPE svg PUBLIC "-//W3C//DTD SVG 1.1//EN" "http://www.w3.org/Graphics/SVG/1.1/DTD/svg11.dtd"><svg class="icon" width="200px" height="200.00px" viewBox="0 0 1024 1024" version="1.1" xmlns="http://www.w3.org/2000/svg"><path fill="#2c2c2c" d="M448 341.333333c0-25.6-17.066667-42.666667-42.666667-42.666666h-128c-25.6 0-42.666667 17.066667-42.666666 42.666666s17.066667 42.666667 42.666666 42.666667h128c25.6 0 42.666667-17.066667 42.666667-42.666667zM405.333333 512c25.6 0 42.666667 17.066667 42.666667 42.666667s-17.066667 42.666667-42.666667 42.666666h-128c-25.6 0-42.666667-17.066667-42.666666-42.666666s17.066667-42.666667 42.666666-42.666667h128zM448 768c0-25.6-17.066667-42.666667-42.666667-42.666667h-128c-25.6 0-42.666667 17.066667-42.666666 42.666667s17.066667 42.666667 42.666666 42.666667h128c25.6 0 42.666667-17.066667 42.666667-42.666667zM768 597.333333c25.6 0 42.666667 17.066667 42.666667 42.666667s-17.066667 42.666667-42.666667 42.666667h-85.333333c-25.6 0-42.666667-17.066667-42.666667-42.666667s17.066667-42.666667 42.666667-42.666667h85.333333zM768 768c25.6 0 42.666667 17.066667 42.666667 42.666667s-17.066667 42.666667-42.666667 42.666666h-85.333333c-25.6 0-42.666667-17.066667-42.666667-42.666666s17.066667-42.666667 42.666667-42.666667h85.333333z"  /><path fill="#2c2c2c" d="M981.333333 938.666667h-42.666666V477.866667c0-34.133333-17.066667-64-46.933334-76.8L597.333333 298.666667V119.466667C597.333333 59.733333 541.866667 21.333333 486.4 38.4l-341.333333 115.2c-34.133333 8.533333-59.733333 42.666667-59.733334 76.8V938.666667H42.666667c-25.6 0-42.666667 17.066667-42.666667 42.666666s17.066667 42.666667 42.666667 42.666667h938.666666c25.6 0 42.666667-17.066667 42.666667-42.666667s-17.066667-42.666667-42.666667-42.666666z m-469.333333 0H170.666667V230.4l341.333333-115.2V938.666667z m341.333333 0h-256V392.533333l256 85.333334V938.666667z"  /></svg>