<?xml version="1.0" standalone="no"?><!DOCTYPE svg PUBLIC "-//W3C//DTD SVG 1.1//EN" "http://www.w3.org/Graphics/SVG/1.1/DTD/svg11.dtd"><svg class="icon" width="200px" height="200.00px" viewBox="0 0 1024 1024" version="1.1" xmlns="http://www.w3.org/2000/svg"><path fill="#2c2c2c" d="M552.96 122.88c-24.576 0-40.96 16.384-40.96 40.96s16.384 40.96 40.96 40.96h204.8c24.576 0 40.96-16.384 40.96-40.96s-16.384-40.96-40.96-40.96h-204.8zM552.96 286.72c-24.576 0-40.96 16.384-40.96 40.96s16.384 40.96 40.96 40.96h204.8c24.576 0 40.96-16.384 40.96-40.96s-16.384-40.96-40.96-40.96h-204.8zM552.96 450.56c-24.576 0-40.96 16.384-40.96 40.96s16.384 40.96 40.96 40.96h204.8c24.576 0 40.96-16.384 40.96-40.96s-16.384-40.96-40.96-40.96h-204.8zM204.8 450.56c0-24.576 16.384-40.96 40.96-40.96h81.92c24.576 0 40.96 16.384 40.96 40.96s-16.384 40.96-40.96 40.96h-81.92c-24.576 0-40.96-16.384-40.96-40.96zM204.8 614.4c0-24.576 16.384-40.96 40.96-40.96h81.92c24.576 0 40.96 16.384 40.96 40.96s-16.384 40.96-40.96 40.96h-81.92c-24.576 0-40.96-16.384-40.96-40.96zM204.8 778.24c0-24.576 16.384-40.96 40.96-40.96h81.92c24.576 0 40.96 16.384 40.96 40.96s-16.384 40.96-40.96 40.96h-81.92c-24.576 0-40.96-16.384-40.96-40.96z"  /><path fill="#2c2c2c" d="M962.56 901.12h-40.96V81.92c0-45.056-36.864-81.92-81.92-81.92h-368.64C425.984 0 389.12 36.864 389.12 81.92v163.84H184.32c-45.056 0-81.92 36.864-81.92 81.92v573.44H61.44c-24.576 0-40.96 16.384-40.96 40.96s16.384 40.96 40.96 40.96h450.56v4.096h286.72V983.04h163.84c24.576 0 40.96-16.384 40.96-40.96s-16.384-40.96-40.96-40.96zM389.12 901.12H184.32V327.68h204.8v573.44z m327.68 0h-122.88v-241.664h122.88V901.12z m122.88 0h-40.96v-282.624c0-24.576-16.384-40.96-40.96-40.96h-204.8c-24.576 0-40.96 16.384-40.96 40.96V901.12h-40.96V81.92h368.64v819.2z"  /></svg>