<?xml version="1.0" standalone="no"?><!DOCTYPE svg PUBLIC "-//W3C//DTD SVG 1.1//EN" "http://www.w3.org/Graphics/SVG/1.1/DTD/svg11.dtd"><svg class="icon" width="200px" height="200.00px" viewBox="0 0 1024 1024" version="1.1" xmlns="http://www.w3.org/2000/svg"><path fill="#2c2c2c" d="M810.666667 0H213.333333C166.4 0 128 38.4 128 85.333333v157.866667c0 34.133333 21.333333 64 51.2 76.8l298.666667 132.266667c21.333333 8.533333 46.933333 8.533333 68.266666 0l298.666667-132.266667c29.866667-12.8 51.2-42.666667 51.2-76.8V85.333333c0-46.933333-38.4-85.333333-85.333333-85.333333z m0 243.2l-298.666667 132.266667-298.666667-132.266667V85.333333h597.333334v157.866667z"  /><path fill="#2c2c2c" d="M384 0c25.6 0 42.666667 17.066667 42.666667 42.666667v298.666666c0 25.6-17.066667 42.666667-42.666667 42.666667s-42.666667-17.066667-42.666667-42.666667V42.666667c0-25.6 17.066667-42.666667 42.666667-42.666667zM640 0c25.6 0 42.666667 17.066667 42.666667 42.666667v298.666666c0 25.6-17.066667 42.666667-42.666667 42.666667s-42.666667-17.066667-42.666667-42.666667V42.666667c0-25.6 17.066667-42.666667 42.666667-42.666667zM759.466667 563.2l-123.733334-8.533333-46.933333-110.933334c-29.866667-68.266667-128-68.266667-157.866667 0l-42.666666 110.933334-119.466667 8.533333c-76.8 4.266667-106.666667 102.4-46.933333 149.333333l93.866666 76.8-29.866666 119.466667c-17.066667 72.533333 64 132.266667 128 93.866667L512 938.666667l102.4 64c64 38.4 145.066667-17.066667 128-93.866667l-29.866667-119.466667 93.866667-76.8c59.733333-51.2 25.6-145.066667-46.933333-149.333333zM661.333333 725.333333c-25.6 21.333333-34.133333 55.466667-25.6 85.333334l29.866667 119.466666-110.933333-64c-25.6-17.066667-59.733333-17.066667-89.6 0l-102.4 64 29.866666-119.466666c8.533333-29.866667-4.266667-64-25.6-85.333334l-93.866666-76.8 119.466666-8.533333c29.866667-4.266667 59.733333-21.333333 72.533334-51.2l46.933333-110.933333 46.933333 110.933333c12.8 29.866667 38.4 51.2 72.533334 51.2l119.466666 8.533333-89.6 76.8z"  /></svg>