<?xml version="1.0" standalone="no"?><!DOCTYPE svg PUBLIC "-//W3C//DTD SVG 1.1//EN" "http://www.w3.org/Graphics/SVG/1.1/DTD/svg11.dtd"><svg class="icon" width="200px" height="200.00px" viewBox="0 0 1024 1024" version="1.1" xmlns="http://www.w3.org/2000/svg"><path fill="#2c2c2c" d="M256 42.666667a42.666667 42.666667 0 0 1 42.666667 42.666666v597.333334a42.666667 42.666667 0 0 0 42.666666 42.666666h597.333334a42.666667 42.666667 0 1 1 0 85.333334H341.333333a128 128 0 0 1-128-128V85.333333a42.666667 42.666667 0 0 1 42.666667-42.666666z"  /><path fill="#2c2c2c" d="M768 981.333333a42.666667 42.666667 0 0 1-42.666667-42.666666V341.333333a42.666667 42.666667 0 0 0-42.666666-42.666666H85.333333a42.666667 42.666667 0 1 1 0-85.333334h597.333334a128 128 0 0 1 128 128v597.333334a42.666667 42.666667 0 0 1-42.666667 42.666666z"  /></svg>