<?xml version="1.0" standalone="no"?><!DOCTYPE svg PUBLIC "-//W3C//DTD SVG 1.1//EN" "http://www.w3.org/Graphics/SVG/1.1/DTD/svg11.dtd"><svg class="icon" width="200px" height="200.00px" viewBox="0 0 1024 1024" version="1.1" xmlns="http://www.w3.org/2000/svg"><path fill="#2c2c2c" d="M512 426.666667c-166.4 0-298.666667 132.266667-298.666667 298.666666s132.266667 298.666667 298.666667 298.666667 298.666667-132.266667 298.666667-298.666667-132.266667-298.666667-298.666667-298.666666z m0 512c-119.466667 0-213.333333-93.866667-213.333333-213.333334s93.866667-213.333333 213.333333-213.333333 213.333333 93.866667 213.333333 213.333333-93.866667 213.333333-213.333333 213.333334z"  /><path fill="#2c2c2c" d="M512 554.666667c-93.866667 0-170.666667 76.8-170.666667 170.666666s76.8 170.666667 170.666667 170.666667 170.666667-76.8 170.666667-170.666667-76.8-170.666667-170.666667-170.666666z m0 256c-46.933333 0-85.333333-38.4-85.333333-85.333334s38.4-85.333333 85.333333-85.333333 85.333333 38.4 85.333333 85.333333-38.4 85.333333-85.333333 85.333334zM810.666667 0H213.333333C166.4 0 128 38.4 128 85.333333v200.533334c0 34.133333 21.333333 64 51.2 76.8l298.666667 132.266666c21.333333 8.533333 46.933333 8.533333 68.266666 0l298.666667-132.266666c29.866667-12.8 51.2-42.666667 51.2-76.8V85.333333c0-46.933333-38.4-85.333333-85.333333-85.333333z m0 285.866667l-298.666667 132.266666-298.666667-132.266666V85.333333h597.333334v200.533334z"  /><path fill="#2c2c2c" d="M384 0c25.6 0 42.666667 17.066667 42.666667 42.666667v341.333333c0 25.6-17.066667 42.666667-42.666667 42.666667s-42.666667-17.066667-42.666667-42.666667V42.666667c0-25.6 17.066667-42.666667 42.666667-42.666667zM640 0c25.6 0 42.666667 17.066667 42.666667 42.666667v341.333333c0 25.6-17.066667 42.666667-42.666667 42.666667s-42.666667-17.066667-42.666667-42.666667V42.666667c0-25.6 17.066667-42.666667 42.666667-42.666667z"  /></svg>