<?xml version="1.0" standalone="no"?><!DOCTYPE svg PUBLIC "-//W3C//DTD SVG 1.1//EN" "http://www.w3.org/Graphics/SVG/1.1/DTD/svg11.dtd"><svg class="icon" width="200px" height="200.00px" viewBox="0 0 1024 1024" version="1.1" xmlns="http://www.w3.org/2000/svg"><path fill="#2c2c2c" d="M256 213.333333c-25.6 0-42.666667 17.066667-42.666667 42.666667s17.066667 42.666667 42.666667 42.666667h170.666667c25.6 0 42.666667-17.066667 42.666666-42.666667s-17.066667-42.666667-42.666666-42.666667H256zM213.333333 469.333333c0-25.6 17.066667-42.666667 42.666667-42.666666h170.666667c25.6 0 42.666667 17.066667 42.666666 42.666666s-17.066667 42.666667-42.666666 42.666667H256c-25.6 0-42.666667-17.066667-42.666667-42.666667zM256 640c-25.6 0-42.666667 17.066667-42.666667 42.666667s17.066667 42.666667 42.666667 42.666666h170.666667c25.6 0 42.666667-17.066667 42.666666-42.666666s-17.066667-42.666667-42.666666-42.666667H256zM640 597.333333c0-25.6 17.066667-42.666667 42.666667-42.666666h85.333333c25.6 0 42.666667 17.066667 42.666667 42.666666s-17.066667 42.666667-42.666667 42.666667h-85.333333c-25.6 0-42.666667-17.066667-42.666667-42.666667zM682.666667 725.333333c-25.6 0-42.666667 17.066667-42.666667 42.666667s17.066667 42.666667 42.666667 42.666667h85.333333c25.6 0 42.666667-17.066667 42.666667-42.666667s-17.066667-42.666667-42.666667-42.666667h-85.333333z"  /><path fill="#2c2c2c" d="M981.333333 938.666667h-42.666666V448c0-38.4-25.6-72.533333-59.733334-81.066667l-281.6-85.333333V85.333333c0-46.933333-38.4-85.333333-85.333333-85.333333H170.666667C123.733333 0 85.333333 38.4 85.333333 85.333333v853.333334H42.666667c-25.6 0-42.666667 17.066667-42.666667 42.666666s17.066667 42.666667 42.666667 42.666667h938.666666c25.6 0 42.666667-17.066667 42.666667-42.666667s-17.066667-42.666667-42.666667-42.666666z m-469.333333 0H170.666667V85.333333h341.333333v853.333334z m341.333333 0h-256V371.2l256 76.8V938.666667z"  /></svg>