<?xml version="1.0" standalone="no"?><!DOCTYPE svg PUBLIC "-//W3C//DTD SVG 1.1//EN" "http://www.w3.org/Graphics/SVG/1.1/DTD/svg11.dtd"><svg class="icon" width="200px" height="200.00px" viewBox="0 0 1024 1024" version="1.1" xmlns="http://www.w3.org/2000/svg"><path fill="#2c2c2c" d="M738.730667 437.034667l135.296 135.296a213.333333 213.333333 0 0 1-301.653334 301.696l-135.338666-135.296-60.373334 60.330666L512 934.357333A298.666667 298.666667 0 0 0 934.4 512l-135.338667-135.338667-60.330666 60.373334zM557.653333 256l60.330667-60.330667L512 89.6A298.666667 298.666667 0 1 0 89.6 512l106.069333 106.026667L256 557.696l-106.026667-106.026667a213.333333 213.333333 0 0 1 301.653334-301.696L557.738667 256z"  /><path fill="#2c2c2c" d="M254.634667 556.330667a42.666667 42.666667 0 1 1-60.373334 60.330666 42.666667 42.666667 0 0 1 60.373334-60.330666zM436.650667 738.346667a42.666667 42.666667 0 1 1-60.373334 60.330666 42.666667 42.666667 0 0 1 60.373334-60.330666zM616.661333 194.261333a42.666667 42.666667 0 1 1-60.373333 60.330667 42.666667 42.666667 0 0 1 60.373333-60.330667zM798.677333 376.32a42.666667 42.666667 0 1 1-60.330666 60.330667 42.666667 42.666667 0 0 1 60.330666-60.373334z"  /><path fill="#2c2c2c" d="M808.96 178.261333a42.666667 42.666667 0 0 1 0.341333 60.330667L225.536 828.672a42.666667 42.666667 0 1 1-60.629333-60.032l583.765333-590.08a42.666667 42.666667 0 0 1 60.330667-0.298667z"  /></svg>