<?xml version="1.0" standalone="no"?><!DOCTYPE svg PUBLIC "-//W3C//DTD SVG 1.1//EN" "http://www.w3.org/Graphics/SVG/1.1/DTD/svg11.dtd"><svg class="icon" width="200px" height="200.00px" viewBox="0 0 1024 1024" version="1.1" xmlns="http://www.w3.org/2000/svg"><path fill="#2c2c2c" d="M512 42.666667C418.133333 42.666667 341.333333 119.466667 341.333333 213.333333s76.8 170.666667 170.666667 170.666667 170.666667-76.8 170.666667-170.666667-76.8-170.666667-170.666667-170.666666z m0 256c-46.933333 0-85.333333-38.4-85.333333-85.333334s38.4-85.333333 85.333333-85.333333 85.333333 38.4 85.333333 85.333333-38.4 85.333333-85.333333 85.333334zM170.666667 640c-93.866667 0-170.666667 76.8-170.666667 170.666667s76.8 170.666667 170.666667 170.666666 170.666667-76.8 170.666666-170.666666-76.8-170.666667-170.666666-170.666667z m0 256c-46.933333 0-85.333333-38.4-85.333334-85.333333s38.4-85.333333 85.333334-85.333334 85.333333 38.4 85.333333 85.333334-38.4 85.333333-85.333333 85.333333zM853.333333 640c-93.866667 0-170.666667 76.8-170.666666 170.666667s76.8 170.666667 170.666666 170.666666 170.666667-76.8 170.666667-170.666666-76.8-170.666667-170.666667-170.666667z m0 256c-46.933333 0-85.333333-38.4-85.333333-85.333333s38.4-85.333333 85.333333-85.333334 85.333333 38.4 85.333334 85.333334-38.4 85.333333-85.333334 85.333333z"  /><path fill="#2c2c2c" d="M174.933333 657.066667l226.133334-354.133334 72.533333 46.933334-226.133333 354.133333-72.533334-46.933333zM759.466667 708.266667l-196.266667-354.133334 76.8-42.666666 196.266667 354.133333-76.8 42.666667zM733.866667 887.466667H294.4v-85.333334h439.466667v85.333334z"  /></svg>