<?xml version="1.0" standalone="no"?><!DOCTYPE svg PUBLIC "-//W3C//DTD SVG 1.1//EN" "http://www.w3.org/Graphics/SVG/1.1/DTD/svg11.dtd"><svg class="icon" width="200px" height="200.00px" viewBox="0 0 1024 1024" version="1.1" xmlns="http://www.w3.org/2000/svg"><path fill="#2c2c2c" d="M853.333333 85.333333H170.666667C76.8 85.333333 0 162.133333 0 256v597.333333c0 93.866667 76.8 170.666667 170.666667 170.666667h682.666666c93.866667 0 170.666667-76.8 170.666667-170.666667V256c0-93.866667-76.8-170.666667-170.666667-170.666667z m85.333334 768c0 46.933333-38.4 85.333333-85.333334 85.333334H170.666667c-46.933333 0-85.333333-38.4-85.333334-85.333334V256c0-46.933333 38.4-85.333333 85.333334-85.333333h682.666666c46.933333 0 85.333333 38.4 85.333334 85.333333v597.333333z"  /><path fill="#2c2c2c" d="M298.666667 0c25.6 0 42.666667 17.066667 42.666666 42.666667v170.666666c0 25.6-17.066667 42.666667-42.666666 42.666667s-42.666667-17.066667-42.666667-42.666667V42.666667c0-25.6 17.066667-42.666667 42.666667-42.666667zM725.333333 0c25.6 0 42.666667 17.066667 42.666667 42.666667v170.666666c0 25.6-17.066667 42.666667-42.666667 42.666667s-42.666667-17.066667-42.666666-42.666667V42.666667c0-25.6 17.066667-42.666667 42.666666-42.666667zM38.4 426.666667c0-25.6 17.066667-42.666667 42.666667-42.666667H938.666667c25.6 0 42.666667 17.066667 42.666666 42.666667s-17.066667 42.666667-42.666666 42.666666H81.066667c-25.6 0-42.666667-17.066667-42.666667-42.666666zM793.6 537.6c17.066667 17.066667 17.066667 42.666667 0 59.733333L512 866.133333c-34.133333 29.866667-85.333333 29.866667-119.466667 0l-153.6-145.066666c-17.066667-17.066667-17.066667-42.666667 0-59.733334 17.066667-21.333333 42.666667-21.333333 59.733334-4.266666l153.6 145.066666 281.6-264.533333c17.066667-17.066667 42.666667-17.066667 59.733333 0z"  /></svg>