<?xml version="1.0" standalone="no"?><!DOCTYPE svg PUBLIC "-//W3C//DTD SVG 1.1//EN" "http://www.w3.org/Graphics/SVG/1.1/DTD/svg11.dtd"><svg class="icon" width="200px" height="200.00px" viewBox="0 0 1024 1024" version="1.1" xmlns="http://www.w3.org/2000/svg"><path fill="#2c2c2c" d="M938.666667 256H85.333333C38.4 256 0 294.4 0 341.333333v554.666667c0 46.933333 38.4 85.333333 85.333333 85.333333h853.333334c46.933333 0 85.333333-38.4 85.333333-85.333333V341.333333c0-46.933333-38.4-85.333333-85.333333-85.333333z m0 640H85.333333V341.333333h853.333334v554.666667z"  /><path fill="#2c2c2c" d="M170.666667 341.333333h85.333333V128h512v213.333333h85.333333V128c0-46.933333-38.4-85.333333-85.333333-85.333333H256c-46.933333 0-85.333333 38.4-85.333333 85.333333v213.333333zM512 405.333333c25.6 0 42.666667 17.066667 42.666667 42.666667v341.333333c0 25.6-17.066667 42.666667-42.666667 42.666667s-42.666667-17.066667-42.666667-42.666667v-341.333333c0-25.6 17.066667-42.666667 42.666667-42.666667z"  /><path fill="#2c2c2c" d="M298.666667 618.666667c0-25.6 17.066667-42.666667 42.666666-42.666667h341.333334c25.6 0 42.666667 17.066667 42.666666 42.666667s-17.066667 42.666667-42.666666 42.666666H341.333333c-25.6 0-42.666667-17.066667-42.666666-42.666666z"  /></svg>