<?xml version="1.0" standalone="no"?><!DOCTYPE svg PUBLIC "-//W3C//DTD SVG 1.1//EN" "http://www.w3.org/Graphics/SVG/1.1/DTD/svg11.dtd"><svg class="icon" width="200px" height="200.00px" viewBox="0 0 1024 1024" version="1.1" xmlns="http://www.w3.org/2000/svg"><path fill="#2c2c2c" d="M550.4 85.333333L213.333333 298.666667H85.333333C38.4 298.666667 0 337.066667 0 384v256c0 46.933333 38.4 85.333333 85.333333 85.333333h128l337.066667 213.333334c55.466667 34.133333 132.266667-4.266667 132.266667-72.533334V153.6c0-64-72.533333-106.666667-132.266667-68.266667zM597.333333 870.4L238.933333 640H85.333333V384h153.6L597.333333 153.6v716.8z"  /><path fill="#2c2c2c" d="M1002.666667 648.533333c-17.066667 17.066667-42.666667 17.066667-59.733334 0l-76.8-76.8-76.8 76.8c-17.066667 17.066667-42.666667 17.066667-59.733333 0s-17.066667-42.666667 0-59.733333l76.8-76.8-76.8-76.8c-17.066667-17.066667-17.066667-42.666667 0-59.733333 17.066667-17.066667 42.666667-17.066667 59.733333 0l76.8 76.8 76.8-76.8c17.066667-17.066667 42.666667-17.066667 59.733334 0 17.066667 17.066667 17.066667 42.666667 0 59.733333L930.133333 512l76.8 76.8c12.8 17.066667 12.8 42.666667-4.266666 59.733333z"  /></svg>