<?xml version="1.0" standalone="no"?><!DOCTYPE svg PUBLIC "-//W3C//DTD SVG 1.1//EN" "http://www.w3.org/Graphics/SVG/1.1/DTD/svg11.dtd"><svg class="icon" width="200px" height="200.00px" viewBox="0 0 1024 1024" version="1.1" xmlns="http://www.w3.org/2000/svg"><path fill="#2c2c2c" d="M883.2 0h-682.666667c-46.933333 0-85.333333 38.4-85.333333 85.333333v853.333334c0 46.933333 38.4 85.333333 85.333333 85.333333h682.666667c46.933333 0 85.333333-38.4 85.333333-85.333333V85.333333c0-46.933333-38.4-85.333333-85.333333-85.333333z m0 938.666667h-682.666667V85.333333h682.666667v853.333334z"  /><path fill="#2c2c2c" d="M712.533333 21.333333c25.6 0 42.666667 17.066667 42.666667 42.666667v883.2c0 25.6-17.066667 42.666667-42.666667 42.666667s-42.666667-17.066667-42.666666-42.666667V64c0-25.6 17.066667-42.666667 42.666666-42.666667zM46.933333 226.133333c0-25.6 17.066667-42.666667 42.666667-42.666666h128c25.6 0 42.666667 17.066667 42.666667 42.666666s-17.066667 42.666667-42.666667 42.666667h-128c-21.333333 0-42.666667-21.333333-42.666667-42.666667zM46.933333 503.466667c0-25.6 17.066667-42.666667 42.666667-42.666667h128c25.6 0 42.666667 17.066667 42.666667 42.666667s-17.066667 42.666667-42.666667 42.666666h-128c-21.333333 0-42.666667-17.066667-42.666667-42.666666zM46.933333 785.066667c0-25.6 17.066667-42.666667 42.666667-42.666667h128c25.6 0 42.666667 17.066667 42.666667 42.666667s-17.066667 42.666667-42.666667 42.666666h-128c-21.333333 0-42.666667-21.333333-42.666667-42.666666z"  /></svg>