<?xml version="1.0" standalone="no"?><!DOCTYPE svg PUBLIC "-//W3C//DTD SVG 1.1//EN" "http://www.w3.org/Graphics/SVG/1.1/DTD/svg11.dtd"><svg class="icon" width="200px" height="200.00px" viewBox="0 0 1024 1024" version="1.1" xmlns="http://www.w3.org/2000/svg"><path fill="#2c2c2c" d="M682.666667 85.333333c-93.866667 0-170.666667 76.8-170.666667 170.666667s76.8 170.666667 170.666667 170.666667 170.666667-76.8 170.666666-170.666667-76.8-170.666667-170.666666-170.666667z m0 256c-46.933333 0-85.333333-38.4-85.333334-85.333333s38.4-85.333333 85.333334-85.333333 85.333333 38.4 85.333333 85.333333-38.4 85.333333-85.333333 85.333333zM298.666667 597.333333c-93.866667 0-170.666667 76.8-170.666667 170.666667s76.8 170.666667 170.666667 170.666667 170.666667-76.8 170.666666-170.666667-76.8-170.666667-170.666666-170.666667z m0 256c-46.933333 0-85.333333-38.4-85.333334-85.333333s38.4-85.333333 85.333334-85.333333 85.333333 38.4 85.333333 85.333333-38.4 85.333333-85.333333 85.333333z"  /><path fill="#2c2c2c" d="M0 256c0-25.6 17.066667-42.666667 42.666667-42.666667h512c25.6 0 42.666667 17.066667 42.666666 42.666667s-17.066667 42.666667-42.666666 42.666667H42.666667c-25.6 0-42.666667-17.066667-42.666667-42.666667zM1019.733333 256c0 25.6-17.066667 42.666667-42.666666 42.666667h-145.066667c-25.6 0-42.666667-17.066667-42.666667-42.666667s17.066667-42.666667 42.666667-42.666667h145.066667c25.6 0 42.666667 17.066667 42.666666 42.666667zM0 768c0-25.6 17.066667-42.666667 42.666667-42.666667h128c25.6 0 42.666667 17.066667 42.666666 42.666667s-17.066667 42.666667-42.666666 42.666667H42.666667c-25.6 0-42.666667-17.066667-42.666667-42.666667zM405.333333 768c0-25.6 17.066667-42.666667 42.666667-42.666667h529.066667c25.6 0 42.666667 17.066667 42.666666 42.666667s-17.066667 42.666667-42.666666 42.666667H448c-25.6 0-42.666667-17.066667-42.666667-42.666667z"  /></svg>