<?xml version="1.0" standalone="no"?><!DOCTYPE svg PUBLIC "-//W3C//DTD SVG 1.1//EN" "http://www.w3.org/Graphics/SVG/1.1/DTD/svg11.dtd"><svg class="icon" width="200px" height="200.00px" viewBox="0 0 1024 1024" version="1.1" xmlns="http://www.w3.org/2000/svg"><path fill="#2c2c2c" d="M789.333333 0h-554.666666C106.666667 0 0 106.666667 0 234.666667S106.666667 469.333333 234.666667 469.333333h554.666666c128 0 234.666667-106.666667 234.666667-234.666666S917.333333 0 789.333333 0z m0 384h-554.666666C153.6 384 85.333333 315.733333 85.333333 234.666667S153.6 85.333333 234.666667 85.333333h554.666666C870.4 85.333333 938.666667 153.6 938.666667 234.666667S870.4 384 789.333333 384zM789.333333 554.666667h-554.666666c-128 0-234.666667 106.666667-234.666667 234.666666S106.666667 1024 234.666667 1024h554.666666c128 0 234.666667-106.666667 234.666667-234.666667S917.333333 554.666667 789.333333 554.666667z m0 384h-554.666666C153.6 938.666667 85.333333 870.4 85.333333 789.333333S153.6 640 234.666667 640h554.666666c81.066667 0 149.333333 68.266667 149.333334 149.333333S870.4 938.666667 789.333333 938.666667z"  /><path fill="#2c2c2c" d="M768 106.666667c-72.533333 0-128 55.466667-128 128s55.466667 128 128 128 128-55.466667 128-128-55.466667-128-128-128z m0 170.666666c-25.6 0-42.666667-17.066667-42.666667-42.666666s17.066667-42.666667 42.666667-42.666667 42.666667 17.066667 42.666667 42.666667-17.066667 42.666667-42.666667 42.666666zM256 661.333333c-72.533333 0-128 55.466667-128 128s55.466667 128 128 128 128-55.466667 128-128-55.466667-128-128-128z m0 170.666667c-25.6 0-42.666667-17.066667-42.666667-42.666667s17.066667-42.666667 42.666667-42.666666 42.666667 17.066667 42.666667 42.666666-17.066667 42.666667-42.666667 42.666667z"  /></svg>