<?xml version="1.0" standalone="no"?><!DOCTYPE svg PUBLIC "-//W3C//DTD SVG 1.1//EN" "http://www.w3.org/Graphics/SVG/1.1/DTD/svg11.dtd"><svg class="icon" width="200px" height="200.00px" viewBox="0 0 1024 1024" version="1.1" xmlns="http://www.w3.org/2000/svg"><path fill="#2c2c2c" d="M128 938.666667a42.666667 42.666667 0 0 1 42.666667-42.666667h682.666666a42.666667 42.666667 0 1 1 0 85.333333H170.666667a42.666667 42.666667 0 0 1-42.666667-42.666666z"  /><path fill="#2c2c2c" d="M682.666667 128H170.666667a85.333333 85.333333 0 0 0-85.333334 85.333333v426.666667a85.333333 85.333333 0 0 0 85.333334 85.333333h682.666666a85.333333 85.333333 0 0 0 85.333334-85.333333V384h85.333333v256a170.666667 170.666667 0 0 1-170.666667 170.666667H170.666667a170.666667 170.666667 0 0 1-170.666667-170.666667V213.333333a170.666667 170.666667 0 0 1 170.666667-170.666666h512v85.333333z"  /><path fill="#2c2c2c" d="M725.333333 85.333333a42.666667 42.666667 0 1 1-85.333333 0 42.666667 42.666667 0 0 1 85.333333 0zM1024 384a42.666667 42.666667 0 1 1-85.333333 0 42.666667 42.666667 0 0 1 85.333333 0z"  /><path fill="#2c2c2c" d="M848 223.573333a42.666667 42.666667 0 0 1-1.962667 60.288l-270.677333 253.44a85.333333 85.333333 0 0 1-118.186667-1.450666l-49.578666-48.810667-172.202667 146.474667a42.666667 42.666667 0 0 1-55.296-65.024l172.245333-146.432a85.333333 85.333333 0 0 1 115.157334 4.224l49.493333 48.768 270.677333-253.482667a42.666667 42.666667 0 0 1 60.330667 1.962667z"  /><path fill="#2c2c2c" d="M894.549333 120.618667a42.666667 42.666667 0 0 1 50.688 50.176l-24.405333 120.746666a42.666667 42.666667 0 0 1-71.850667 21.888l-96.085333-95.146666a42.666667 42.666667 0 0 1 21.12-72.106667l120.533333-25.6z"  /></svg>