<?xml version="1.0" standalone="no"?><!DOCTYPE svg PUBLIC "-//W3C//DTD SVG 1.1//EN" "http://www.w3.org/Graphics/SVG/1.1/DTD/svg11.dtd"><svg class="icon" width="200px" height="200.00px" viewBox="0 0 1024 1024" version="1.1" xmlns="http://www.w3.org/2000/svg"><path fill="#2c2c2c" d="M674.133333 8.533333l-597.333333 68.266667c-42.666667 4.266667-76.8 42.666667-76.8 85.333333v699.733334c0 42.666667 34.133333 81.066667 76.8 85.333333l597.333333 68.266667c51.2 4.266667 93.866667-34.133333 93.866667-85.333334V93.866667c0-51.2-42.666667-89.6-93.866667-85.333334z m8.533334 921.6L85.333333 861.866667V162.133333l597.333334-68.266666v836.266666z"  /><path fill="#2c2c2c" d="M938.666667 85.333333h-256v853.333334h256c46.933333 0 85.333333-38.4 85.333333-85.333334V170.666667c0-46.933333-38.4-85.333333-85.333333-85.333334z m0 768h-170.666667V170.666667h170.666667v682.666666zM524.8 366.933333L332.8 256c-55.466667-34.133333-128 8.533333-128 72.533333v221.866667c0 64 72.533333 106.666667 128 72.533333l192-110.933333c59.733333-29.866667 59.733333-110.933333 0-145.066667z m-234.666667 183.466667V328.533333l192 110.933334-192 110.933333zM170.666667 750.933333c4.266667-21.333333 25.6-38.4 46.933333-38.4l341.333333 42.666667c21.333333 4.266667 38.4 25.6 38.4 46.933333s-25.6 38.4-46.933333 38.4l-341.333333-42.666666c-25.6 0-42.666667-21.333333-38.4-46.933334z"  /></svg>