<?xml version="1.0" standalone="no"?><!DOCTYPE svg PUBLIC "-//W3C//DTD SVG 1.1//EN" "http://www.w3.org/Graphics/SVG/1.1/DTD/svg11.dtd"><svg class="icon" width="200px" height="200.00px" viewBox="0 0 1024 1024" version="1.1" xmlns="http://www.w3.org/2000/svg"><path fill="#2c2c2c" d="M789.333333 640c-12.8 0-25.6 8.533333-34.133333 17.066667l-59.733333 89.6c-8.533333 12.8-21.333333 17.066667-34.133334 17.066666h-298.666666c-12.8 0-25.6-8.533333-34.133334-17.066666l-59.733333-89.6c-8.533333-8.533333-21.333333-17.066667-34.133333-17.066667H0v298.666667c0 46.933333 38.4 85.333333 85.333333 85.333333h853.333334c46.933333 0 85.333333-38.4 85.333333-85.333333v-298.666667h-234.666667z m149.333334 298.666667H85.333333v-213.333334h123.733334L256 797.866667c25.6 34.133333 64 55.466667 106.666667 55.466666h294.4c42.666667 0 81.066667-21.333333 106.666666-55.466666L810.666667 725.333333h128v213.333334z"  /><path fill="#2c2c2c" d="M823.466667 85.333333L938.666667 640h85.333333L908.8 68.266667c-8.533333-38.4-42.666667-68.266667-85.333333-68.266667H196.266667c-42.666667 0-76.8 29.866667-85.333334 68.266667L0 640h85.333333L196.266667 81.066667l627.2 4.266666z"  /><path fill="#2c2c2c" d="M277.333333 238.933333c0-25.6 17.066667-42.666667 42.666667-42.666666h384c25.6 0 42.666667 17.066667 42.666667 42.666666s-17.066667 42.666667-42.666667 42.666667h-384c-25.6 0-42.666667-17.066667-42.666667-42.666667zM277.333333 469.333333c0-25.6 17.066667-42.666667 42.666667-42.666666h384c25.6 0 42.666667 17.066667 42.666667 42.666666s-17.066667 42.666667-42.666667 42.666667h-384c-25.6 0-42.666667-17.066667-42.666667-42.666667z"  /></svg>