<?xml version="1.0" standalone="no"?><!DOCTYPE svg PUBLIC "-//W3C//DTD SVG 1.1//EN" "http://www.w3.org/Graphics/SVG/1.1/DTD/svg11.dtd"><svg class="icon" width="200px" height="200.00px" viewBox="0 0 1024 1024" version="1.1" xmlns="http://www.w3.org/2000/svg"><path fill="#2c2c2c" d="M930.133333 439.466667L640 273.066667c-55.466667-34.133333-128 8.533333-128 72.533333v149.333333c-4.266667-21.333333-17.066667-42.666667-42.666667-55.466666L183.466667 273.066667c-55.466667-34.133333-128 8.533333-128 72.533333v332.8c0 64 72.533333 106.666667 128 72.533333l285.866666-166.4c21.333333-12.8 38.4-34.133333 42.666667-55.466666v149.333333c0 64 72.533333 106.666667 128 72.533333l290.133333-166.4c55.466667-29.866667 55.466667-115.2 0-145.066666zM140.8 678.4V345.6L426.666667 512l-285.866667 166.4z m456.533333 0V345.6l290.133334 166.4-290.133334 166.4z"  /></svg>