<?xml version="1.0" standalone="no"?><!DOCTYPE svg PUBLIC "-//W3C//DTD SVG 1.1//EN" "http://www.w3.org/Graphics/SVG/1.1/DTD/svg11.dtd"><svg class="icon" width="200px" height="200.00px" viewBox="0 0 1024 1024" version="1.1" xmlns="http://www.w3.org/2000/svg"><path fill="#2c2c2c" d="M844.8 273.066667L554.666667 439.466667c-21.333333 12.8-38.4 34.133333-42.666667 55.466666V345.6c0-64-72.533333-106.666667-128-72.533333l-290.133333 166.4C42.666667 469.333333 42.666667 554.666667 98.133333 584.533333l290.133334 166.4c55.466667 34.133333 128-8.533333 128-72.533333v-149.333333c4.266667 21.333333 17.066667 42.666667 42.666666 55.466666l290.133334 166.4c55.466667 34.133333 128-8.533333 128-72.533333V345.6c-4.266667-64-76.8-106.666667-132.266667-72.533333z m-413.866667 405.333333L140.8 512 426.666667 345.6v332.8z m456.533334 0L597.333333 512l290.133334-166.4v332.8z"  /></svg>