<?xml version="1.0" standalone="no"?><!DOCTYPE svg PUBLIC "-//W3C//DTD SVG 1.1//EN" "http://www.w3.org/Graphics/SVG/1.1/DTD/svg11.dtd"><svg class="icon" width="200px" height="200.00px" viewBox="0 0 1024 1024" version="1.1" xmlns="http://www.w3.org/2000/svg"><path fill="#2c2c2c" d="M874.666667 0h-725.333334c-46.933333 0-85.333333 38.4-85.333333 85.333333v793.6c0 64 72.533333 106.666667 128 72.533334l277.333333-157.866667c25.6-17.066667 59.733333-17.066667 85.333334 0l277.333333 157.866667c55.466667 34.133333 128-8.533333 128-72.533334V85.333333c0-46.933333-38.4-85.333333-85.333333-85.333333z m0 878.933333L597.333333 716.8c-51.2-29.866667-115.2-29.866667-170.666666 0l-277.333334 157.866667V85.333333h725.333334v793.6z"  /><path fill="#2c2c2c" d="M298.666667 256c-25.6 0-42.666667 17.066667-42.666667 42.666667s17.066667 42.666667 42.666667 42.666666h426.666666c25.6 0 42.666667-17.066667 42.666667-42.666666s-17.066667-42.666667-42.666667-42.666667H298.666667z"  /></svg>