<?xml version="1.0" standalone="no"?><!DOCTYPE svg PUBLIC "-//W3C//DTD SVG 1.1//EN" "http://www.w3.org/Graphics/SVG/1.1/DTD/svg11.dtd"><svg class="icon" width="200px" height="200.00px" viewBox="0 0 1024 1024" version="1.1" xmlns="http://www.w3.org/2000/svg"><path fill="#2c2c2c" d="M866.133333 341.333333h-238.933333V162.133333C627.2 72.533333 554.666667 0 465.066667 0c-17.066667 0-34.133333 8.533333-42.666667 25.6L268.8 341.333333H256c-72.533333 0-128 55.466667-128 128v426.666667c0 72.533333 55.466667 128 128 128h490.666667c55.466667 0 106.666667-38.4 123.733333-93.866667l123.733333-426.666666c21.333333-81.066667-42.666667-162.133333-128-162.133334z m42.666667 140.8l-123.733333 426.666667c-4.266667 17.066667-21.333333 29.866667-42.666667 29.866667H256c-25.6 0-42.666667-17.066667-42.666667-42.666667V469.333333c0-25.6 17.066667-42.666667 42.666667-42.666666h64l166.4-337.066667c34.133333 8.533333 55.466667 38.4 55.466667 76.8V426.666667h324.266666c29.866667 0 51.2 25.6 42.666667 55.466666z"  /><path fill="#2c2c2c" d="M85.333333 435.2c0-25.6-17.066667-42.666667-42.666666-42.666667s-42.666667 17.066667-42.666667 42.666667v512c0 25.6 17.066667 42.666667 42.666667 42.666667s42.666667-17.066667 42.666666-42.666667v-512z"  /></svg>