<?xml version="1.0" standalone="no"?><!DOCTYPE svg PUBLIC "-//W3C//DTD SVG 1.1//EN" "http://www.w3.org/Graphics/SVG/1.1/DTD/svg11.dtd"><svg class="icon" width="200px" height="200.00px" viewBox="0 0 1024 1024" version="1.1" xmlns="http://www.w3.org/2000/svg"><path fill="#2c2c2c" d="M853.333333 332.8h-234.666666c0-17.066667 4.266667-34.133333 4.266666-55.466667 0-42.666667-8.533333-98.133333-34.133333-145.066666-38.4-64-89.6-93.866667-123.733333-106.666667C413.866667 8.533333 375.466667 42.666667 362.666667 76.8L260.266667 405.333333l-8.533334 8.533334H170.666667c-72.533333 0-128 55.466667-128 128v332.8c0 72.533333 55.466667 128 128 128h622.933333c64 0 115.2-46.933333 128-110.933334l64-418.133333c4.266667-72.533333-55.466667-140.8-132.266667-140.8zM251.733333 917.333333H170.666667c-25.6 0-42.666667-17.066667-42.666667-42.666666v-332.8c0-25.6 17.066667-42.666667 42.666667-42.666667h85.333333l-4.266667 418.133333z m580.266667-34.133333c-4.266667 21.333333-21.333333 38.4-42.666667 38.4H337.066667L341.333333 435.2l102.4-324.266667c21.333333 8.533333 46.933333 25.6 68.266667 64 17.066667 25.6 21.333333 64 21.333333 98.133334 0 38.4-4.266667 72.533333-8.533333 89.6L512 418.133333h341.333333c25.6 0 46.933333 21.333333 42.666667 46.933334l-64 418.133333z"  /></svg>