<?xml version="1.0" standalone="no"?><!DOCTYPE svg PUBLIC "-//W3C//DTD SVG 1.1//EN" "http://www.w3.org/Graphics/SVG/1.1/DTD/svg11.dtd"><svg class="icon" width="200px" height="200.00px" viewBox="0 0 1024 1024" version="1.1" xmlns="http://www.w3.org/2000/svg"><path fill="#2c2c2c" d="M677.589333 552.96l211.2-211.2a149.333333 149.333333 0 1 0-211.2-211.2l-115.498666 115.541333-0.128-0.085333a42.666667 42.666667 0 0 1-60.16-60.16l-0.085334-0.085333 1.066667-1.024a47.36 47.36 0 0 1 2.688-2.688l111.786667-111.786667a234.666667 234.666667 0 1 1 331.861333 331.861333l-211.2 211.2a234.666667 234.666667 0 0 1-315.605333 14.805334l-0.469334-0.426667-0.64-0.597333a42.666667 42.666667 0 1 1 60.928-59.733334l0.426667-0.426666a149.333333 149.333333 0 0 0 195.029333-13.994667z"  /><path fill="#2c2c2c" d="M346.368 461.824l-211.2 211.2a149.333333 149.333333 0 0 0 211.2 211.2l115.498667-115.541333 0.128 0.128a42.666667 42.666667 0 0 1 60.16 60.16l0.085333 0.042666-1.066667 1.024a44.074667 44.074667 0 0 1-2.688 2.688l-111.786666 111.786667a234.666667 234.666667 0 1 1-331.861334-331.861333l211.2-211.2a234.666667 234.666667 0 0 1 315.605334-14.805334l0.469333 0.426667c0.426667 0.341333 0.768 0.725333 1.152 1.109333a42.666667 42.666667 0 1 1-61.44 59.221334l-0.426667 0.426666a149.333333 149.333333 0 0 0-195.029333 13.994667z"  /></svg>