<?xml version="1.0" standalone="no"?><!DOCTYPE svg PUBLIC "-//W3C//DTD SVG 1.1//EN" "http://www.w3.org/Graphics/SVG/1.1/DTD/svg11.dtd"><svg class="icon" width="200px" height="200.00px" viewBox="0 0 1024 1024" version="1.1" xmlns="http://www.w3.org/2000/svg"><path fill="#2c2c2c" d="M495.104 139.989333a42.666667 42.666667 0 0 1 42.666667 42.666667v310.613333a42.666667 42.666667 0 0 0 12.458666 30.122667l189.184 189.184a42.666667 42.666667 0 1 1-60.330666 60.330667l-189.184-189.141334a128 128 0 0 1-37.461334-90.538666V182.656a42.666667 42.666667 0 0 1 42.666667-42.666667z"  /><path fill="#2c2c2c" d="M938.666667 512c0 235.648-191.018667 426.666667-426.666667 426.666667S85.333333 747.648 85.333333 512c0-15.530667 0.853333-30.890667 2.474667-45.994667H2.048C0.682667 481.152 0 496.512 0 512c0 282.752 229.248 512 512 512 282.794667 0 512-229.248 512-512S794.794667 0 512 0A511.658667 511.658667 0 0 0 78.293333 239.786667h105.130667A425.813333 425.813333 0 0 1 512 85.333333c235.648 0 426.666667 191.018667 426.666667 426.666667z"  /><path fill="#2c2c2c" d="M87.552 464.938667a42.666667 42.666667 0 1 1-85.333333 0 42.666667 42.666667 0 0 1 85.333333 0z"  /><path fill="#2c2c2c" d="M96 11.392a42.666667 42.666667 0 0 1 39.765333 45.44L124.586667 222.506667l164.949333-22.229334a42.666667 42.666667 0 0 1 11.392 84.565334l-164.949333 22.186666A85.333333 85.333333 0 0 1 39.466667 216.832l11.136-165.674667a42.666667 42.666667 0 0 1 45.44-39.68z"  /></svg>