<?xml version="1.0" standalone="no"?><!DOCTYPE svg PUBLIC "-//W3C//DTD SVG 1.1//EN" "http://www.w3.org/Graphics/SVG/1.1/DTD/svg11.dtd"><svg class="icon" width="200px" height="200.00px" viewBox="0 0 1024 1024" version="1.1" xmlns="http://www.w3.org/2000/svg"><path fill="#2c2c2c" d="M294.4 93.866667c17.066667-17.066667 17.066667-42.666667 0-59.733334-17.066667-17.066667-42.666667-17.066667-59.733333 0L119.466667 140.8 72.533333 89.6c-17.066667-17.066667-42.666667-17.066667-59.733333 0s-17.066667 42.666667 0 59.733333l76.8 81.066667c17.066667 17.066667 42.666667 17.066667 59.733333 0l145.066667-136.533333zM384 85.333333c-25.6 0-42.666667 17.066667-42.666667 42.666667s17.066667 42.666667 42.666667 42.666667h597.333333c25.6 0 42.666667-17.066667 42.666667-42.666667s-17.066667-42.666667-42.666667-42.666667H384zM384 469.333333c-25.6 0-42.666667 17.066667-42.666667 42.666667s17.066667 42.666667 42.666667 42.666667h597.333333c25.6 0 42.666667-17.066667 42.666667-42.666667s-17.066667-42.666667-42.666667-42.666667H384zM341.333333 896c0-25.6 17.066667-42.666667 42.666667-42.666667h597.333333c25.6 0 42.666667 17.066667 42.666667 42.666667s-17.066667 42.666667-42.666667 42.666667H384c-25.6 0-42.666667-17.066667-42.666667-42.666667zM132.266667 388.266667c-72.533333 0-128 55.466667-128 128s55.466667 128 128 128 128-55.466667 128-128-55.466667-128-128-128z m0 170.666666c-25.6 0-42.666667-17.066667-42.666667-42.666666s17.066667-42.666667 42.666667-42.666667 42.666667 17.066667 42.666666 42.666667-17.066667 42.666667-42.666666 42.666666zM132.266667 768c-72.533333 0-128 55.466667-128 128s55.466667 128 128 128 128-55.466667 128-128-55.466667-128-128-128z m0 170.666667c-25.6 0-42.666667-17.066667-42.666667-42.666667s17.066667-42.666667 42.666667-42.666667 42.666667 17.066667 42.666666 42.666667-17.066667 42.666667-42.666666 42.666667z"  /></svg>