<?xml version="1.0" standalone="no"?><!DOCTYPE svg PUBLIC "-//W3C//DTD SVG 1.1//EN" "http://www.w3.org/Graphics/SVG/1.1/DTD/svg11.dtd"><svg class="icon" width="200px" height="200.00px" viewBox="0 0 1024 1024" version="1.1" xmlns="http://www.w3.org/2000/svg"><path fill="#2c2c2c" d="M293.12 102.656A42.666667 42.666667 0 1 0 234.965333 40.234667L118.570667 148.693333 76.8 103.253333A42.666667 42.666667 0 1 0 14.08 161.066667l70.826667 76.970666a42.666667 42.666667 0 0 0 60.501333 2.346667L293.12 102.656zM384 85.333333a42.666667 42.666667 0 0 0 0 85.333334h597.333333a42.666667 42.666667 0 1 0 0-85.333334H384z m0 384a42.666667 42.666667 0 1 0 0 85.333334h597.333333a42.666667 42.666667 0 1 0 0-85.333334H384zM341.333333 896a42.666667 42.666667 0 0 1 42.666667-42.666667h597.333333a42.666667 42.666667 0 1 1 0 85.333334H384a42.666667 42.666667 0 0 1-42.666667-42.666667zM295.253333 383.701333a42.666667 42.666667 0 0 1-2.133333 60.288l-147.754667 137.685334a42.666667 42.666667 0 0 1-60.501333-2.304L14.08 502.4a42.666667 42.666667 0 1 1 62.72-57.770667l41.813333 45.397334 116.394667-108.458667a42.666667 42.666667 0 0 1 60.288 2.133333z m-2.133333 444.288a42.666667 42.666667 0 1 0-58.154667-62.421333l-116.394666 108.416-41.813334-45.354667a42.666667 42.666667 0 0 0-62.72 57.770667l70.826667 76.970667a42.666667 42.666667 0 0 0 60.501333 2.346666l147.754667-137.728z"  /></svg>