<?xml version="1.0" standalone="no"?><!DOCTYPE svg PUBLIC "-//W3C//DTD SVG 1.1//EN" "http://www.w3.org/Graphics/SVG/1.1/DTD/svg11.dtd"><svg class="icon" width="200px" height="200.00px" viewBox="0 0 1024 1024" version="1.1" xmlns="http://www.w3.org/2000/svg"><path fill="#2c2c2c" d="M184.32 4.096H102.4C57.344 4.096 20.48 40.96 20.48 86.016v81.92c0 45.056 36.864 81.92 81.92 81.92h81.92c45.056 0 81.92-36.864 81.92-81.92v-81.92c0-49.152-36.864-81.92-81.92-81.92z m0 163.84H102.4v-81.92h81.92v81.92zM389.12 81.92c-24.576 0-40.96 16.384-40.96 40.96s16.384 40.96 40.96 40.96h573.44c24.576 0 40.96-16.384 40.96-40.96s-16.384-40.96-40.96-40.96H389.12zM389.12 450.56c-24.576 0-40.96 16.384-40.96 40.96s16.384 40.96 40.96 40.96h573.44c24.576 0 40.96-16.384 40.96-40.96s-16.384-40.96-40.96-40.96H389.12zM348.16 860.16c0-24.576 16.384-40.96 40.96-40.96h573.44c24.576 0 40.96 16.384 40.96 40.96s-16.384 40.96-40.96 40.96H389.12c-24.576 0-40.96-16.384-40.96-40.96zM184.32 372.736H102.4c-45.056 0-81.92 36.864-81.92 81.92v81.92c0 45.056 36.864 81.92 81.92 81.92h81.92c45.056 0 81.92-36.864 81.92-81.92v-81.92c0-49.152-36.864-81.92-81.92-81.92z m0 163.84H102.4v-81.92h81.92v81.92zM184.32 741.376H102.4c-45.056 0-81.92 36.864-81.92 81.92v81.92c0 45.056 36.864 81.92 81.92 81.92h81.92c45.056 0 81.92-36.864 81.92-81.92v-81.92c0-49.152-36.864-81.92-81.92-81.92z m0 163.84H102.4v-81.92h81.92v81.92z"  /></svg>