<?xml version="1.0" standalone="no"?><!DOCTYPE svg PUBLIC "-//W3C//DTD SVG 1.1//EN" "http://www.w3.org/Graphics/SVG/1.1/DTD/svg11.dtd"><svg class="icon" width="200px" height="200.00px" viewBox="0 0 1024 1024" version="1.1" xmlns="http://www.w3.org/2000/svg"><path fill="#2c2c2c" d="M53.248 12.288c16.384-16.384 40.96-16.384 57.344 0l53.248 53.248L217.088 12.288c16.384-16.384 40.96-16.384 57.344 0 16.384 16.384 16.384 40.96 0 57.344L221.184 122.88l53.248 53.248c16.384 16.384 16.384 40.96 0 57.344-16.384 16.384-40.96 16.384-57.344 0L163.84 180.224 110.592 233.472c-16.384 16.384-40.96 16.384-57.344 0-16.384-16.384-16.384-40.96 0-57.344L106.496 122.88 53.248 69.632C36.864 53.248 36.864 28.672 53.248 12.288zM348.16 122.88c0-24.576 16.384-40.96 40.96-40.96h573.44c24.576 0 40.96 16.384 40.96 40.96s-16.384 40.96-40.96 40.96H389.12c-24.576 0-40.96-16.384-40.96-40.96zM348.16 491.52c0-24.576 16.384-40.96 40.96-40.96h573.44c24.576 0 40.96 16.384 40.96 40.96s-16.384 40.96-40.96 40.96H389.12c-24.576 0-40.96-16.384-40.96-40.96zM389.12 819.2c-24.576 0-40.96 16.384-40.96 40.96s16.384 40.96 40.96 40.96h573.44c24.576 0 40.96-16.384 40.96-40.96s-16.384-40.96-40.96-40.96H389.12z"  /><path fill="#2c2c2c" d="M147.456 372.736c-69.632 0-122.88 53.248-122.88 122.88s53.248 122.88 122.88 122.88 122.88-53.248 122.88-122.88-53.248-122.88-122.88-122.88z m0 163.84c-24.576 0-40.96-16.384-40.96-40.96s16.384-40.96 40.96-40.96 40.96 16.384 40.96 40.96-16.384 40.96-40.96 40.96zM147.456 741.376c-69.632 0-122.88 53.248-122.88 122.88s53.248 122.88 122.88 122.88 122.88-53.248 122.88-122.88-53.248-122.88-122.88-122.88z m0 163.84c-24.576 0-40.96-16.384-40.96-40.96s16.384-40.96 40.96-40.96 40.96 16.384 40.96 40.96-16.384 40.96-40.96 40.96z"  /></svg>