<?xml version="1.0" standalone="no"?><!DOCTYPE svg PUBLIC "-//W3C//DTD SVG 1.1//EN" "http://www.w3.org/Graphics/SVG/1.1/DTD/svg11.dtd"><svg class="icon" width="200px" height="200.00px" viewBox="0 0 1024 1024" version="1.1" xmlns="http://www.w3.org/2000/svg"><path fill="#2c2c2c" d="M512 0C277.333333 0 85.333333 187.733333 85.333333 422.4c0 123.733333 51.2 234.666667 136.533334 311.466667l230.4 221.866666c34.133333 34.133333 85.333333 34.133333 119.466666 0l221.866667-213.333333c89.6-76.8 149.333333-192 149.333333-320C938.666667 187.733333 746.666667 0 512 0z m221.866667 678.4L512 896l-230.4-221.866667C213.333333 610.133333 170.666667 520.533333 170.666667 422.4 170.666667 238.933333 324.266667 85.333333 512 85.333333s341.333333 153.6 341.333333 337.066667c0 102.4-46.933333 192-119.466666 256z"  /><path fill="#2c2c2c" d="M512 256c-93.866667 0-170.666667 76.8-170.666667 170.666667s76.8 170.666667 170.666667 170.666666 170.666667-76.8 170.666667-170.666666-76.8-170.666667-170.666667-170.666667z m0 256c-46.933333 0-85.333333-38.4-85.333333-85.333333s38.4-85.333333 85.333333-85.333334 85.333333 38.4 85.333333 85.333334-38.4 85.333333-85.333333 85.333333z"  /></svg>