<?xml version="1.0" standalone="no"?><!DOCTYPE svg PUBLIC "-//W3C//DTD SVG 1.1//EN" "http://www.w3.org/Graphics/SVG/1.1/DTD/svg11.dtd"><svg class="icon" width="200px" height="200.00px" viewBox="0 0 1024 1024" version="1.1" xmlns="http://www.w3.org/2000/svg"><path fill="#2c2c2c" d="M938.666667 512a42.666667 42.666667 0 0 1-42.666667 42.666667H401.664l97.834667 97.834666a42.666667 42.666667 0 0 1-60.330667 60.330667L298.026667 571.733333a85.333333 85.333333 0 0 1-1.194667-119.466666l134.826667-140.458667a42.666667 42.666667 0 1 1 61.525333 59.050667L398.72 469.333333H896a42.666667 42.666667 0 0 1 42.666667 42.666667zM469.333333 938.666667a42.666667 42.666667 0 0 1-42.666666 42.666666H170.666667a85.333333 85.333333 0 0 1-85.333334-85.333333V128a85.333333 85.333333 0 0 1 85.333334-85.333333h246.357333a42.666667 42.666667 0 0 1 0 85.333333H170.666667v768h256a42.666667 42.666667 0 0 1 42.666666 42.666667z"  /></svg>