<?xml version="1.0" standalone="no"?><!DOCTYPE svg PUBLIC "-//W3C//DTD SVG 1.1//EN" "http://www.w3.org/Graphics/SVG/1.1/DTD/svg11.dtd"><svg class="icon" width="200px" height="199.80px" viewBox="0 0 1025 1024" version="1.1" xmlns="http://www.w3.org/2000/svg"><path fill="#2c2c2c" d="M810.506592 213.291208c72.519011 0 127.974725 55.455714 127.974725 127.974725s-55.455714 127.974725-127.974725 127.974725H213.291208v85.316484h597.215384c119.443077 0 213.291208-93.848132 213.291208-213.291209s-93.848132-213.291208-213.291208-213.291208H213.291208v85.316483h597.215384z"  /><path fill="#2c2c2c" d="M213.291208 554.557142h597.215384v-85.316484H213.291208c-119.443077 0-213.291208 93.848132-213.291208 213.291209s93.848132 213.291208 213.291208 213.291208h725.190109v-85.316483H213.291208c-72.519011 0-127.974725-55.455714-127.974725-127.974725s55.455714-127.974725 127.974725-127.974725zM127.974725 42.658242C55.455714 42.658242 0 98.113956 0 170.632967s55.455714 127.974725 127.974725 127.974725 127.974725-55.455714 127.974725-127.974725-55.455714-127.974725-127.974725-127.974725z m0 170.632966c-25.594945 0-42.658242-17.063297-42.658242-42.658241s17.063297-42.658242 42.658242-42.658242 42.658242 17.063297 42.658242 42.658242-17.063297 42.658242-42.658242 42.658241z"  /><path fill="#2c2c2c" d="M806.240767 699.595163c12.797472-17.063297 42.658242-21.329121 59.721539-8.531648l123.708901 89.582307c46.924066 34.126593 46.924066 102.37978 0 136.506374l-123.708901 98.113956c-17.063297 12.797472-46.924066 12.797472-59.721539-8.531649-12.797472-17.063297-12.797472-46.924066 8.531649-59.721538l123.708901-98.113956-123.708901-89.582307c-21.329121-12.797472-25.594945-38.392417-8.531649-59.721539z"  /></svg>