<?xml version="1.0" standalone="no"?><!DOCTYPE svg PUBLIC "-//W3C//DTD SVG 1.1//EN" "http://www.w3.org/Graphics/SVG/1.1/DTD/svg11.dtd"><svg class="icon" width="200px" height="200.00px" viewBox="0 0 1024 1024" version="1.1" xmlns="http://www.w3.org/2000/svg"><path fill="#2c2c2c" d="M234.666667 640l-179.2 81.066667c-34.133333 17.066667-34.133333 64 0 76.8l422.4 187.733333c21.333333 8.533333 46.933333 8.533333 68.266666 0l422.4-187.733333c34.133333-17.066667 34.133333-64 0-76.8l-170.666666-76.8L768 725.333333l76.8 34.133334-332.8 149.333333-337.066667-149.333333 106.666667-46.933334L234.666667 640z"  /><path fill="#2c2c2c" d="M797.866667 631.466667L610.133333 85.333333c-25.6-72.533333-132.266667-76.8-157.866666-4.266666L226.133333 631.466667c-12.8 29.866667-4.266667 72.533333 29.866667 98.133333 42.666667 29.866667 136.533333 76.8 256 72.533333 119.466667-4.266667 209.066667-46.933333 251.733333-76.8 38.4-17.066667 46.933333-59.733333 34.133334-93.866666z m-285.866667 85.333333c-93.866667 0-166.4-34.133333-204.8-59.733333l221.866667-546.133334 187.733333 546.133334c-38.4 21.333333-110.933333 59.733333-204.8 59.733333z"  /><path fill="#2c2c2c" d="M401.066667 469.333333c-17.066667-12.8-42.666667-12.8-59.733334 4.266667-17.066667 17.066667-12.8 46.933333 4.266667 59.733333l25.6-34.133333-25.6 34.133333h4.266667c4.266667 0 4.266667 4.266667 8.533333 4.266667 8.533333 4.266667 17.066667 12.8 34.133333 17.066667 29.866667 12.8 68.266667 25.6 123.733334 25.6 55.466667 0 93.866667-12.8 123.733333-25.6 12.8-8.533333 25.6-12.8 34.133333-17.066667 4.266667-4.266667 8.533333-4.266667 8.533334-8.533333l4.266666-4.266667-29.866666-29.866667 29.866666 29.866667c17.066667-17.066667 17.066667-42.666667 4.266667-59.733333-17.066667-17.066667-42.666667-17.066667-59.733333-4.266667 0 0-4.266667 0-4.266667 4.266667-4.266667 4.266667-12.8 8.533333-21.333333 12.8-17.066667 8.533333-46.933333 17.066667-89.6 17.066666s-72.533333-8.533333-89.6-17.066666c-8.533333-4.266667-17.066667-8.533333-21.333334-12.8 0 8.533333 0 4.266667-4.266666 4.266666zM661.333333 268.8c21.333333 12.8 25.6 38.4 12.8 59.733333l-34.133333-21.333333 38.4 21.333333-4.266667 4.266667c0 4.266667-4.266667 4.266667-8.533333 8.533333-8.533333 8.533333-17.066667 17.066667-29.866667 25.6-25.6 17.066667-64 29.866667-119.466666 29.866667-51.2 0-89.6-12.8-110.933334-29.866667-12.8-8.533333-21.333333-12.8-25.6-21.333333l-8.533333-8.533333v-4.266667l38.4-17.066667-42.666667 12.8c-8.533333-21.333333 0-46.933333 21.333334-55.466666 21.333333-8.533333 42.666667 0 55.466666 17.066666l4.266667 4.266667c8.533333 4.266667 29.866667 12.8 68.266667 17.066667 38.4 0 59.733333-8.533333 72.533333-17.066667 4.266667-4.266667 8.533333-8.533333 12.8-8.533333 17.066667-21.333333 42.666667-25.6 59.733333-17.066667z"  /></svg>