<?xml version="1.0" standalone="no"?><!DOCTYPE svg PUBLIC "-//W3C//DTD SVG 1.1//EN" "http://www.w3.org/Graphics/SVG/1.1/DTD/svg11.dtd"><svg class="icon" width="200px" height="200.00px" viewBox="0 0 1024 1024" version="1.1" xmlns="http://www.w3.org/2000/svg"><path fill="#2c2c2c" d="M640 42.666667a42.666667 42.666667 0 1 0 0 85.333333h195.669333l-268.501333 268.501333a42.666667 42.666667 0 0 0 60.330667 60.330667L896 188.330667V384a42.666667 42.666667 0 1 0 85.333333 0V128a85.333333 85.333333 0 0 0-85.333333-85.333333h-256zM456.832 567.168a42.666667 42.666667 0 0 0-60.330667 0L128 835.669333V640a42.666667 42.666667 0 1 0-85.333333 0v256a85.333333 85.333333 0 0 0 85.333333 85.333333h256a42.666667 42.666667 0 1 0 0-85.333333H188.330667l268.501333-268.501333a42.666667 42.666667 0 0 0 0-60.330667z"  /></svg>