<?xml version="1.0" standalone="no"?><!DOCTYPE svg PUBLIC "-//W3C//DTD SVG 1.1//EN" "http://www.w3.org/Graphics/SVG/1.1/DTD/svg11.dtd"><svg class="icon" width="200px" height="200.00px" viewBox="0 0 1024 1024" version="1.1" xmlns="http://www.w3.org/2000/svg"><path fill="#2c2c2c" d="M234.666667 0C106.666667 0 0 106.666667 0 234.666667S106.666667 469.333333 234.666667 469.333333H426.666667c25.6 0 42.666667-17.066667 42.666666-42.666666V234.666667C469.333333 106.666667 362.666667 0 234.666667 0zM384 384H234.666667C153.6 384 85.333333 315.733333 85.333333 234.666667S153.6 85.333333 234.666667 85.333333 384 153.6 384 234.666667V384zM426.666667 554.666667H234.666667c-128 0-234.666667 106.666667-234.666667 234.666666S106.666667 1024 234.666667 1024s234.666667-106.666667 234.666666-234.666667V597.333333c0-25.6-17.066667-42.666667-42.666666-42.666666z m-42.666667 234.666666C384 870.4 315.733333 938.666667 234.666667 938.666667S85.333333 870.4 85.333333 789.333333 153.6 640 234.666667 640H384v149.333333zM789.333333 0c-128 0-234.666667 106.666667-234.666666 234.666667V426.666667c0 25.6 17.066667 42.666667 42.666666 42.666666h192c128 0 234.666667-106.666667 234.666667-234.666666S917.333333 0 789.333333 0z m0 384H640V234.666667C640 153.6 708.266667 85.333333 789.333333 85.333333S938.666667 153.6 938.666667 234.666667 870.4 384 789.333333 384zM789.333333 554.666667H597.333333c-25.6 0-42.666667 17.066667-42.666666 42.666666v192c0 128 106.666667 234.666667 234.666666 234.666667s234.666667-106.666667 234.666667-234.666667-106.666667-234.666667-234.666667-234.666666z m0 384c-81.066667 0-149.333333-68.266667-149.333333-149.333334V640h149.333333c81.066667 0 149.333333 68.266667 149.333334 149.333333S870.4 938.666667 789.333333 938.666667z"  /></svg>