<?xml version="1.0" standalone="no"?><!DOCTYPE svg PUBLIC "-//W3C//DTD SVG 1.1//EN" "http://www.w3.org/Graphics/SVG/1.1/DTD/svg11.dtd"><svg class="icon" width="200px" height="200.00px" viewBox="0 0 1024 1024" version="1.1" xmlns="http://www.w3.org/2000/svg"><path fill="#2c2c2c" d="M384 0H85.333333C38.4 0 0 38.4 0 85.333333v298.666667c0 46.933333 38.4 85.333333 85.333333 85.333333h298.666667c46.933333 0 85.333333-38.4 85.333333-85.333333V85.333333c0-46.933333-38.4-85.333333-85.333333-85.333333z m0 384H85.333333V85.333333h298.666667v298.666667zM384 554.666667H85.333333c-46.933333 0-85.333333 38.4-85.333333 85.333333v298.666667c0 46.933333 38.4 85.333333 85.333333 85.333333h298.666667c46.933333 0 85.333333-38.4 85.333333-85.333333v-298.666667c0-46.933333-38.4-85.333333-85.333333-85.333333z m0 384H85.333333v-298.666667h298.666667v298.666667zM789.333333 0c-128 0-234.666667 106.666667-234.666666 234.666667s106.666667 234.666667 234.666666 234.666666S1024 362.666667 1024 234.666667 917.333333 0 789.333333 0z m0 384C708.266667 384 640 315.733333 640 234.666667S708.266667 85.333333 789.333333 85.333333 938.666667 153.6 938.666667 234.666667 870.4 384 789.333333 384zM938.666667 554.666667h-298.666667c-46.933333 0-85.333333 38.4-85.333333 85.333333v298.666667c0 46.933333 38.4 85.333333 85.333333 85.333333h298.666667c46.933333 0 85.333333-38.4 85.333333-85.333333v-298.666667c0-46.933333-38.4-85.333333-85.333333-85.333333z m0 384h-298.666667v-298.666667h298.666667v298.666667z"  /></svg>