<?xml version="1.0" standalone="no"?><!DOCTYPE svg PUBLIC "-//W3C//DTD SVG 1.1//EN" "http://www.w3.org/Graphics/SVG/1.1/DTD/svg11.dtd"><svg class="icon" width="200px" height="200.00px" viewBox="0 0 1024 1024" version="1.1" xmlns="http://www.w3.org/2000/svg"><path fill="#2c2c2c" d="M819.2 401.066667L652.8 298.666667l17.066667-192C674.133333 29.866667 588.8-12.8 529.066667 34.133333l-149.333334 128L200.533333 85.333333C128 59.733333 59.733333 128 85.333333 196.266667l72.533334 179.2-128 149.333333c-51.2 59.733333-4.266667 145.066667 72.533333 140.8l192-17.066667 102.4 166.4c38.4 64 136.533333 51.2 153.6-25.6l46.933333-187.733333 187.733334-46.933333c81.066667-12.8 98.133333-110.933333 34.133333-153.6z m-234.666667 119.466666c-29.866667 8.533333-55.466667 29.866667-64 64l-46.933333 187.733334-102.4-166.4c-17.066667-25.6-46.933333-42.666667-81.066667-38.4l-192 17.066666 128-149.333333c21.333333-25.6 25.6-59.733333 12.8-89.6L166.4 166.4l179.2 72.533333c29.866667 12.8 64 8.533333 89.6-12.8l149.333333-128-17.066666 192c-4.266667 29.866667 12.8 64 38.4 81.066667l166.4 102.4-187.733334 46.933333z"  /><path fill="#2c2c2c" d="M682.666667 686.933333c17.066667-17.066667 42.666667-17.066667 59.733333-4.266666l170.666667 157.866666c17.066667 17.066667 17.066667 42.666667 4.266666 59.733334-17.066667 17.066667-42.666667 17.066667-59.733333 4.266666l-170.666667-157.866666c-21.333333-17.066667-21.333333-42.666667-4.266666-59.733334z"  /></svg>