<?xml version="1.0" standalone="no"?><!DOCTYPE svg PUBLIC "-//W3C//DTD SVG 1.1//EN" "http://www.w3.org/Graphics/SVG/1.1/DTD/svg11.dtd"><svg class="icon" width="200px" height="200.00px" viewBox="0 0 1024 1024" version="1.1" xmlns="http://www.w3.org/2000/svg"><path fill="#2c2c2c" d="M823.466667 716.8c-217.6 0-392.533333-174.933333-392.533334-392.533333 0-59.733333 12.8-115.2 34.133334-162.133334 12.8-34.133333-8.533333-72.533333-42.666667-64C230.4 136.533333 85.333333 307.2 85.333333 512c0 234.666667 192 426.666667 426.666667 426.666667 140.8 0 264.533333-68.266667 341.333333-170.666667 17.066667-21.333333-4.266667-51.2-29.866666-51.2zM512 853.333333c-187.733333 0-341.333333-153.6-341.333333-341.333333 0-132.266667 76.8-247.466667 187.733333-302.933333-12.8 34.133333-17.066667 72.533333-17.066667 115.2 0 226.133333 157.866667 418.133333 371.2 465.066666-55.466667 38.4-128 64-200.533333 64z"  /></svg>