<?xml version="1.0" standalone="no"?><!DOCTYPE svg PUBLIC "-//W3C//DTD SVG 1.1//EN" "http://www.w3.org/Graphics/SVG/1.1/DTD/svg11.dtd"><svg class="icon" width="200px" height="200.00px" viewBox="0 0 1024 1024" version="1.1" xmlns="http://www.w3.org/2000/svg"><path fill="#2c2c2c" d="M448.981333 50.901333a85.333333 85.333333 0 0 1 128.213334 0.256l116.266666 132.821334a42.666667 42.666667 0 0 1-64.256 56.192L554.666667 154.965333V469.333333h312.490666l-84.693333-74.666666a42.666667 42.666667 0 0 1 56.405333-64l134.229334 118.314666a85.333333 85.333333 0 0 1-0.256 128.213334l-132.821334 116.266666a42.666667 42.666667 0 1 1-56.192-64.256L869.034667 554.666667H554.666667v314.368l74.538666-85.205334a42.666667 42.666667 0 1 1 64.256 56.192L577.194667 972.8a85.333333 85.333333 0 0 1-128.213334 0.256L330.666667 838.826667a42.666667 42.666667 0 1 1 64-56.405334L469.333333 867.157333V554.666667H154.965333l85.205334 74.538666a42.666667 42.666667 0 0 1-56.192 64.256L51.2 577.194667a85.333333 85.333333 0 0 1-0.256-128.213334L185.173333 330.666667a42.666667 42.666667 0 0 1 56.405334 64L156.842667 469.333333H469.333333V156.842667L394.666667 241.536a42.666667 42.666667 0 1 1-64-56.405333l118.314666-134.229334z"  /></svg>