<?xml version="1.0" standalone="no"?><!DOCTYPE svg PUBLIC "-//W3C//DTD SVG 1.1//EN" "http://www.w3.org/Graphics/SVG/1.1/DTD/svg11.dtd"><svg class="icon" width="200px" height="200.00px" viewBox="0 0 1024 1024" version="1.1" xmlns="http://www.w3.org/2000/svg"><path fill="#2c2c2c" d="M789.333333 345.6c12.8 21.333333 4.266667 46.933333-12.8 59.733333l-226.133333 140.8v256c0 25.6-17.066667 42.666667-42.666667 42.666667s-42.666667-17.066667-42.666666-42.666667v-251.733333L230.4 409.6c-21.333333-12.8-25.6-38.4-12.8-59.733333 12.8-21.333333 38.4-25.6 59.733333-17.066667L512 469.333333l221.866667-140.8c17.066667-8.533333 42.666667 0 55.466666 17.066667z"  /><path fill="#2c2c2c" d="M913.066667 230.4L554.666667 25.6c-25.6-17.066667-59.733333-17.066667-85.333334 0L110.933333 230.4c-25.6 17.066667-42.666667 42.666667-42.666666 72.533333v413.866667c0 29.866667 17.066667 59.733333 42.666666 72.533333l358.4 204.8c25.6 17.066667 59.733333 17.066667 85.333334 0l358.4-204.8c25.6-17.066667 42.666667-42.666667 42.666666-72.533333V307.2c0-34.133333-17.066667-59.733333-42.666666-76.8z m-42.666667 486.4L512 925.866667l-358.4-204.8V307.2L512 98.133333l358.4 204.8v413.866667z"  /></svg>