<?xml version="1.0" standalone="no"?><!DOCTYPE svg PUBLIC "-//W3C//DTD SVG 1.1//EN" "http://www.w3.org/Graphics/SVG/1.1/DTD/svg11.dtd"><svg class="icon" width="200px" height="200.00px" viewBox="0 0 1024 1024" version="1.1" xmlns="http://www.w3.org/2000/svg"><path fill="#2c2c2c" d="M964.266667 537.6L772.266667 426.666667V200.533333c0-17.066667-8.533333-29.866667-21.333334-38.4L533.333333 38.4c-12.8-8.533333-29.866667-8.533333-42.666666 0l-213.333334 128c-12.8 4.266667-21.333333 21.333333-21.333333 34.133333v221.866667l-192 110.933333c-12.8 8.533333-21.333333 21.333333-21.333333 38.4v247.466667c0 17.066667 8.533333 29.866667 21.333333 38.4L281.6 981.333333c12.8 8.533333 29.866667 8.533333 42.666667 0l192-110.933333 192 110.933333c12.8 8.533333 29.866667 8.533333 42.666666 0l217.6-123.733333c12.8-8.533333 21.333333-21.333333 21.333334-38.4v-247.466667c-4.266667-12.8-12.8-29.866667-25.6-34.133333zM251.733333 870.4L128 797.866667v-119.466667l123.733333 72.533333v119.466667zM298.666667 674.133333c-4.266667 0-4.266667 0 0 0h-12.8l-140.8-81.066666h-4.266667l153.6-89.6 153.6 89.6L298.666667 674.133333z m170.666666 123.733334l-132.266666 76.8v-128l132.266666-76.8v128z m0-298.666667L341.333333 422.4V281.6l128 76.8v140.8z m42.666667-221.866667h-8.533333l-128-72.533333L512 128l132.266667 76.8L512 277.333333c4.266667 0 0 0 0 0z m42.666667 76.8l132.266666-76.8v145.066667L554.666667 499.2V354.133333z m136.533333 520.533334l-132.266667-76.8v-123.733334l132.266667 76.8v123.733334z m42.666667-200.533334h-12.8l-140.8-81.066666s-4.266667 0-4.266667-4.266667l153.6-89.6 153.6 89.6-149.333333 85.333333z m166.4 123.733334l-128 72.533333v-123.733333l128-72.533334v123.733334z"  /></svg>