<?xml version="1.0" standalone="no"?><!DOCTYPE svg PUBLIC "-//W3C//DTD SVG 1.1//EN" "http://www.w3.org/Graphics/SVG/1.1/DTD/svg11.dtd"><svg class="icon" width="200px" height="200.00px" viewBox="0 0 1024 1024" version="1.1" xmlns="http://www.w3.org/2000/svg"><path fill="#2c2c2c" d="M657.066667 362.666667C507.733333 213.333333 264.533333 213.333333 115.2 362.666667s-149.333333 392.533333 0 541.866666 392.533333 149.333333 541.866667 0 149.333333-388.266667 0-541.866666zM597.333333 849.066667c-115.2 115.2-307.2 115.2-422.4 0s-115.2-307.2 0-422.4 307.2-115.2 422.4 0 115.2 302.933333 0 422.4z"  /><path fill="#2c2c2c" d="M942.933333 132.266667c17.066667 17.066667 17.066667 42.666667 0 59.733333L682.666667 439.466667c-17.066667 17.066667-42.666667 17.066667-59.733334 0-17.066667-17.066667-17.066667-42.666667 0-59.733334L883.2 128c17.066667-12.8 42.666667-12.8 59.733333 4.266667z"  /><path fill="#2c2c2c" d="M917.333333 51.2c55.466667-8.533333 102.4 38.4 93.866667 98.133333l-34.133333 238.933334c-4.266667 21.333333-25.6 38.4-46.933334 34.133333-21.333333-4.266667-38.4-25.6-38.4-46.933333l34.133334-238.933334-217.6 29.866667c-25.6 0-46.933333-17.066667-46.933334-38.4-4.266667-21.333333 12.8-46.933333 38.4-46.933333l217.6-29.866667z"  /></svg>