<?xml version="1.0" standalone="no"?><!DOCTYPE svg PUBLIC "-//W3C//DTD SVG 1.1//EN" "http://www.w3.org/Graphics/SVG/1.1/DTD/svg11.dtd"><svg class="icon" width="200px" height="200.00px" viewBox="0 0 1024 1024" version="1.1" xmlns="http://www.w3.org/2000/svg"><path fill="#2c2c2c" d="M874.666667 123.733333C725.333333-25.6 482.133333-25.6 332.8 123.733333s-149.333333 392.533333 0 541.866667 392.533333 149.333333 541.866667 0c149.333333-145.066667 149.333333-388.266667 0-541.866667z m-59.733334 486.4c-115.2 115.2-307.2 115.2-422.4 0s-115.2-307.2 0-422.4 307.2-115.2 422.4 0 115.2 302.933333 0 422.4zM89.6 622.933333c17.066667-17.066667 42.666667-17.066667 59.733333 0L422.4 896c17.066667 17.066667 17.066667 42.666667 0 59.733333-17.066667 17.066667-42.666667 17.066667-59.733333 0L89.6 682.666667c-17.066667-17.066667-17.066667-42.666667 0-59.733334z"  /><path fill="#2c2c2c" d="M379.733333 665.6c17.066667 17.066667 17.066667 42.666667 0 59.733333l-273.066666 273.066667c-17.066667 17.066667-42.666667 17.066667-59.733334 0-17.066667-17.066667-17.066667-42.666667 0-59.733333l273.066667-273.066667c17.066667-17.066667 42.666667-17.066667 59.733333 0z"  /></svg>