<?xml version="1.0" standalone="no"?><!DOCTYPE svg PUBLIC "-//W3C//DTD SVG 1.1//EN" "http://www.w3.org/Graphics/SVG/1.1/DTD/svg11.dtd"><svg class="icon" width="200px" height="200.00px" viewBox="0 0 1024 1024" version="1.1" xmlns="http://www.w3.org/2000/svg"><path fill="#2c2c2c" d="M426.666667 130.346667C426.666667 40.533333 310.442667 8.96 267.178667 87.082667L176.213333 251.178667a44.373333 44.373333 0 0 0 16 59.690666A42.069333 42.069333 0 0 0 250.453333 294.4L341.333333 130.346667v797.525333c0 24.192 19.114667 43.776 42.666667 43.776s42.666667-19.626667 42.666667-43.776V130.346667z m170.666666 763.306666c0 89.856 116.224 121.386667 159.530667 43.264l90.88-164.096a44.373333 44.373333 0 0 0-16-59.690666 42.112 42.112 0 0 0-58.154667 16.426666L682.666667 893.653333V96.128c0-24.192-19.157333-43.776-42.666667-43.776-23.594667 0-42.666667 19.626667-42.666667 43.776v797.482667z"  /></svg>