<?xml version="1.0" standalone="no"?><!DOCTYPE svg PUBLIC "-//W3C//DTD SVG 1.1//EN" "http://www.w3.org/Graphics/SVG/1.1/DTD/svg11.dtd"><svg class="icon" width="200px" height="200.00px" viewBox="0 0 1024 1024" version="1.1" xmlns="http://www.w3.org/2000/svg"><path fill="#2c2c2c" d="M1024 494.933333v-128c0-46.933333-38.4-85.333333-85.333333-85.333333H85.333333c-46.933333 0-85.333333 38.4-85.333333 85.333333v128c72.533333 0 128 55.466667 128 128s-55.466667 128-128 128v128c0 46.933333 38.4 85.333333 85.333333 85.333334h853.333334c46.933333 0 85.333333-38.4 85.333333-85.333334v-128c-72.533333 0-128-55.466667-128-128 0-68.266667 55.466667-128 128-128z m-85.333333 324.266667v59.733333H85.333333v-59.733333c76.8-34.133333 128-106.666667 128-196.266667 0-89.6-51.2-162.133333-128-196.266666V366.933333h853.333334V426.666667c-76.8 34.133333-128 106.666667-128 196.266666 0 89.6 51.2 162.133333 128 196.266667z"  /><path fill="#2c2c2c" d="M256 516.266667c0-25.6 17.066667-42.666667 42.666667-42.666667h426.666666c25.6 0 42.666667 17.066667 42.666667 42.666667s-17.066667 42.666667-42.666667 42.666666H298.666667c-25.6 0-42.666667-17.066667-42.666667-42.666666zM256 729.6c0-25.6 17.066667-42.666667 42.666667-42.666667h213.333333c25.6 0 42.666667 17.066667 42.666667 42.666667s-17.066667 42.666667-42.666667 42.666667H298.666667c-25.6 0-42.666667-17.066667-42.666667-42.666667zM733.866667 153.6c-8.533333-21.333333-34.133333-34.133333-55.466667-25.6L89.6 366.933333C68.266667 375.466667 42.666667 366.933333 34.133333 341.333333c-8.533333-21.333333 0-46.933333 25.6-55.466666l588.8-234.666667c68.266667-25.6 140.8 4.266667 166.4 72.533333l59.733334 157.866667c8.533333 21.333333-4.266667 46.933333-25.6 55.466667-21.333333 8.533333-46.933333-4.266667-55.466667-25.6l-59.733333-157.866667z"  /></svg>