<?xml version="1.0" standalone="no"?><!DOCTYPE svg PUBLIC "-//W3C//DTD SVG 1.1//EN" "http://www.w3.org/Graphics/SVG/1.1/DTD/svg11.dtd"><svg class="icon" width="200px" height="200.00px" viewBox="0 0 1024 1024" version="1.1" xmlns="http://www.w3.org/2000/svg"><path fill="#2c2c2c" d="M810.666667 42.666667H213.333333C119.466667 42.666667 42.666667 119.466667 42.666667 213.333333v640c0 93.866667 76.8 170.666667 170.666666 170.666667h597.333334c93.866667 0 170.666667-76.8 170.666666-170.666667V213.333333c0-93.866667-76.8-170.666667-170.666666-170.666666z m85.333333 810.666666c0 46.933333-38.4 85.333333-85.333333 85.333334H213.333333c-46.933333 0-85.333333-38.4-85.333333-85.333334V213.333333c0-46.933333 38.4-85.333333 85.333333-85.333333h597.333334c46.933333 0 85.333333 38.4 85.333333 85.333333v640z"  /><path fill="#2c2c2c" d="M298.666667 0c25.6 0 42.666667 17.066667 42.666666 42.666667v85.333333c0 25.6-17.066667 42.666667-42.666666 42.666667s-42.666667-17.066667-42.666667-42.666667V42.666667c0-25.6 17.066667-42.666667 42.666667-42.666667zM725.333333 0c25.6 0 42.666667 17.066667 42.666667 42.666667v85.333333c0 25.6-17.066667 42.666667-42.666667 42.666667s-42.666667-17.066667-42.666666-42.666667V42.666667c0-25.6 17.066667-42.666667 42.666666-42.666667zM738.133333 290.133333c17.066667 17.066667 17.066667 42.666667 0 59.733334l-217.6 221.866666c-34.133333 34.133333-93.866667 34.133333-123.733333-4.266666l-106.666667-119.466667c-17.066667-17.066667-12.8-42.666667 4.266667-59.733333 17.066667-17.066667 42.666667-12.8 59.733333 4.266666l106.666667 119.466667 217.6-221.866667c17.066667-17.066667 42.666667-17.066667 59.733333 0zM238.933333 750.933333c0-25.6 17.066667-42.666667 42.666667-42.666666h469.333333c25.6 0 42.666667 17.066667 42.666667 42.666666s-17.066667 42.666667-42.666667 42.666667h-469.333333c-25.6 0-42.666667-21.333333-42.666667-42.666667z"  /></svg>