<?xml version="1.0" standalone="no"?><!DOCTYPE svg PUBLIC "-//W3C//DTD SVG 1.1//EN" "http://www.w3.org/Graphics/SVG/1.1/DTD/svg11.dtd"><svg class="icon" width="200px" height="200.00px" viewBox="0 0 1024 1024" version="1.1" xmlns="http://www.w3.org/2000/svg"><path fill="#2c2c2c" d="M128 170.666667h341.333333a42.666667 42.666667 0 1 0 0-85.333334H128a85.333333 85.333333 0 0 0-85.333333 85.333334v768a85.333333 85.333333 0 0 0 85.333333 85.333333h768a85.333333 85.333333 0 0 0 85.333333-85.333333v-341.333334a42.666667 42.666667 0 1 0-85.333333 0v341.333334H128V170.666667z m537.429333-42.666667a42.666667 42.666667 0 0 1 42.666667-42.666667h187.093333a85.333333 85.333333 0 0 1 85.333334 85.333334v182.442666a42.666667 42.666667 0 1 1-85.333334 0V240.170667L456.533333 669.909333a42.666667 42.666667 0 0 1-59.733333-60.970666L844.202667 170.666667h-136.106667a42.666667 42.666667 0 0 1-42.666667-42.666667z"  /></svg>