<?xml version="1.0" standalone="no"?><!DOCTYPE svg PUBLIC "-//W3C//DTD SVG 1.1//EN" "http://www.w3.org/Graphics/SVG/1.1/DTD/svg11.dtd"><svg class="icon" width="200px" height="200.00px" viewBox="0 0 1024 1024" version="1.1" xmlns="http://www.w3.org/2000/svg"><path fill="#2c2c2c" d="M576.554667 43.690667a85.333333 85.333333 0 0 0-120.704-2.005334l-101.546667 98.346667a42.666667 42.666667 0 0 0 59.392 61.269333l52.522667-50.858666v270.549333a42.666667 42.666667 0 0 0 85.333333 0V140.586667l57.770667 59.733333a42.666667 42.666667 0 0 0 61.354666-59.306667l-94.122666-97.322666z"  /><path fill="#2c2c2c" d="M853.333333 256v682.666667H170.666667V256h85.333333v-0.426667a42.666667 42.666667 0 0 0 0-84.48V170.666667H170.666667a85.333333 85.333333 0 0 0-85.333334 85.333333v682.666667a85.333333 85.333333 0 0 0 85.333334 85.333333h682.666666a85.333333 85.333333 0 0 0 85.333334-85.333333V256a85.333333 85.333333 0 0 0-85.333334-85.333333h-85.333333a42.666667 42.666667 0 1 0 0 85.333333h85.333333z"  /><path fill="#2c2c2c" d="M277.333333 597.333333a42.666667 42.666667 0 0 1 42.666667-42.666666h384a42.666667 42.666667 0 1 1 0 85.333333h-384a42.666667 42.666667 0 0 1-42.666667-42.666667zM320 768a42.666667 42.666667 0 1 0 0 85.333333h384a42.666667 42.666667 0 1 0 0-85.333333h-384z"  /></svg>