<?xml version="1.0" standalone="no"?><!DOCTYPE svg PUBLIC "-//W3C//DTD SVG 1.1//EN" "http://www.w3.org/Graphics/SVG/1.1/DTD/svg11.dtd"><svg class="icon" width="200px" height="200.00px" viewBox="0 0 1024 1024" version="1.1" xmlns="http://www.w3.org/2000/svg"><path fill="#2c2c2c" d="M853.333333 42.666667H170.666667C76.8 42.666667 0 119.466667 0 213.333333v597.333334c0 93.866667 76.8 170.666667 170.666667 170.666666h682.666666c93.866667 0 170.666667-76.8 170.666667-170.666666V213.333333c0-93.866667-76.8-170.666667-170.666667-170.666666z m85.333334 768c0 46.933333-38.4 85.333333-85.333334 85.333333H170.666667c-46.933333 0-85.333333-38.4-85.333334-85.333333V213.333333c0-46.933333 38.4-85.333333 85.333334-85.333333h682.666666c46.933333 0 85.333333 38.4 85.333334 85.333333v597.333334z"  /><path fill="#2c2c2c" d="M512 298.666667H0v426.666666h512c46.933333 0 85.333333-38.4 85.333333-85.333333V384c0-46.933333-38.4-85.333333-85.333333-85.333333z m0 341.333333H85.333333V384h426.666667v256z"  /><path fill="#2c2c2c" d="M426.666667 512c0 25.6-17.066667 42.666667-42.666667 42.666667s-42.666667-17.066667-42.666667-42.666667 17.066667-42.666667 42.666667-42.666667 42.666667 17.066667 42.666667 42.666667z"  /></svg>