<?xml version="1.0" standalone="no"?><!DOCTYPE svg PUBLIC "-//W3C//DTD SVG 1.1//EN" "http://www.w3.org/Graphics/SVG/1.1/DTD/svg11.dtd"><svg class="icon" width="200px" height="200.00px" viewBox="0 0 1024 1024" version="1.1" xmlns="http://www.w3.org/2000/svg"><path fill="#2c2c2c" d="M925.866667 196.266667c-51.2 4.266667-110.933333 0-157.866667-8.533334s-85.333333-29.866667-128-46.933333c-38.4-17.066667-76.8-38.4-115.2-46.933333-145.066667-38.4-396.8 8.533333-396.8 8.533333v640s34.133333-4.266667 85.333333-12.8c85.333333-8.533333 221.866667-21.333333 311.466667 0 42.666667 8.533333 81.066667 29.866667 115.2 46.933333 38.4 21.333333 81.066667 38.4 128 46.933334 55.466667 12.8 128 8.533333 179.2 8.533333 42.666667-4.266667 76.8-38.4 76.8-81.066667v-469.333333c0-51.2-46.933333-89.6-98.133333-85.333333z m12.8 550.4c-51.2 4.266667-110.933333 4.266667-153.6-4.266667-29.866667-8.533333-59.733333-21.333333-102.4-38.4 0 0-4.266667 0-4.266667-4.266667-38.4-17.066667-81.066667-38.4-132.266667-51.2-85.333333-21.333333-200.533333-17.066667-281.6-8.533333-17.066667 0-34.133333 0-51.2 4.266667v-469.333334c21.333333-4.266667 42.666667-4.266667 64-8.533333 81.066667-8.533333 166.4-8.533333 226.133334 4.266667 34.133333 8.533333 64 21.333333 102.4 42.666666 38.4 17.066667 85.333333 42.666667 140.8 55.466667 59.733333 12.8 128 12.8 179.2 8.533333 4.266667 0 4.266667 0 4.266666 4.266667v465.066667z"  /><path fill="#2c2c2c" d="M170.666667 0c25.6 0 42.666667 17.066667 42.666666 42.666667v896c0 25.6-17.066667 42.666667-42.666666 42.666666s-42.666667-17.066667-42.666667-42.666666V42.666667c0-25.6 17.066667-42.666667 42.666667-42.666667z"  /><path fill="#2c2c2c" d="M0 981.333333c0-25.6 17.066667-42.666667 42.666667-42.666666h256c25.6 0 42.666667 17.066667 42.666666 42.666666s-17.066667 42.666667-42.666666 42.666667H42.666667c-25.6 0-42.666667-17.066667-42.666667-42.666667z"  /></svg>