<?xml version="1.0" standalone="no"?><!DOCTYPE svg PUBLIC "-//W3C//DTD SVG 1.1//EN" "http://www.w3.org/Graphics/SVG/1.1/DTD/svg11.dtd"><svg class="icon" width="200px" height="200.00px" viewBox="0 0 1024 1024" version="1.1" xmlns="http://www.w3.org/2000/svg"><path fill="#2c2c2c" d="M298.666667 213.333333H213.333333v85.333334h85.333334V213.333333z"  /><path fill="#2c2c2c" d="M384 42.666667H128c-46.933333 0-85.333333 38.4-85.333333 85.333333v256c0 46.933333 38.4 85.333333 85.333333 85.333333h256c46.933333 0 85.333333-38.4 85.333333-85.333333V128c0-46.933333-38.4-85.333333-85.333333-85.333333z m0 341.333333H128V128h256v256z"  /><path fill="#2c2c2c" d="M298.666667 725.333333H213.333333v85.333334h85.333334v-85.333334z"  /><path fill="#2c2c2c" d="M384 554.666667H128c-46.933333 0-85.333333 38.4-85.333333 85.333333v256c0 46.933333 38.4 85.333333 85.333333 85.333333h256c46.933333 0 85.333333-38.4 85.333333-85.333333v-256c0-46.933333-38.4-85.333333-85.333333-85.333333z m0 341.333333H128v-256h256v256z"  /><path fill="#2c2c2c" d="M725.333333 213.333333h85.333334v85.333334h-85.333334V213.333333z"  /><path fill="#2c2c2c" d="M896 42.666667h-256c-46.933333 0-85.333333 38.4-85.333333 85.333333v256c0 46.933333 38.4 85.333333 85.333333 85.333333h256c46.933333 0 85.333333-38.4 85.333333-85.333333V128c0-46.933333-38.4-85.333333-85.333333-85.333333z m0 341.333333h-256V128h256v256z"  /><path fill="#2c2c2c" d="M597.333333 554.666667c25.6 0 42.666667 17.066667 42.666667 42.666666v341.333334c0 25.6-17.066667 42.666667-42.666667 42.666666s-42.666667-17.066667-42.666666-42.666666v-341.333334c0-25.6 17.066667-42.666667 42.666666-42.666666zM981.333333 597.333333c0-25.6-17.066667-42.666667-42.666666-42.666666s-42.666667 17.066667-42.666667 42.666666v341.333334c0 25.6 17.066667 42.666667 42.666667 42.666666s42.666667-17.066667 42.666666-42.666666v-341.333334zM768 554.666667c25.6 0 42.666667 17.066667 42.666667 42.666666v85.333334c0 25.6-17.066667 42.666667-42.666667 42.666666s-42.666667-17.066667-42.666667-42.666666v-85.333334c0-25.6 17.066667-42.666667 42.666667-42.666666zM810.666667 810.666667c0-25.6-17.066667-42.666667-42.666667-42.666667s-42.666667 17.066667-42.666667 42.666667v128c0 25.6 17.066667 42.666667 42.666667 42.666666s42.666667-17.066667 42.666667-42.666666v-128z"  /></svg>