<?xml version="1.0" standalone="no"?><!DOCTYPE svg PUBLIC "-//W3C//DTD SVG 1.1//EN" "http://www.w3.org/Graphics/SVG/1.1/DTD/svg11.dtd"><svg class="icon" width="200px" height="200.00px" viewBox="0 0 1024 1024" version="1.1" xmlns="http://www.w3.org/2000/svg"><path fill="#2c2c2c" d="M341.333333 42.666667H128c-46.933333 0-85.333333 38.4-85.333333 85.333333v213.333333c0 46.933333 38.4 85.333333 85.333333 85.333334h213.333333c46.933333 0 85.333333-38.4 85.333334-85.333334V128c0-46.933333-38.4-85.333333-85.333334-85.333333z m0 298.666666H128V128h213.333333v213.333333zM341.333333 597.333333H128c-46.933333 0-85.333333 38.4-85.333333 85.333334v213.333333c0 46.933333 38.4 85.333333 85.333333 85.333333h213.333333c46.933333 0 85.333333-38.4 85.333334-85.333333v-213.333333c0-46.933333-38.4-85.333333-85.333334-85.333334z m0 298.666667H128v-213.333333h213.333333v213.333333zM896 42.666667h-213.333333c-46.933333 0-85.333333 38.4-85.333334 85.333333v213.333333c0 46.933333 38.4 85.333333 85.333334 85.333334h213.333333c46.933333 0 85.333333-38.4 85.333333-85.333334V128c0-46.933333-38.4-85.333333-85.333333-85.333333z m0 298.666666h-213.333333V128h213.333333v213.333333zM896 597.333333h-213.333333c-46.933333 0-85.333333 38.4-85.333334 85.333334v213.333333c0 46.933333 38.4 85.333333 85.333334 85.333333h213.333333c46.933333 0 85.333333-38.4 85.333333-85.333333v-213.333333c0-46.933333-38.4-85.333333-85.333333-85.333334z m0 298.666667h-213.333333v-213.333333h213.333333v213.333333z"  /><path fill="#2c2c2c" d="M85.333333 469.333333c-25.6 0-42.666667 17.066667-42.666666 42.666667s17.066667 42.666667 42.666666 42.666667h384v170.666666c0 25.6 17.066667 42.666667 42.666667 42.666667s42.666667-17.066667 42.666667-42.666667v-170.666666h213.333333c25.6 0 42.666667-17.066667 42.666667-42.666667s-17.066667-42.666667-42.666667-42.666667h-213.333333V298.666667c0-25.6-17.066667-42.666667-42.666667-42.666667s-42.666667 17.066667-42.666667 42.666667v170.666666H85.333333zM554.666667 42.666667h-85.333334v85.333333h85.333334V42.666667zM896 469.333333h85.333333v85.333334h-85.333333v-85.333334zM554.666667 981.333333v-85.333333h-85.333334v85.333333h85.333334z"  /></svg>