<?xml version="1.0" standalone="no"?><!DOCTYPE svg PUBLIC "-//W3C//DTD SVG 1.1//EN" "http://www.w3.org/Graphics/SVG/1.1/DTD/svg11.dtd"><svg class="icon" width="200px" height="200.00px" viewBox="0 0 1024 1024" version="1.1" xmlns="http://www.w3.org/2000/svg"><path fill="#2c2c2c" d="M855.466667 628.821333a362.666667 362.666667 0 1 1-32.682667-303.872l-96.256-31.573333a42.666667 42.666667 0 1 0-26.581333 81.109333l144.768 47.488a85.333333 85.333333 0 0 0 110.677333-66.602666l26.538667-154.069334a42.666667 42.666667 0 0 0-84.053334-14.506666l-13.226666 76.501333A447.573333 447.573333 0 0 0 512 64C264.576 64 64 264.576 64 512S264.576 960 512 960c197.162667 0 364.629333-127.402667 424.490667-304.341333a557.056 557.056 0 0 0 2.986666-9.173334h-0.512a42.581333 42.581333 0 0 0-83.285333-17.322666l-0.256-0.341334z"  /></svg>