<?xml version="1.0" standalone="no"?><!DOCTYPE svg PUBLIC "-//W3C//DTD SVG 1.1//EN" "http://www.w3.org/Graphics/SVG/1.1/DTD/svg11.dtd"><svg class="icon" width="200px" height="200.00px" viewBox="0 0 1024 1024" version="1.1" xmlns="http://www.w3.org/2000/svg"><path fill="#2c2c2c" d="M170.666667 42.666667c-25.6 0-42.666667 17.066667-42.666667 42.666666s17.066667 42.666667 42.666667 42.666667h682.666666c25.6 0 42.666667-17.066667 42.666667-42.666667s-17.066667-42.666667-42.666667-42.666666H170.666667zM85.333333 256c0-25.6 17.066667-42.666667 42.666667-42.666667h768c25.6 0 42.666667 17.066667 42.666667 42.666667s-17.066667 42.666667-42.666667 42.666667H128c-25.6 0-42.666667-17.066667-42.666667-42.666667z"  /><path fill="#2c2c2c" d="M896 384H128c-46.933333 0-85.333333 38.4-85.333333 85.333333v426.666667c0 46.933333 38.4 85.333333 85.333333 85.333333h768c46.933333 0 85.333333-38.4 85.333333-85.333333V469.333333c0-46.933333-38.4-85.333333-85.333333-85.333333z m0 512H128V469.333333h768v426.666667z"  /></svg>