<?xml version="1.0" standalone="no"?><!DOCTYPE svg PUBLIC "-//W3C//DTD SVG 1.1//EN" "http://www.w3.org/Graphics/SVG/1.1/DTD/svg11.dtd"><svg class="icon" width="200px" height="200.00px" viewBox="0 0 1024 1024" version="1.1" xmlns="http://www.w3.org/2000/svg"><path fill="#2c2c2c" d="M75.562667 413.354667l0.042666-1.749334h-0.298666l0.426666-1.962666c0.426667-4.736 1.578667-9.301333 3.413334-13.482667C130.133333 204.885333 304.64 64 512 64c172.373333 0 322.090667 97.408 396.970667 240.213333l6.613333-43.562666a42.666667 42.666667 0 1 1 84.352 12.8l-17.237333 113.92a85.333333 85.333333 0 0 1-112.085334 67.882666l-109.226666-37.461333a42.666667 42.666667 0 0 1 27.690666-80.682667l49.493334 16.938667A362.837333 362.837333 0 0 0 162.389333 415.232a43.434667 43.434667 0 0 1-86.826666-1.877333zM862.037333 607.189333a362.837333 362.837333 0 0 1-673.962666 68.138667l47.872 32.341333a42.666667 42.666667 0 1 0 47.786666-70.656l-95.402666-64.554666a85.333333 85.333333 0 0 0-125.909334 36.266666L15.872 714.410667a42.666667 42.666667 0 1 0 78.08 34.389333l16.64-37.674667A448 448 0 0 0 512 960c208.768 0 384.170667-142.805333 433.92-336.042667a43.946667 43.946667 0 1 0-83.626667-16.768h-0.256z"  /></svg>