<?xml version="1.0" standalone="no"?><!DOCTYPE svg PUBLIC "-//W3C//DTD SVG 1.1//EN" "http://www.w3.org/Graphics/SVG/1.1/DTD/svg11.dtd"><svg class="icon" width="200px" height="200.00px" viewBox="0 0 1024 1024" version="1.1" xmlns="http://www.w3.org/2000/svg"><path fill="#2c2c2c" d="M1019.733333 750.933333c0-12.8-4.266667-25.6-4.266666-38.4v-8.533333c-64-273.066667-315.733333-358.4-494.933334-366.933333h-46.933333V183.466667c0-46.933333-46.933333-72.533333-76.8-46.933334L21.333333 465.066667c-25.6 21.333333-25.6 68.266667 0 89.6l375.466667 328.533333c29.866667 25.6 76.8 0 76.8-46.933333v-166.4c128-51.2 320 0 460.8 85.333333 0 0 4.266667 0 4.266667 4.266667 8.533333 8.533333 21.333333 12.8 29.866666 21.333333 4.266667 4.266667 12.8 8.533333 17.066667 12.8 12.8 12.8 38.4 0 34.133333-17.066667 4.266667-8.533333 4.266667-17.066667 0-25.6z m-264.533333-162.133333c-102.4-25.6-217.6-34.133333-315.733333 4.266667l-51.2 21.333333v149.333333L98.133333 512l290.133334-251.733333v170.666666l89.6-4.266666c81.066667-4.266667 192 12.8 285.866666 68.266666 55.466667 34.133333 106.666667 81.066667 136.533334 149.333334-46.933333-21.333333-93.866667-42.666667-145.066667-55.466667z"  /></svg>