<?xml version="1.0" standalone="no"?><!DOCTYPE svg PUBLIC "-//W3C//DTD SVG 1.1//EN" "http://www.w3.org/Graphics/SVG/1.1/DTD/svg11.dtd"><svg class="icon" width="200px" height="200.00px" viewBox="0 0 1024 1024" version="1.1" xmlns="http://www.w3.org/2000/svg"><path fill="#2c2c2c" d="M119.850667 810.069333v0.725334c-19.626667 3.712-34.56 21.205333-34.56 42.24s14.933333 38.570667 34.56 42.24V896h527.786666c174.976 0 316.842667-144.256 316.842667-322.218667 0-177.962667-141.866667-322.261333-316.885333-322.261333H175.104l59.733333-46.421333c18.56-14.378667 22.101333-41.386667 7.936-60.202667a41.813333 41.813333 0 0 0-59.221333-8.106667L59.050667 233.6a86.826667 86.826667 0 0 0-2.858667 134.229333l123.306667 104.704a41.813333 41.813333 0 0 0 59.52-5.461333 43.477333 43.477333 0 0 0-5.376-60.501333L152.32 337.450667h495.36c128.298667 0 232.362667 105.813333 232.362667 236.330666 0 130.474667-104.064 236.288-232.405334 236.288H119.808z"  /></svg>