<?xml version="1.0" standalone="no"?><!DOCTYPE svg PUBLIC "-//W3C//DTD SVG 1.1//EN" "http://www.w3.org/Graphics/SVG/1.1/DTD/svg11.dtd"><svg class="icon" width="200px" height="200.00px" viewBox="0 0 1024 1024" version="1.1" xmlns="http://www.w3.org/2000/svg"><path fill="#2c2c2c" d="M930.005333 213.930667v-0.725334c19.626667-3.669333 34.517333-21.205333 34.517334-42.24s-14.890667-38.570667-34.56-42.24V128H359.594667C184.533333 128 42.666667 272.256 42.666667 450.218667c0 177.962667 141.866667 322.261333 316.885333 322.261333h429.824l-59.733333 46.421333c-18.56 14.378667-22.101333 41.386667-7.936 60.202667a41.813333 41.813333 0 0 0 59.221333 8.106667l124.544-96.768a86.826667 86.826667 0 0 0 2.858667-134.229334l-123.306667-104.704a41.813333 41.813333 0 0 0-59.52 5.461334 43.477333 43.477333 0 0 0 5.333333 60.501333l81.365334 69.077333H359.552c-128.341333 0-232.362667-105.813333-232.362667-236.330666 0-130.474667 104.021333-236.288 232.362667-236.288h570.453333z"  /></svg>