<?xml version="1.0" standalone="no"?><!DOCTYPE svg PUBLIC "-//W3C//DTD SVG 1.1//EN" "http://www.w3.org/Graphics/SVG/1.1/DTD/svg11.dtd"><svg class="icon" width="200px" height="200.00px" viewBox="0 0 1024 1024" version="1.1" xmlns="http://www.w3.org/2000/svg"><path fill="#2c2c2c" d="M298.666667 4.266667c25.6 0 42.666667 17.066667 42.666666 42.666666v170.666667c0 25.6-17.066667 42.666667-42.666666 42.666667s-42.666667-17.066667-42.666667-42.666667v-170.666667c0-21.333333 17.066667-42.666667 42.666667-42.666666zM170.666667 597.333333c0-25.6 17.066667-42.666667 42.666666-42.666666h85.333334c25.6 0 42.666667 17.066667 42.666666 42.666666s-17.066667 42.666667-42.666666 42.666667H213.333333c-25.6 0-42.666667-17.066667-42.666666-42.666667zM426.666667 597.333333c0-25.6 17.066667-42.666667 42.666666-42.666666h85.333334c25.6 0 42.666667 17.066667 42.666666 42.666666s-17.066667 42.666667-42.666666 42.666667h-85.333334c-25.6 0-42.666667-17.066667-42.666666-42.666667zM725.333333 554.666667c-25.6 0-42.666667 17.066667-42.666666 42.666666s17.066667 42.666667 42.666666 42.666667h85.333334c25.6 0 42.666667-17.066667 42.666666-42.666667s-17.066667-42.666667-42.666666-42.666666h-85.333334zM213.333333 768c-25.6 0-42.666667 17.066667-42.666666 42.666667s17.066667 42.666667 42.666666 42.666666h85.333334c25.6 0 42.666667-17.066667 42.666666-42.666666s-17.066667-42.666667-42.666666-42.666667H213.333333zM469.333333 768c-25.6 0-42.666667 17.066667-42.666666 42.666667s17.066667 42.666667 42.666666 42.666666h85.333334c25.6 0 42.666667-17.066667 42.666666-42.666666s-17.066667-42.666667-42.666666-42.666667h-85.333334zM682.666667 810.666667c0-25.6 17.066667-42.666667 42.666666-42.666667h85.333334c25.6 0 42.666667 17.066667 42.666666 42.666667s-17.066667 42.666667-42.666666 42.666666h-85.333334c-25.6 0-42.666667-17.066667-42.666666-42.666666z"  /><path fill="#2c2c2c" d="M853.333333 85.333333h-42.666666v85.333334h42.666666c46.933333 0 85.333333 38.4 85.333334 85.333333v85.333333H85.333333V256c0-46.933333 38.4-85.333333 85.333334-85.333333h42.666666V85.333333H170.666667C76.8 85.333333 0 162.133333 0 256v597.333333c0 93.866667 76.8 170.666667 170.666667 170.666667h682.666666c93.866667 0 170.666667-76.8 170.666667-170.666667V256c0-93.866667-76.8-170.666667-170.666667-170.666667z m85.333334 768c0 46.933333-38.4 85.333333-85.333334 85.333334H170.666667c-46.933333 0-85.333333-38.4-85.333334-85.333334V426.666667h853.333334v426.666666z"  /><path fill="#2c2c2c" d="M384 85.333333v85.333334h256V85.333333H384zM768 46.933333c0-25.6-17.066667-42.666667-42.666667-42.666666s-42.666667 17.066667-42.666666 42.666666v170.666667c0 25.6 17.066667 42.666667 42.666666 42.666667s42.666667-17.066667 42.666667-42.666667v-170.666667z"  /></svg>