<?xml version="1.0" standalone="no"?><!DOCTYPE svg PUBLIC "-//W3C//DTD SVG 1.1//EN" "http://www.w3.org/Graphics/SVG/1.1/DTD/svg11.dtd"><svg class="icon" width="200px" height="200.00px" viewBox="0 0 1024 1024" version="1.1" xmlns="http://www.w3.org/2000/svg"><path fill="#2c2c2c" d="M725.333333 426.666667c-166.4 0-298.666667 132.266667-298.666666 298.666666s132.266667 298.666667 298.666666 298.666667 298.666667-132.266667 298.666667-298.666667-132.266667-298.666667-298.666667-298.666666z m0 512c-119.466667 0-213.333333-93.866667-213.333333-213.333334s93.866667-213.333333 213.333333-213.333333 213.333333 93.866667 213.333334 213.333333-93.866667 213.333333-213.333334 213.333334z"  /><path fill="#2c2c2c" d="M128 85.333333h597.333333v341.333334c29.866667 0 59.733333 4.266667 85.333334 12.8V85.333333c0-46.933333-38.4-85.333333-85.333334-85.333333H128C81.066667 0 42.666667 38.4 42.666667 85.333333v810.666667c0 46.933333 38.4 85.333333 85.333333 85.333333h443.733333c-34.133333-21.333333-68.266667-51.2-89.6-85.333333H128V85.333333z"  /><path fill="#2c2c2c" d="M725.333333 533.333333c25.6 0 42.666667 17.066667 42.666667 42.666667V682.666667h64c25.6 0 42.666667 17.066667 42.666667 42.666666s-17.066667 42.666667-42.666667 42.666667h-85.333333c-34.133333 0-64-29.866667-64-64v-128c0-25.6 17.066667-42.666667 42.666666-42.666667zM192 256c0-25.6 17.066667-42.666667 42.666667-42.666667h384c25.6 0 42.666667 17.066667 42.666666 42.666667s-17.066667 42.666667-42.666666 42.666667h-384c-25.6 0-42.666667-17.066667-42.666667-42.666667zM192 503.466667c0-25.6 17.066667-42.666667 42.666667-42.666667h128c25.6 0 42.666667 17.066667 42.666666 42.666667s-17.066667 42.666667-42.666666 42.666666h-128c-25.6 0-42.666667-17.066667-42.666667-42.666666zM192 738.133333c0-25.6 17.066667-42.666667 42.666667-42.666666h128c25.6 0 42.666667 17.066667 42.666666 42.666666s-17.066667 42.666667-42.666666 42.666667h-128c-25.6 0-42.666667-17.066667-42.666667-42.666667z"  /></svg>