<?xml version="1.0" standalone="no"?><!DOCTYPE svg PUBLIC "-//W3C//DTD SVG 1.1//EN" "http://www.w3.org/Graphics/SVG/1.1/DTD/svg11.dtd"><svg class="icon" width="200px" height="200.00px" viewBox="0 0 1024 1024" version="1.1" xmlns="http://www.w3.org/2000/svg"><path fill="#2c2c2c" d="M213.333333 597.333333c0-25.6 17.066667-42.666667 42.666667-42.666666h298.666667c25.6 0 42.666667 17.066667 42.666666 42.666666s-17.066667 42.666667-42.666666 42.666667H256c-25.6 0-42.666667-17.066667-42.666667-42.666667zM256 725.333333c-25.6 0-42.666667 17.066667-42.666667 42.666667s17.066667 42.666667 42.666667 42.666667h512c25.6 0 42.666667-17.066667 42.666667-42.666667s-17.066667-42.666667-42.666667-42.666667H256z"  /><path fill="#2c2c2c" d="M955.733333 273.066667l-204.8-204.8c-17.066667-17.066667-38.4-25.6-59.733333-25.6H128c-46.933333 0-85.333333 38.4-85.333333 85.333333v768c0 46.933333 38.4 85.333333 85.333333 85.333333h768c46.933333 0 85.333333-38.4 85.333333-85.333333V332.8c0-21.333333-8.533333-42.666667-25.6-59.733333zM554.666667 128v128H298.666667V128h256z m341.333333 768H128V128h85.333333v128c0 46.933333 38.4 85.333333 85.333334 85.333333h256c46.933333 0 85.333333-38.4 85.333333-85.333333V128h51.2L896 332.8V896z"  /></svg>