<?xml version="1.0" standalone="no"?><!DOCTYPE svg PUBLIC "-//W3C//DTD SVG 1.1//EN" "http://www.w3.org/Graphics/SVG/1.1/DTD/svg11.dtd"><svg class="icon" width="200px" height="200.00px" viewBox="0 0 1024 1024" version="1.1" xmlns="http://www.w3.org/2000/svg"><path fill="#2c2c2c" d="M597.333333 213.333333c0-25.6-17.066667-42.666667-42.666666-42.666666s-42.666667 17.066667-42.666667 42.666666v128c0 25.6 17.066667 42.666667 42.666667 42.666667s42.666667-17.066667 42.666666-42.666667V213.333333z"  /><path fill="#2c2c2c" d="M896 42.666667H128c-46.933333 0-85.333333 38.4-85.333333 85.333333v768c0 46.933333 38.4 85.333333 85.333333 85.333333h768c46.933333 0 85.333333-38.4 85.333333-85.333333V128c0-46.933333-38.4-85.333333-85.333333-85.333333zM341.333333 128h341.333334v298.666667H341.333333V128z m554.666667 768H128V128h128v298.666667c0 46.933333 38.4 85.333333 85.333333 85.333333h341.333334c46.933333 0 85.333333-38.4 85.333333-85.333333V128h128v768z"  /></svg>