<?xml version="1.0" standalone="no"?><!DOCTYPE svg PUBLIC "-//W3C//DTD SVG 1.1//EN" "http://www.w3.org/Graphics/SVG/1.1/DTD/svg11.dtd"><svg class="icon" width="200px" height="200.00px" viewBox="0 0 1024 1024" version="1.1" xmlns="http://www.w3.org/2000/svg"><path fill="#2c2c2c" d="M384 85.333333a42.666667 42.666667 0 0 0-42.666667-42.666666H128a85.333333 85.333333 0 0 0-85.333333 85.333333v213.333333a42.666667 42.666667 0 1 0 85.333333 0V128h213.333333a42.666667 42.666667 0 0 0 42.666667-42.666667zM640 85.333333a42.666667 42.666667 0 0 1 42.666667-42.666666h213.333333a85.333333 85.333333 0 0 1 85.333333 85.333333v213.333333a42.666667 42.666667 0 1 1-85.333333 0V128h-213.333333a42.666667 42.666667 0 0 1-42.666667-42.666667zM682.666667 981.333333a42.666667 42.666667 0 1 1 0-85.333333h213.333333v-213.333333a42.666667 42.666667 0 1 1 85.333333 0v213.333333a85.333333 85.333333 0 0 1-85.333333 85.333333h-213.333333zM384 938.666667a42.666667 42.666667 0 0 1-42.666667 42.666666H128a85.333333 85.333333 0 0 1-85.333333-85.333333v-213.333333a42.666667 42.666667 0 1 1 85.333333 0v213.333333h213.333333a42.666667 42.666667 0 0 1 42.666667 42.666667zM341.333333 298.666667a42.666667 42.666667 0 0 0-85.333333 0v426.666666a42.666667 42.666667 0 1 0 85.333333 0V298.666667zM512 256a42.666667 42.666667 0 0 1 42.666667 42.666667v426.666666a42.666667 42.666667 0 1 1-85.333334 0V298.666667a42.666667 42.666667 0 0 1 42.666667-42.666667zM768 298.666667a42.666667 42.666667 0 1 0-85.333333 0v426.666666a42.666667 42.666667 0 1 0 85.333333 0V298.666667z"  /></svg>