<?xml version="1.0" standalone="no"?><!DOCTYPE svg PUBLIC "-//W3C//DTD SVG 1.1//EN" "http://www.w3.org/Graphics/SVG/1.1/DTD/svg11.dtd"><svg class="icon" width="200px" height="200.00px" viewBox="0 0 1024 1024" version="1.1" xmlns="http://www.w3.org/2000/svg"><path fill="#2c2c2c" d="M39.552 447.317333C-7.424 400.298667 11.52 320.256 74.581333 299.221333L835.157333 45.653333c69.888-23.296 136.32 43.178667 113.066667 113.066667L694.613333 919.253333c-21.034667 63.104-101.12 82.048-148.096 35.029334l-135.253333-135.253334a43.392 43.392 0 1 1 58.88-63.701333l0.298667-0.298667 140.032 140.032h0.170666a4.736 4.736 0 0 0 1.962667-0.981333c0.213333-0.170667 0.597333-0.554667 1.024-1.792l215.509333-646.4-485.461333 432.213333v178.176a42.666667 42.666667 0 1 1-85.333333 0v-178.218666a85.333333 85.333333 0 0 1 28.586666-63.701334l531.456-473.173333L101.589333 380.16c-1.28 0.426667-1.621333 0.853333-1.792 1.024a4.693333 4.693333 0 0 0-0.938666 2.005333l-0.042667 0.170667 140.970667 140.970667 0.682666 0.682666 0.341334 0.341334a43.264 43.264 0 0 1-62.976 59.349333l-0.426667 0.426667-137.813333-137.813334z"  /></svg>