<?xml version="1.0" standalone="no"?><!DOCTYPE svg PUBLIC "-//W3C//DTD SVG 1.1//EN" "http://www.w3.org/Graphics/SVG/1.1/DTD/svg11.dtd"><svg class="icon" width="200px" height="200.00px" viewBox="0 0 1024 1024" version="1.1" xmlns="http://www.w3.org/2000/svg"><path fill="#2c2c2c" d="M998.4 469.333333l-204.8-358.4c-17.066667-25.6-42.666667-42.666667-72.533333-42.666666H307.2c-29.866667 0-59.733333 17.066667-72.533333 42.666666L25.6 469.333333c-17.066667 25.6-17.066667 59.733333 0 85.333334l204.8 358.4c17.066667 25.6 42.666667 42.666667 72.533333 42.666666h413.866667c29.866667 0 59.733333-17.066667 72.533333-42.666666l204.8-358.4c21.333333-25.6 21.333333-59.733333 4.266667-85.333334z m-281.6 401.066667H307.2L98.133333 512l204.8-358.4h413.866667l204.8 358.4-204.8 358.4z"  /><path fill="#2c2c2c" d="M512 341.333333c-93.866667 0-170.666667 76.8-170.666667 170.666667s76.8 170.666667 170.666667 170.666667 170.666667-76.8 170.666667-170.666667-76.8-170.666667-170.666667-170.666667z m0 256c-46.933333 0-85.333333-38.4-85.333333-85.333333s38.4-85.333333 85.333333-85.333333 85.333333 38.4 85.333333 85.333333-38.4 85.333333-85.333333 85.333333z"  /></svg>