<?xml version="1.0" standalone="no"?><!DOCTYPE svg PUBLIC "-//W3C//DTD SVG 1.1//EN" "http://www.w3.org/Graphics/SVG/1.1/DTD/svg11.dtd"><svg class="icon" width="200px" height="200.00px" viewBox="0 0 1024 1024" version="1.1" xmlns="http://www.w3.org/2000/svg"><path fill="#2c2c2c" d="M512 298.666667c-119.466667 0-213.333333 93.866667-213.333333 213.333333s93.866667 213.333333 213.333333 213.333333 213.333333-93.866667 213.333333-213.333333-93.866667-213.333333-213.333333-213.333333z m0 341.333333c-72.533333 0-128-55.466667-128-128s55.466667-128 128-128 128 55.466667 128 128-55.466667 128-128 128z"  /><path fill="#2c2c2c" d="M981.333333 384c-59.733333 0-89.6-72.533333-46.933333-115.2 17.066667-17.066667 17.066667-42.666667 0-59.733333l-119.466667-119.466667c-17.066667-17.066667-42.666667-17.066667-59.733333 0-42.666667 42.666667-115.2 12.8-115.2-46.933333 0-25.6-17.066667-42.666667-42.666667-42.666667h-170.666666c-25.6 0-42.666667 17.066667-42.666667 42.666667 0 59.733333-72.533333 89.6-115.2 46.933333-17.066667-17.066667-42.666667-17.066667-59.733333 0L89.6 209.066667c-17.066667 17.066667-17.066667 42.666667 0 59.733333C132.266667 311.466667 102.4 384 42.666667 384c-25.6 0-42.666667 17.066667-42.666667 42.666667v170.666666c0 25.6 17.066667 42.666667 42.666667 42.666667 59.733333 0 89.6 72.533333 46.933333 115.2-17.066667 17.066667-17.066667 42.666667 0 59.733333l119.466667 119.466667c17.066667 17.066667 42.666667 17.066667 59.733333 0 42.666667-42.666667 115.2-12.8 115.2 46.933333 0 25.6 17.066667 42.666667 42.666667 42.666667h170.666666c25.6 0 42.666667-17.066667 42.666667-42.666667 0-59.733333 72.533333-89.6 115.2-46.933333 17.066667 17.066667 42.666667 17.066667 59.733333 0l119.466667-119.466667c17.066667-17.066667 17.066667-42.666667 0-59.733333-42.666667-42.666667-12.8-115.2 46.933333-115.2 25.6 0 42.666667-17.066667 42.666667-42.666667v-170.666666c0-25.6-17.066667-42.666667-42.666667-42.666667z m-42.666666 174.933333c-93.866667 25.6-136.533333 136.533333-89.6 217.6l-68.266667 68.266667c-85.333333-46.933333-192 0-217.6 89.6h-98.133333c-25.6-93.866667-136.533333-136.533333-217.6-89.6l-68.266667-68.266667c46.933333-85.333333 0-192-89.6-217.6v-98.133333c93.866667-25.6 136.533333-136.533333 89.6-217.6l68.266667-68.266667c85.333333 46.933333 192 0 217.6-89.6h98.133333c25.6 93.866667 136.533333 136.533333 217.6 89.6l68.266667 68.266667c-46.933333 85.333333 0 192 89.6 217.6v98.133333z"  /></svg>