<?xml version="1.0" standalone="no"?><!DOCTYPE svg PUBLIC "-//W3C//DTD SVG 1.1//EN" "http://www.w3.org/Graphics/SVG/1.1/DTD/svg11.dtd"><svg class="icon" width="200px" height="200.00px" viewBox="0 0 1024 1024" version="1.1" xmlns="http://www.w3.org/2000/svg"><path fill="#2c2c2c" d="M746.666667 68.266667L213.333333 401.066667c-85.333333 51.2-85.333333 170.666667 0 221.866666l533.333334 332.8c85.333333 51.2 192-12.8 192-110.933333V179.2c0-98.133333-106.666667-157.866667-192-110.933333zM853.333333 844.8c0 34.133333-34.133333 55.466667-64 38.4L256 550.4c-29.866667-17.066667-29.866667-55.466667 0-72.533333l533.333333-332.8c29.866667-17.066667 64 0 64 34.133333v665.6z"  /><path fill="#2c2c2c" d="M128 128c0-25.6-17.066667-42.666667-42.666667-42.666667s-42.666667 17.066667-42.666666 42.666667v768c0 25.6 17.066667 42.666667 42.666666 42.666667s42.666667-17.066667 42.666667-42.666667V128z"  /></svg>