<?xml version="1.0" standalone="no"?><!DOCTYPE svg PUBLIC "-//W3C//DTD SVG 1.1//EN" "http://www.w3.org/Graphics/SVG/1.1/DTD/svg11.dtd"><svg class="icon" width="200px" height="199.22px" viewBox="0 0 1028 1024" version="1.1" xmlns="http://www.w3.org/2000/svg"><path fill="#2c2c2c" d="M853.333333 682.666667c-55.466667 0-106.666667 29.866667-136.533333 72.533333l-358.4-234.666667 371.2-230.4c29.866667 29.866667 72.533333 51.2 123.733333 51.2 93.866667 0 170.666667-76.8 170.666667-170.666666s-76.8-170.666667-170.666667-170.666667-170.666667 76.8-170.666666 170.666667c0 12.8 0 29.866667 4.266666 42.666666l-362.666666 226.133334C298.666667 379.733333 238.933333 341.333333 170.666667 341.333333c-93.866667 0-170.666667 76.8-170.666667 170.666667s76.8 170.666667 170.666667 170.666667c64 0 119.466667-34.133333 149.333333-85.333334l366.933333 238.933334v17.066666c0 93.866667 76.8 170.666667 170.666667 170.666667s170.666667-76.8 170.666667-170.666667-81.066667-170.666667-174.933334-170.666666z m0-597.333334c46.933333 0 85.333333 38.4 85.333334 85.333334s-38.4 85.333333-85.333334 85.333333c-29.866667 0-55.466667-17.066667-72.533333-38.4 0-4.266667-4.266667-8.533333-4.266667-12.8l-4.266666-4.266667c-4.266667-8.533333-4.266667-17.066667-4.266667-29.866666 0-46.933333 38.4-85.333333 85.333333-85.333334zM170.666667 597.333333c-46.933333 0-85.333333-38.4-85.333334-85.333333s38.4-85.333333 85.333334-85.333333 85.333333 38.4 85.333333 85.333333-38.4 85.333333-85.333333 85.333333z m682.666666 341.333334c-46.933333 0-85.333333-38.4-85.333333-85.333334s38.4-85.333333 85.333333-85.333333 85.333333 38.4 85.333334 85.333333-38.4 85.333333-85.333334 85.333334z"  /></svg>