<?xml version="1.0" standalone="no"?><!DOCTYPE svg PUBLIC "-//W3C//DTD SVG 1.1//EN" "http://www.w3.org/Graphics/SVG/1.1/DTD/svg11.dtd"><svg class="icon" width="200px" height="200.00px" viewBox="0 0 1024 1024" version="1.1" xmlns="http://www.w3.org/2000/svg"><path fill="#2c2c2c" d="M554.666667 681.557333c0 24.192-19.114667 43.776-42.666667 43.776s-42.666667-19.626667-42.666667-43.776V171.562667L370.858667 268.373333a41.898667 41.898667 0 0 1-60.330667-1.28 44.544 44.544 0 0 1 1.28-61.866666l140.501333-138.24a83.84 83.84 0 0 1 119.424 1.28l141.098667 144.725333c16.64 17.066667 16.64 44.8 0 61.866667-16.64 17.066667-43.690667 17.066667-60.330667 0L554.666667 174.592v506.965333z"  /><path fill="#2c2c2c" d="M896 384h-85.333333a42.666667 42.666667 0 1 1 0-85.333333h85.333333a85.333333 85.333333 0 0 1 85.333333 85.333333v512a85.333333 85.333333 0 0 1-85.333333 85.333333H128a85.333333 85.333333 0 0 1-85.333333-85.333333V384a85.333333 85.333333 0 0 1 85.333333-85.333333h85.333333a42.666667 42.666667 0 0 1 0 85.333333H128v512h768V384z"  /></svg>