<?xml version="1.0" standalone="no"?><!DOCTYPE svg PUBLIC "-//W3C//DTD SVG 1.1//EN" "http://www.w3.org/Graphics/SVG/1.1/DTD/svg11.dtd"><svg class="icon" width="200px" height="200.00px" viewBox="0 0 1024 1024" version="1.1" xmlns="http://www.w3.org/2000/svg"><path fill="#2c2c2c" d="M512 0C277.333333 0 85.333333 192 85.333333 426.666667s192 426.666667 426.666667 426.666666 426.666667-192 426.666667-426.666666S746.666667 0 512 0z m0 768c-187.733333 0-341.333333-153.6-341.333333-341.333333s153.6-341.333333 341.333333-341.333334 341.333333 153.6 341.333333 341.333334-153.6 341.333333-341.333333 341.333333z"  /><path fill="#2c2c2c" d="M512 213.333333c-119.466667 0-213.333333 93.866667-213.333333 213.333334s93.866667 213.333333 213.333333 213.333333 213.333333-93.866667 213.333333-213.333333-93.866667-213.333333-213.333333-213.333334z m0 341.333334c-72.533333 0-128-55.466667-128-128s55.466667-128 128-128 128 55.466667 128 128-55.466667 128-128 128zM213.333333 981.333333c0-25.6 17.066667-42.666667 42.666667-42.666666h512c25.6 0 42.666667 17.066667 42.666667 42.666666s-17.066667 42.666667-42.666667 42.666667H256c-25.6 0-42.666667-17.066667-42.666667-42.666667z"  /><path fill="#2c2c2c" d="M392.533333 768c21.333333 4.266667 38.4 29.866667 29.866667 51.2l-42.666667 170.666667c-4.266667 21.333333-29.866667 38.4-51.2 29.866666-21.333333-4.266667-38.4-29.866667-29.866666-51.2l42.666666-170.666666c8.533333-21.333333 29.866667-34.133333 51.2-29.866667zM631.466667 768c-21.333333 4.266667-38.4 29.866667-29.866667 51.2l42.666667 170.666667c4.266667 21.333333 29.866667 38.4 51.2 29.866666 21.333333-4.266667 38.4-29.866667 29.866666-51.2l-42.666666-170.666666c-8.533333-21.333333-29.866667-34.133333-51.2-29.866667z"  /></svg>