<?xml version="1.0" standalone="no"?><!DOCTYPE svg PUBLIC "-//W3C//DTD SVG 1.1//EN" "http://www.w3.org/Graphics/SVG/1.1/DTD/svg11.dtd"><svg class="icon" width="200px" height="200.00px" viewBox="0 0 1024 1024" version="1.1" xmlns="http://www.w3.org/2000/svg"><path fill="#2c2c2c" d="M550.4 439.466667L388.266667 345.6c-55.466667-34.133333-128 8.533333-128 72.533333v183.466667c0 64 72.533333 106.666667 128 72.533333l162.133333-93.866666c55.466667-25.6 55.466667-110.933333 0-140.8z m-204.8 166.4V418.133333l162.133333 93.866667-162.133333 93.866667z"  /><path fill="#2c2c2c" d="M900.266667 273.066667L853.333333 298.666667c0-93.866667-76.8-170.666667-170.666666-170.666667H170.666667C76.8 128 0 204.8 0 298.666667v426.666666c0 93.866667 76.8 170.666667 170.666667 170.666667h512c93.866667 0 170.666667-76.8 170.666666-170.666667l46.933334 25.6c55.466667 29.866667 123.733333-12.8 123.733333-76.8V349.866667c0-64-68.266667-102.4-123.733333-76.8zM768 725.333333c0 46.933333-38.4 85.333333-85.333333 85.333334H170.666667c-46.933333 0-85.333333-38.4-85.333334-85.333334V298.666667c0-46.933333 38.4-85.333333 85.333334-85.333334h512c46.933333 0 85.333333 38.4 85.333333 85.333334v426.666666z m170.666667-51.2l-85.333334-42.666666V392.533333l85.333334-42.666666v324.266666z"  /></svg>