<?xml version="1.0" standalone="no"?><!DOCTYPE svg PUBLIC "-//W3C//DTD SVG 1.1//EN" "http://www.w3.org/Graphics/SVG/1.1/DTD/svg11.dtd"><svg class="icon" width="200px" height="200.00px" viewBox="0 0 1024 1024" version="1.1" xmlns="http://www.w3.org/2000/svg"><path fill="#2c2c2c" d="M665.6 482.133333l-226.133333-128c-55.466667-34.133333-128 8.533333-128 72.533334v256c0 64 72.533333 106.666667 128 72.533333l226.133333-128c59.733333-29.866667 59.733333-115.2 0-145.066667zM401.066667 682.666667v-256l226.133333 128-226.133333 128z"  /><path fill="#2c2c2c" d="M913.066667 273.066667L665.6 25.6c-12.8-17.066667-34.133333-25.6-59.733333-25.6H170.666667C123.733333 0 85.333333 38.4 85.333333 85.333333v853.333334c0 46.933333 38.4 85.333333 85.333334 85.333333h682.666666c46.933333 0 85.333333-38.4 85.333334-85.333333V332.8c0-21.333333-8.533333-42.666667-25.6-59.733333zM853.333333 938.666667H170.666667V85.333333h426.666666c8.533333 8.533333 25.6 29.866667 51.2 51.2L853.333333 341.333333v597.333334z"  /></svg>