<?xml version="1.0" standalone="no"?><!DOCTYPE svg PUBLIC "-//W3C//DTD SVG 1.1//EN" "http://www.w3.org/Graphics/SVG/1.1/DTD/svg11.dtd"><svg class="icon" width="200px" height="200.00px" viewBox="0 0 1024 1024" version="1.1" xmlns="http://www.w3.org/2000/svg"><path fill="#2c2c2c" d="M768 0H256C162.133333 0 85.333333 76.8 85.333333 170.666667v682.666666c0 93.866667 76.8 170.666667 170.666667 170.666667h512c93.866667 0 170.666667-76.8 170.666667-170.666667V170.666667c0-93.866667-76.8-170.666667-170.666667-170.666667z m85.333333 853.333333c0 46.933333-38.4 85.333333-85.333333 85.333334H256c-46.933333 0-85.333333-38.4-85.333333-85.333334V170.666667c0-46.933333 38.4-85.333333 85.333333-85.333334h512c46.933333 0 85.333333 38.4 85.333333 85.333334v682.666666z"  /><path fill="#2c2c2c" d="M128 725.333333c0-25.6 17.066667-42.666667 42.666667-42.666666h725.333333c25.6 0 42.666667 17.066667 42.666667 42.666666s-17.066667 42.666667-42.666667 42.666667H170.666667c-25.6 0-42.666667-17.066667-42.666667-42.666667z"  /><path fill="#2c2c2c" d="M554.666667 853.333333c0 25.6-17.066667 42.666667-42.666667 42.666667s-42.666667-17.066667-42.666667-42.666667 17.066667-42.666667 42.666667-42.666666 42.666667 17.066667 42.666667 42.666666z"  /></svg>