<?xml version="1.0" standalone="no"?><!DOCTYPE svg PUBLIC "-//W3C//DTD SVG 1.1//EN" "http://www.w3.org/Graphics/SVG/1.1/DTD/svg11.dtd"><svg class="icon" width="200px" height="200.00px" viewBox="0 0 1024 1024" version="1.1" xmlns="http://www.w3.org/2000/svg"><path fill="#2c2c2c" d="M938.666667 0H85.333333C38.4 0 0 38.4 0 85.333333v853.333334c0 46.933333 38.4 85.333333 85.333333 85.333333h853.333334c46.933333 0 85.333333-38.4 85.333333-85.333333V85.333333c0-46.933333-38.4-85.333333-85.333333-85.333333z m0 938.666667H85.333333V85.333333h853.333334v853.333334z"  /><path fill="#2c2c2c" d="M1024 341.333333h-341.333333V0c-46.933333 0-85.333333 38.4-85.333334 85.333333v256c0 46.933333 38.4 85.333333 85.333334 85.333334h256c46.933333 0 85.333333-38.4 85.333333-85.333334zM554.666667 477.866667c17.066667 17.066667 17.066667 42.666667 0 59.733333l-302.933334 302.933333c-17.066667 17.066667-42.666667 17.066667-59.733333 0-17.066667-17.066667-17.066667-42.666667 0-59.733333l302.933333-302.933333c17.066667-17.066667 42.666667-17.066667 59.733334 0z"  /><path fill="#2c2c2c" d="M516.266667 426.666667c51.2-4.266667 93.866667 42.666667 89.6 93.866666l-17.066667 162.133334c-4.266667 21.333333-21.333333 38.4-46.933333 38.4-21.333333-4.266667-38.4-21.333333-38.4-46.933334l17.066666-162.133333-149.333333 8.533333c-25.6 0-42.666667-17.066667-46.933333-38.4 0-25.6 17.066667-42.666667 38.4-46.933333l153.6-8.533333z"  /></svg>