<?xml version="1.0" standalone="no"?><!DOCTYPE svg PUBLIC "-//W3C//DTD SVG 1.1//EN" "http://www.w3.org/Graphics/SVG/1.1/DTD/svg11.dtd"><svg class="icon" width="200px" height="200.00px" viewBox="0 0 1024 1024" version="1.1" xmlns="http://www.w3.org/2000/svg"><path fill="#2c2c2c" d="M951.466667 401.066667l-384-349.866667c-34.133333-29.866667-81.066667-29.866667-115.2 0l-384 349.866667c-17.066667 17.066667-25.6 38.4-25.6 64V938.666667c0 46.933333 38.4 85.333333 85.333333 85.333333h170.666667c46.933333 0 85.333333-38.4 85.333333-85.333333v-213.333334c0-46.933333 38.4-85.333333 85.333333-85.333333h85.333334c46.933333 0 85.333333 38.4 85.333333 85.333333v213.333334c0 46.933333 38.4 85.333333 85.333333 85.333333h170.666667c46.933333 0 85.333333-38.4 85.333333-85.333333V465.066667c0-25.6-8.533333-46.933333-29.866666-64zM896 938.666667h-170.666667v-213.333334c0-93.866667-76.8-170.666667-170.666666-170.666666h-85.333334c-93.866667 0-170.666667 76.8-170.666666 170.666666v213.333334H128V465.066667l384-349.866667 384 349.866667V938.666667z"  /></svg>