<?xml version="1.0" standalone="no"?><!DOCTYPE svg PUBLIC "-//W3C//DTD SVG 1.1//EN" "http://www.w3.org/Graphics/SVG/1.1/DTD/svg11.dtd"><svg class="icon" width="200px" height="200.00px" viewBox="0 0 1024 1024" version="1.1" xmlns="http://www.w3.org/2000/svg"><path fill="#2c2c2c" d="M512 0C324.266667 0 170.666667 153.6 170.666667 341.333333v341.333334c0 187.733333 153.6 341.333333 341.333333 341.333333s341.333333-153.6 341.333333-341.333333V341.333333c0-187.733333-153.6-341.333333-341.333333-341.333333z m256 682.666667c0 140.8-115.2 256-256 256s-256-115.2-256-256V341.333333c0-140.8 115.2-256 256-256s256 115.2 256 256v341.333334z"  /><path fill="#2c2c2c" d="M170.666667 341.333333c0-25.6 17.066667-42.666667 42.666666-42.666666h597.333334c25.6 0 42.666667 17.066667 42.666666 42.666666s-17.066667 42.666667-42.666666 42.666667H213.333333c-25.6 0-42.666667-17.066667-42.666666-42.666667z"  /><path fill="#2c2c2c" d="M512 0c25.6 0 42.666667 17.066667 42.666667 42.666667v256c0 25.6-17.066667 42.666667-42.666667 42.666666s-42.666667-17.066667-42.666667-42.666666V42.666667c0-25.6 17.066667-42.666667 42.666667-42.666667z"  /></svg>