<?xml version="1.0" standalone="no"?><!DOCTYPE svg PUBLIC "-//W3C//DTD SVG 1.1//EN" "http://www.w3.org/Graphics/SVG/1.1/DTD/svg11.dtd"><svg class="icon" width="200px" height="200.00px" viewBox="0 0 1024 1024" version="1.1" xmlns="http://www.w3.org/2000/svg"><path fill="#2c2c2c" d="M853.333333 42.666667H170.666667c-46.933333 0-85.333333 38.4-85.333334 85.333333v512c0 46.933333 38.4 85.333333 85.333334 85.333333h682.666666c46.933333 0 85.333333-38.4 85.333334-85.333333V128c0-46.933333-38.4-85.333333-85.333334-85.333333z m0 597.333333H170.666667V128h682.666666v512z"  /><path fill="#2c2c2c" d="M448 686.933333c21.333333 12.8 25.6 38.4 12.8 59.733334l-128 213.333333c-8.533333 21.333333-34.133333 25.6-55.466667 17.066667-21.333333-12.8-25.6-38.4-17.066666-59.733334l128-213.333333c12.8-21.333333 38.4-25.6 59.733333-17.066667zM576 686.933333c-21.333333 12.8-25.6 38.4-12.8 59.733334l128 213.333333c12.8 21.333333 38.4 25.6 59.733333 12.8 21.333333-12.8 25.6-38.4 12.8-59.733333l-128-213.333334c-12.8-17.066667-38.4-21.333333-59.733333-12.8zM0 85.333333c0-25.6 17.066667-42.666667 42.666667-42.666666h938.666666c25.6 0 42.666667 17.066667 42.666667 42.666666s-17.066667 42.666667-42.666667 42.666667H42.666667c-25.6 0-42.666667-17.066667-42.666667-42.666667zM793.6 226.133333c17.066667 17.066667 17.066667 42.666667-4.266667 59.733334l-226.133333 209.066666c-34.133333 29.866667-89.6 29.866667-119.466667-4.266666l-42.666666-46.933334-123.733334 119.466667c-17.066667 17.066667-42.666667 17.066667-59.733333 0s-17.066667-42.666667 0-59.733333L341.333333 388.266667c34.133333-34.133333 89.6-29.866667 119.466667 4.266666l42.666667 46.933334 226.133333-209.066667c21.333333-21.333333 46.933333-21.333333 64-4.266667z"  /></svg>