<?xml version="1.0" standalone="no"?><!DOCTYPE svg PUBLIC "-//W3C//DTD SVG 1.1//EN" "http://www.w3.org/Graphics/SVG/1.1/DTD/svg11.dtd"><svg class="icon" width="200px" height="200.00px" viewBox="0 0 1024 1024" version="1.1" xmlns="http://www.w3.org/2000/svg"><path fill="#2c2c2c" d="M512 0C230.4 0 0 93.866667 0 213.333333s230.4 213.333333 512 213.333334 512-93.866667 512-213.333334-230.4-213.333333-512-213.333333z m426.666667 217.6c0 4.266667-4.266667 8.533333-12.8 17.066667-17.066667 17.066667-42.666667 34.133333-81.066667 51.2-85.333333 34.133333-200.533333 55.466667-332.8 55.466666-132.266667 0-247.466667-21.333333-328.533333-55.466666-42.666667-17.066667-68.266667-34.133333-85.333334-51.2-4.266667-8.533333-8.533333-12.8-12.8-17.066667V213.333333v-4.266666c0-4.266667 4.266667-8.533333 12.8-17.066667 17.066667-17.066667 42.666667-34.133333 81.066667-51.2C264.533333 106.666667 379.733333 85.333333 512 85.333333c132.266667 0 247.466667 21.333333 328.533333 55.466667 38.4 17.066667 68.266667 34.133333 81.066667 51.2 8.533333 8.533333 12.8 12.8 12.8 17.066667l4.266667 4.266666v4.266667z"  /><path fill="#2c2c2c" d="M938.666667 810.666667V213.333333h85.333333v597.333334h-85.333333zM85.333333 810.666667V213.333333H0v597.333334h85.333333z"  /><path fill="#2c2c2c" d="M0 426.666667c0 119.466667 230.4 213.333333 512 213.333333s512-93.866667 512-213.333333h-85.333333v4.266666c0 4.266667-4.266667 8.533333-12.8 17.066667-17.066667 17.066667-42.666667 34.133333-81.066667 51.2-85.333333 34.133333-200.533333 55.466667-332.8 55.466667-132.266667 0-247.466667-21.333333-328.533333-55.466667-38.4-17.066667-68.266667-34.133333-81.066667-51.2-8.533333-8.533333-12.8-12.8-12.8-17.066667V426.666667H0zM0 640c0 119.466667 230.4 213.333333 512 213.333333s512-93.866667 512-213.333333h-85.333333v4.266667c0 4.266667-4.266667 8.533333-12.8 17.066666-17.066667 17.066667-42.666667 34.133333-81.066667 51.2-85.333333 34.133333-200.533333 55.466667-332.8 55.466667-132.266667 0-247.466667-21.333333-328.533333-55.466667-38.4-17.066667-68.266667-34.133333-81.066667-51.2-8.533333-8.533333-12.8-12.8-12.8-17.066666V640H0z"  /><path fill="#2c2c2c" d="M938.666667 810.666667v4.266666c0 4.266667-4.266667 8.533333-12.8 17.066667-17.066667 17.066667-42.666667 34.133333-81.066667 51.2-85.333333 34.133333-200.533333 55.466667-332.8 55.466667-132.266667 0-247.466667-21.333333-328.533333-55.466667-38.4-17.066667-68.266667-34.133333-81.066667-51.2-8.533333-8.533333-12.8-12.8-12.8-17.066667L85.333333 810.666667H0c0 119.466667 230.4 213.333333 512 213.333333s512-93.866667 512-213.333333h-85.333333z"  /></svg>