<?xml version="1.0" standalone="no"?><!DOCTYPE svg PUBLIC "-//W3C//DTD SVG 1.1//EN" "http://www.w3.org/Graphics/SVG/1.1/DTD/svg11.dtd"><svg class="icon" width="200px" height="200.00px" viewBox="0 0 1024 1024" version="1.1" xmlns="http://www.w3.org/2000/svg"><path fill="#2c2c2c" d="M934.4 725.333333h-25.6v-68.266666c0-72.533333-55.466667-128-128-128h-230.4V426.666667H640c46.933333 0 85.333333-38.4 85.333333-85.333334V85.333333c0-46.933333-38.4-85.333333-85.333333-85.333333H384C337.066667 0 298.666667 38.4 298.666667 85.333333v256c0 46.933333 38.4 85.333333 85.333333 85.333334h81.066667v102.4H238.933333c-72.533333 0-128 55.466667-128 128V725.333333H85.333333c-46.933333 0-85.333333 38.4-85.333333 85.333334v128c0 46.933333 38.4 85.333333 85.333333 85.333333h128c46.933333 0 85.333333-38.4 85.333334-85.333333v-128c0-46.933333-38.4-85.333333-85.333334-85.333334h-17.066666v-68.266666c0-25.6 17.066667-42.666667 42.666666-42.666667h226.133334V725.333333h-17.066667c-46.933333 0-85.333333 38.4-85.333333 85.333334v128c0 46.933333 38.4 85.333333 85.333333 85.333333h128c46.933333 0 85.333333-38.4 85.333333-85.333333v-128c0-46.933333-38.4-85.333333-85.333333-85.333334h-25.6v-110.933333h230.4c25.6 0 42.666667 17.066667 42.666667 42.666667V725.333333h-17.066667c-46.933333 0-85.333333 38.4-85.333333 85.333334v128c0 46.933333 38.4 85.333333 85.333333 85.333333h128c46.933333 0 85.333333-38.4 85.333333-85.333333v-128c0-46.933333-38.4-85.333333-85.333333-85.333334zM213.333333 810.666667v128H85.333333v-128h128z m362.666667 0v128h-128v-128h128zM384 341.333333V85.333333h256v256H384z m550.4 597.333334h-128v-128h128v128z"  /></svg>