<?xml version="1.0" standalone="no"?><!DOCTYPE svg PUBLIC "-//W3C//DTD SVG 1.1//EN" "http://www.w3.org/Graphics/SVG/1.1/DTD/svg11.dtd"><svg class="icon" width="200px" height="200.00px" viewBox="0 0 1024 1024" version="1.1" xmlns="http://www.w3.org/2000/svg"><path fill="#2c2c2c" d="M809.770667 213.333333H170.666667a85.333333 85.333333 0 0 0-85.333334 85.333334v512a85.333333 85.333333 0 0 0 85.333334 85.333333h682.666666a85.333333 85.333333 0 0 0 85.333334-85.333333V384h85.333333v426.666667a170.666667 170.666667 0 0 1-170.666667 170.666666H170.666667a170.666667 170.666667 0 0 1-170.666667-170.666666V298.666667a170.666667 170.666667 0 0 1 170.666667-170.666667h639.104v85.333333z"  /><path fill="#2c2c2c" d="M1024 384.170667a42.666667 42.666667 0 1 1-85.333333 0 42.666667 42.666667 0 0 1 85.333333 0z"  /><path fill="#2c2c2c" d="M704.384 32.512a42.666667 42.666667 0 0 1 60.245333-2.986667l93.013334 84.352a85.333333 85.333333 0 0 1-0.256 126.634667l-90.538667 81.493333a42.666667 42.666667 0 0 1-57.045333-63.488l90.538666-81.450666-93.013333-84.309334a42.666667 42.666667 0 0 1-2.986667-60.245333zM512 298.666667a42.666667 42.666667 0 0 1 42.666667 42.666666v426.666667a42.666667 42.666667 0 1 1-85.333334 0V341.333333a42.666667 42.666667 0 0 1 42.666667-42.666666zM725.333333 469.333333a42.666667 42.666667 0 0 1 42.666667 42.666667v256a42.666667 42.666667 0 1 1-85.333333 0v-256a42.666667 42.666667 0 0 1 42.666666-42.666667zM298.666667 512a42.666667 42.666667 0 0 1 42.666666 42.666667v213.333333a42.666667 42.666667 0 1 1-85.333333 0v-213.333333a42.666667 42.666667 0 0 1 42.666667-42.666667z"  /></svg>