<?xml version="1.0" standalone="no"?><!DOCTYPE svg PUBLIC "-//W3C//DTD SVG 1.1//EN" "http://www.w3.org/Graphics/SVG/1.1/DTD/svg11.dtd"><svg class="icon" width="200px" height="200.00px" viewBox="0 0 1024 1024" version="1.1" xmlns="http://www.w3.org/2000/svg"><path fill="#2c2c2c" d="M810.666667 256c25.6 0 42.666667-17.066667 42.666666-42.666667s-17.066667-42.666667-42.666666-42.666666-42.666667 17.066667-42.666667 42.666666 17.066667 42.666667 42.666667 42.666667zM853.333333 512c0 25.6-17.066667 42.666667-42.666666 42.666667s-42.666667-17.066667-42.666667-42.666667 17.066667-42.666667 42.666667-42.666667 42.666667 17.066667 42.666666 42.666667zM810.666667 853.333333c25.6 0 42.666667-17.066667 42.666666-42.666666s-17.066667-42.666667-42.666666-42.666667-42.666667 17.066667-42.666667 42.666667 17.066667 42.666667 42.666667 42.666666z"  /><path fill="#2c2c2c" d="M1024 85.333333c0-46.933333-38.4-85.333333-85.333333-85.333333H85.333333C38.4 0 0 38.4 0 85.333333v213.333334c0 17.066667 4.266667 29.866667 12.8 42.666666-8.533333 12.8-12.8 25.6-12.8 42.666667v213.333333c0 17.066667 4.266667 29.866667 12.8 42.666667-8.533333 12.8-12.8 25.6-12.8 42.666667v213.333333c0 46.933333 38.4 85.333333 85.333333 85.333333h853.333334c46.933333 0 85.333333-38.4 85.333333-85.333333v-213.333333c0-17.066667-4.266667-29.866667-12.8-42.666667 8.533333-12.8 12.8-25.6 12.8-42.666667V384c0-17.066667-4.266667-29.866667-12.8-42.666667 8.533333-12.8 12.8-25.6 12.8-42.666666V85.333333z m-85.333333 810.666667H85.333333v-213.333333h853.333334v213.333333z m0-298.666667H85.333333V384h853.333334v213.333333z m0-298.666666H85.333333V85.333333h853.333334v213.333334z"  /></svg>