<?xml version="1.0" standalone="no"?><!DOCTYPE svg PUBLIC "-//W3C//DTD SVG 1.1//EN" "http://www.w3.org/Graphics/SVG/1.1/DTD/svg11.dtd"><svg class="icon" width="200px" height="200.00px" viewBox="0 0 1024 1024" version="1.1" xmlns="http://www.w3.org/2000/svg"><path fill="#2c2c2c" d="M938.666667 640h-64v-42.666667c0-72.533333-55.466667-128-128-128H554.666667V384h64c46.933333 0 85.333333-38.4 85.333333-85.333333V85.333333c0-46.933333-38.4-85.333333-85.333333-85.333333h-213.333334c-46.933333 0-85.333333 38.4-85.333333 85.333333v213.333334c0 46.933333 38.4 85.333333 85.333333 85.333333H469.333333v85.333333H277.333333c-72.533333 0-128 55.466667-128 128v29.866667c0 4.266667 0 8.533333 4.266667 12.8H85.333333c-46.933333 0-85.333333 38.4-85.333333 85.333333v213.333334c0 46.933333 38.4 85.333333 85.333333 85.333333h213.333334c46.933333 0 85.333333-38.4 85.333333-85.333333v-213.333334c0-46.933333-38.4-85.333333-85.333333-85.333333H230.4c0-4.266667 4.266667-8.533333 4.266667-12.8V597.333333c0-25.6 17.066667-42.666667 42.666666-42.666666h469.333334c25.6 0 42.666667 17.066667 42.666666 42.666666v42.666667H725.333333c-46.933333 0-85.333333 38.4-85.333333 85.333333v213.333334c0 46.933333 38.4 85.333333 85.333333 85.333333h213.333334c46.933333 0 85.333333-38.4 85.333333-85.333333v-213.333334c0-46.933333-38.4-85.333333-85.333333-85.333333zM298.666667 725.333333v213.333334H85.333333v-213.333334h213.333334zM405.333333 298.666667V85.333333h213.333334v213.333334h-213.333334zM938.666667 938.666667h-213.333334v-213.333334h213.333334v213.333334z"  /></svg>