<?xml version="1.0" standalone="no"?><!DOCTYPE svg PUBLIC "-//W3C//DTD SVG 1.1//EN" "http://www.w3.org/Graphics/SVG/1.1/DTD/svg11.dtd"><svg class="icon" width="200px" height="200.00px" viewBox="0 0 1024 1024" version="1.1" xmlns="http://www.w3.org/2000/svg"><path fill="#2c2c2c" d="M810.666667 298.666667h128c46.933333 0 85.333333-38.4 85.333333-85.333334V85.333333c0-46.933333-38.4-85.333333-85.333333-85.333333h-128c-46.933333 0-85.333333 38.4-85.333334 85.333333v25.6h-153.6c-72.533333 0-128 55.466667-128 128V469.333333H298.666667v85.333334h140.8v226.133333c0 72.533333 55.466667 128 128 128H725.333333v29.866667c0 46.933333 38.4 85.333333 85.333334 85.333333h128c46.933333 0 85.333333-38.4 85.333333-85.333333v-128c0-46.933333-38.4-85.333333-85.333333-85.333334h-128c-46.933333 0-85.333333 38.4-85.333334 85.333334v17.066666h-153.6c-25.6 0-42.666667-17.066667-42.666666-42.666666v-226.133334H725.333333v17.066667c0 46.933333 38.4 85.333333 85.333334 85.333333h128c46.933333 0 85.333333-38.4 85.333333-85.333333v-128c0-46.933333-38.4-85.333333-85.333333-85.333333h-128c-46.933333 0-85.333333 38.4-85.333334 85.333333v25.6h-196.266666V238.933333c0-25.6 17.066667-42.666667 42.666666-42.666666H725.333333V213.333333c0 46.933333 38.4 85.333333 85.333334 85.333334z m0-213.333334h128v128h-128V85.333333z m0 725.333334h128v128h-128v-128z m0-362.666667h128v128h-128v-128zM213.333333 384H85.333333c-46.933333 0-85.333333 38.4-85.333333 85.333333v128c0 46.933333 38.4 85.333333 85.333333 85.333334h128c46.933333 0 85.333333-38.4 85.333334-85.333334v-128c0-46.933333-38.4-85.333333-85.333334-85.333333z m0 213.333333H85.333333v-128h128v128z"  /></svg>