<?xml version="1.0" standalone="no"?><!DOCTYPE svg PUBLIC "-//W3C//DTD SVG 1.1//EN" "http://www.w3.org/Graphics/SVG/1.1/DTD/svg11.dtd"><svg class="icon" width="200px" height="200.00px" viewBox="0 0 1024 1024" version="1.1" xmlns="http://www.w3.org/2000/svg"><path fill="#2c2c2c" d="M938.666667 85.333333H85.333333C38.4 85.333333 0 123.733333 0 170.666667v682.666666c0 46.933333 38.4 85.333333 85.333333 85.333334h853.333334c46.933333 0 85.333333-38.4 85.333333-85.333334V170.666667c0-46.933333-38.4-85.333333-85.333333-85.333334z m0 768H85.333333V170.666667h853.333334v682.666666z"  /><path fill="#2c2c2c" d="M42.666667 328.533333c0-25.6 17.066667-42.666667 42.666666-42.666666h853.333334c25.6 0 42.666667 17.066667 42.666666 42.666666s-17.066667 42.666667-42.666666 42.666667H85.333333c-25.6 0-42.666667-21.333333-42.666666-42.666667zM392.533333 460.8c17.066667 17.066667 12.8 46.933333-4.266666 59.733333l-119.466667 98.133334 123.733333 89.6c17.066667 12.8 25.6 38.4 8.533334 59.733333-12.8 17.066667-38.4 25.6-59.733334 8.533333l-123.733333-89.6c-42.666667-29.866667-46.933333-98.133333-4.266667-132.266666l119.466667-98.133334c17.066667-17.066667 46.933333-12.8 59.733333 4.266667zM631.466667 460.8c-17.066667 17.066667-12.8 46.933333 4.266666 59.733333l119.466667 98.133334-123.733333 89.6c-17.066667 12.8-25.6 38.4-8.533334 59.733333 12.8 17.066667 38.4 25.6 59.733334 8.533333l123.733333-89.6c46.933333-34.133333 46.933333-98.133333 4.266667-136.533333l-119.466667-98.133333c-17.066667-12.8-46.933333-8.533333-59.733333 8.533333zM541.866667 426.666667c21.333333 4.266667 38.4 25.6 34.133333 46.933333l-42.666667 285.866667c-4.266667 21.333333-25.6 38.4-46.933333 34.133333s-38.4-25.6-34.133333-46.933333l42.666666-285.866667c4.266667-21.333333 25.6-38.4 46.933334-34.133333z"  /></svg>