<?xml version="1.0" standalone="no"?><!DOCTYPE svg PUBLIC "-//W3C//DTD SVG 1.1//EN" "http://www.w3.org/Graphics/SVG/1.1/DTD/svg11.dtd"><svg class="icon" width="200px" height="200.00px" viewBox="0 0 1024 1024" version="1.1" xmlns="http://www.w3.org/2000/svg"><path fill="#2c2c2c" d="M469.333333 0C209.066667 0 0 209.066667 0 469.333333s209.066667 469.333333 469.333333 469.333334 469.333333-209.066667 469.333334-469.333334S729.6 0 469.333333 0z m0 853.333333c-213.333333 0-384-170.666667-384-384s170.666667-384 384-384 384 170.666667 384 384-170.666667 384-384 384z"  /><path fill="#2c2c2c" d="M738.133333 742.4c17.066667-17.066667 42.666667-17.066667 59.733334 0l209.066666 200.533333c17.066667 17.066667 17.066667 42.666667 0 59.733334-17.066667 17.066667-42.666667 17.066667-59.733333 0l-209.066667-200.533334c-17.066667-17.066667-17.066667-42.666667 0-59.733333z"  /></svg>