<?xml version="1.0" standalone="no"?><!DOCTYPE svg PUBLIC "-//W3C//DTD SVG 1.1//EN" "http://www.w3.org/Graphics/SVG/1.1/DTD/svg11.dtd"><svg class="icon" width="200px" height="200.00px" viewBox="0 0 1024 1024" version="1.1" xmlns="http://www.w3.org/2000/svg"><path fill="#2c2c2c" d="M942.933333 512c72.533333-64 34.133333-179.2-59.733333-187.733333l-179.2-17.066667c-8.533333 0-12.8-4.266667-17.066667-12.8L610.133333 128c-38.4-85.333333-162.133333-85.333333-200.533333 0L341.333333 294.4c-4.266667 8.533333-12.8 12.8-17.066666 12.8l-183.466667 17.066667c-93.866667 8.533333-132.266667 128-59.733333 187.733333l136.533333 119.466667c4.266667 4.266667 8.533333 12.8 8.533333 21.333333l-38.4 174.933333c-21.333333 93.866667 81.066667 166.4 162.133334 115.2l157.866666-93.866666c8.533333-4.266667 17.066667-4.266667 21.333334 0l157.866666 93.866666c81.066667 46.933333 183.466667-25.6 162.133334-115.2l-38.4-174.933333c0-8.533333 0-17.066667 8.533333-21.333333l123.733333-119.466667z m-226.133333 157.866667l38.4 174.933333c4.266667 17.066667-17.066667 34.133333-34.133333 21.333333l-157.866667-93.866666c-34.133333-21.333333-76.8-21.333333-110.933333 0L298.666667 870.4c-17.066667 8.533333-38.4-4.266667-34.133334-21.333333l38.4-174.933334c8.533333-38.4-4.266667-76.8-34.133333-106.666666l-136.533333-119.466667c-12.8-12.8-8.533333-34.133333 12.8-38.4l179.2-17.066667c38.4-4.266667 72.533333-29.866667 89.6-64l72.533333-166.4c8.533333-17.066667 34.133333-17.066667 38.4 0L597.333333 328.533333c17.066667 38.4 51.2 59.733333 89.6 64l179.2 17.066667c17.066667 0 25.6 25.6 12.8 38.4l-136.533333 119.466667c-21.333333 25.6-34.133333 64-25.6 102.4z"  /></svg>