<?xml version="1.0" standalone="no"?><!DOCTYPE svg PUBLIC "-//W3C//DTD SVG 1.1//EN" "http://www.w3.org/Graphics/SVG/1.1/DTD/svg11.dtd"><svg class="icon" width="200px" height="200.00px" viewBox="0 0 1024 1024" version="1.1" xmlns="http://www.w3.org/2000/svg"><path fill="#2c2c2c" d="M853.333333 213.333333c0 34.133333-29.866667 64-64 64S725.333333 247.466667 725.333333 213.333333s29.866667-64 64-64S853.333333 179.2 853.333333 213.333333z"  /><path fill="#2c2c2c" d="M810.666667 0H213.333333C93.866667 0 0 93.866667 0 213.333333s93.866667 213.333333 213.333333 213.333334h597.333334c119.466667 0 213.333333-93.866667 213.333333-213.333334s-93.866667-213.333333-213.333333-213.333333z m0 341.333333H213.333333C140.8 341.333333 85.333333 285.866667 85.333333 213.333333s55.466667-128 128-128h597.333334c72.533333 0 128 55.466667 128 128s-55.466667 128-128 128z"  /><path fill="#2c2c2c" d="M234.666667 874.666667c34.133333 0 64-29.866667 64-64s-29.866667-64-64-64S170.666667 776.533333 170.666667 810.666667s29.866667 64 64 64z"  /><path fill="#2c2c2c" d="M810.666667 597.333333H213.333333c-119.466667 0-213.333333 93.866667-213.333333 213.333334s93.866667 213.333333 213.333333 213.333333h597.333334c119.466667 0 213.333333-93.866667 213.333333-213.333333s-93.866667-213.333333-213.333333-213.333334z m0 341.333334H213.333333c-72.533333 0-128-55.466667-128-128s55.466667-128 128-128h597.333334c72.533333 0 128 55.466667 128 128s-55.466667 128-128 128z"  /></svg>