<?xml version="1.0" standalone="no"?><!DOCTYPE svg PUBLIC "-//W3C//DTD SVG 1.1//EN" "http://www.w3.org/Graphics/SVG/1.1/DTD/svg11.dtd"><svg class="icon" width="200px" height="200.00px" viewBox="0 0 1024 1024" version="1.1" xmlns="http://www.w3.org/2000/svg"><path fill="#2c2c2c" d="M42.666667 85.333333c0-25.6 17.066667-42.666667 42.666666-42.666666h853.333334c25.6 0 42.666667 17.066667 42.666666 42.666666s-17.066667 42.666667-42.666666 42.666667H85.333333c-25.6 0-42.666667-17.066667-42.666666-42.666667zM42.666667 938.666667c0-25.6 17.066667-42.666667 42.666666-42.666667h853.333334c25.6 0 42.666667 17.066667 42.666666 42.666667s-17.066667 42.666667-42.666666 42.666666H85.333333c-25.6 0-42.666667-17.066667-42.666666-42.666666zM554.666667 341.333333c-25.6 0-42.666667 17.066667-42.666667 42.666667s17.066667 42.666667 42.666667 42.666667h384c25.6 0 42.666667-17.066667 42.666666-42.666667s-17.066667-42.666667-42.666666-42.666667h-384zM512 640c0-25.6 17.066667-42.666667 42.666667-42.666667h384c25.6 0 42.666667 17.066667 42.666666 42.666667s-17.066667 42.666667-42.666666 42.666667h-384c-25.6 0-42.666667-17.066667-42.666667-42.666667z"  /><path fill="#2c2c2c" d="M345.6 469.333333L153.6 354.133333C102.4 320 42.666667 362.666667 42.666667 418.133333v230.4c0 55.466667 59.733333 98.133333 110.933333 64L345.6 597.333333c51.2-29.866667 51.2-98.133333 0-128zM128 631.466667v-196.266667l162.133333 98.133333L128 631.466667z"  /></svg>