<?xml version="1.0" standalone="no"?><!DOCTYPE svg PUBLIC "-//W3C//DTD SVG 1.1//EN" "http://www.w3.org/Graphics/SVG/1.1/DTD/svg11.dtd"><svg class="icon" width="200px" height="200.00px" viewBox="0 0 1024 1024" version="1.1" xmlns="http://www.w3.org/2000/svg"><path fill="#2c2c2c" d="M853.333333 341.333333H170.666667c-93.866667 0-170.666667 76.8-170.666667 170.666667v341.333333c0 93.866667 76.8 170.666667 170.666667 170.666667h682.666666c93.866667 0 170.666667-76.8 170.666667-170.666667v-341.333333c0-93.866667-76.8-170.666667-170.666667-170.666667z m85.333334 512c0 46.933333-38.4 85.333333-85.333334 85.333334H170.666667c-46.933333 0-85.333333-38.4-85.333334-85.333334v-341.333333c0-46.933333 38.4-85.333333 85.333334-85.333333h682.666666c46.933333 0 85.333333 38.4 85.333334 85.333333v341.333333z"  /><path fill="#2c2c2c" d="M597.333333 0h-170.666666C332.8 0 256 76.8 256 170.666667v256h512V170.666667c0-93.866667-76.8-170.666667-170.666667-170.666667z m85.333334 341.333333H341.333333V170.666667c0-46.933333 38.4-85.333333 85.333334-85.333334h170.666666c46.933333 0 85.333333 38.4 85.333334 85.333334v170.666666zM512 490.666667c-72.533333 0-128 55.466667-128 128s55.466667 128 128 128 128-55.466667 128-128c0-68.266667-55.466667-128-128-128z m0 170.666666c-25.6 0-42.666667-17.066667-42.666667-42.666666s17.066667-42.666667 42.666667-42.666667 42.666667 17.066667 42.666667 42.666667-17.066667 42.666667-42.666667 42.666666z"  /><path fill="#2c2c2c" d="M516.266667 686.933333c25.6 0 42.666667 17.066667 42.666666 42.666667v106.666667c0 25.6-17.066667 42.666667-42.666666 42.666666s-42.666667-17.066667-42.666667-42.666666v-106.666667c0-21.333333 17.066667-42.666667 42.666667-42.666667z"  /></svg>