<?xml version="1.0" standalone="no"?><!DOCTYPE svg PUBLIC "-//W3C//DTD SVG 1.1//EN" "http://www.w3.org/Graphics/SVG/1.1/DTD/svg11.dtd"><svg class="icon" width="200px" height="200.00px" viewBox="0 0 1024 1024" version="1.1" xmlns="http://www.w3.org/2000/svg"><path fill="#2c2c2c" d="M968.533333 486.4L516.266667 34.133333C499.2 17.066667 469.333333 4.266667 443.733333 8.533333L128 55.466667c-38.4 4.266667-68.266667 34.133333-72.533333 72.533333L8.533333 443.733333c-4.266667 25.6 4.266667 55.466667 25.6 72.533334l452.266667 452.266666c34.133333 34.133333 85.333333 34.133333 119.466667 0l362.666666-362.666666c34.133333-29.866667 34.133333-85.333333 0-119.466667z m-422.4 422.4L93.866667 456.533333l46.933333-315.733333 315.733333-46.933333 452.266667 452.266666-362.666667 362.666667z"  /><path fill="#2c2c2c" d="M384 320C384 354.133333 354.133333 384 320 384S256 354.133333 256 320 285.866667 256 320 256 384 285.866667 384 320z"  /></svg>