<?xml version="1.0" standalone="no"?><!DOCTYPE svg PUBLIC "-//W3C//DTD SVG 1.1//EN" "http://www.w3.org/Graphics/SVG/1.1/DTD/svg11.dtd"><svg class="icon" width="200px" height="200.00px" viewBox="0 0 1024 1024" version="1.1" xmlns="http://www.w3.org/2000/svg"><path fill="#2c2c2c" d="M512 0C230.4 0 0 230.4 0 512s230.4 512 512 512 512-230.4 512-512S793.6 0 512 0z m0 938.666667C277.333333 938.666667 85.333333 746.666667 85.333333 512S277.333333 85.333333 512 85.333333s426.666667 192 426.666667 426.666667-192 426.666667-426.666667 426.666667z"  /><path fill="#2c2c2c" d="M721.066667 247.466667L413.866667 366.933333c-21.333333 8.533333-38.4 25.6-46.933334 46.933334l-119.466666 302.933333c-12.8 34.133333 21.333333 68.266667 55.466666 55.466667l302.933334-119.466667c21.333333-8.533333 38.4-25.6 46.933333-46.933333l119.466667-302.933334c17.066667-34.133333-17.066667-68.266667-51.2-55.466666z m-145.066667 328.533333l-213.333333 85.333333 85.333333-213.333333 213.333333-85.333333-85.333333 213.333333z"  /></svg>