<?xml version="1.0" standalone="no"?><!DOCTYPE svg PUBLIC "-//W3C//DTD SVG 1.1//EN" "http://www.w3.org/Graphics/SVG/1.1/DTD/svg11.dtd"><svg class="icon" width="200px" height="199.61px" viewBox="0 0 1026 1024" version="1.1" xmlns="http://www.w3.org/2000/svg"><path fill="#2c2c2c" d="M531.61856 106.666667c-226.133333 0-409.6 183.466667-409.6 409.6s183.466667 409.6 409.6 409.6 409.6-183.466667 409.6-409.6c4.266667-226.133333-183.466667-409.6-409.6-409.6z m0 733.866666c-179.2 0-324.266667-145.066667-324.266667-324.266666 0-179.2 145.066667-324.266667 324.266667-324.266667 179.2 0 324.266667 145.066667 324.266667 324.266667 0 179.2-145.066667 324.266667-324.266667 324.266666z"  /><path fill="#2c2c2c" d="M11.085227 456.533333c-12.8 34.133333-12.8 68.266667-8.533334 102.4 34.133333 170.666667 290.133333 260.266667 571.733334 200.533334 281.6-55.466667 482.133333-238.933333 448-409.6-4.266667-25.6-17.066667-51.2-29.866667-72.533334l-76.8 51.2c17.066667 17.066667 25.6 29.866667 25.6 38.4 4.266667 12.8 0 68.266667-76.8 136.533334-68.266667 64-174.933333 119.466667-307.2 145.066666-132.266667 25.6-251.733333 17.066667-341.333333-12.8-98.133333-34.133333-119.466667-81.066667-123.733334-93.866666 0-8.533333 0-25.6 12.8-51.2l-93.866666-34.133334z"  /><path fill="#2c2c2c" d="M399.351893 328.533333c-72.533333 0-128 55.466667-128 128s55.466667 128 128 128 128-55.466667 128-128c0-68.266667-55.466667-128-128-128z m0 170.666667c-21.333333 0-42.666667-17.066667-42.666666-42.666667 0-21.333333 17.066667-42.666667 42.666666-42.666666 21.333333 0 42.666667 17.066667 42.666667 42.666666s-17.066667 42.666667-42.666667 42.666667z"  /><path fill="#2c2c2c" d="M723.61856 328.533333c0 25.6-21.333333 42.666667-42.666667 42.666667s-42.666667-21.333333-42.666666-42.666667c0-25.6 21.333333-42.666667 42.666666-42.666666s42.666667 21.333333 42.666667 42.666666zM663.885227 546.133333c0 25.6-21.333333 42.666667-42.666667 42.666667-25.6 0-42.666667-21.333333-42.666667-42.666667 0-25.6 21.333333-42.666667 42.666667-42.666666s42.666667 21.333333 42.666667 42.666666zM109.21856 460.8c0 29.866667-21.333333 51.2-46.933333 51.2-25.6 0-51.2-21.333333-51.2-51.2 0-25.6 21.333333-51.2 51.2-51.2 25.6 4.266667 46.933333 25.6 46.933333 51.2zM996.685227 298.666667c0 25.6-21.333333 46.933333-46.933334 46.933333-29.866667 0-51.2-21.333333-51.2-46.933333 0-25.6 21.333333-46.933333 46.933334-46.933334 25.6-4.266667 51.2 17.066667 51.2 46.933334z"  /></svg>