<?xml version="1.0" standalone="no"?><!DOCTYPE svg PUBLIC "-//W3C//DTD SVG 1.1//EN" "http://www.w3.org/Graphics/SVG/1.1/DTD/svg11.dtd"><svg class="icon" width="200px" height="200.00px" viewBox="0 0 1024 1024" version="1.1" xmlns="http://www.w3.org/2000/svg"><path fill="#2c2c2c" d="M768 21.333333H85.333333c-46.933333 0-85.333333 38.4-85.333333 85.333334v648.533333c0 38.4 51.2 59.733333 76.8 25.6L213.333333 618.666667h554.666667c46.933333 0 85.333333-38.4 85.333333-85.333334v-426.666666c0-46.933333-38.4-85.333333-85.333333-85.333334z m0 512H174.933333L85.333333 640V106.666667h682.666667v426.666666z"  /><path fill="#2c2c2c" d="M874.666667 170.666667c0-25.6 17.066667-42.666667 42.666666-42.666667h21.333334c46.933333 0 85.333333 38.4 85.333333 85.333333v789.333334L836.266667 810.666667H345.6c-46.933333 0-85.333333-38.4-85.333333-85.333334v-21.333333c0-25.6 17.066667-42.666667 42.666666-42.666667s42.666667 17.066667 42.666667 42.666667v21.333333h524.8l64 64V213.333333h-21.333333c-21.333333 0-38.4-21.333333-38.4-42.666666z"  /></svg>