<?xml version="1.0" standalone="no"?><!DOCTYPE svg PUBLIC "-//W3C//DTD SVG 1.1//EN" "http://www.w3.org/Graphics/SVG/1.1/DTD/svg11.dtd"><svg class="icon" width="200px" height="200.00px" viewBox="0 0 1024 1024" version="1.1" xmlns="http://www.w3.org/2000/svg"><path fill="#2c2c2c" d="M887.466667 183.466667l-183.466667 102.4c-12.8 4.266667-25.6 0-29.866667-12.8l-81.066666-204.8c-29.866667-72.533333-128-72.533333-157.866667 0l-85.333333 209.066666c-4.266667 12.8-17.066667 17.066667-29.866667 8.533334L136.533333 183.466667C68.266667 149.333333-8.533333 209.066667 12.8 281.6l140.8 507.733333c8.533333 38.4 42.666667 64 81.066667 64h554.666666c38.4 0 72.533333-25.6 81.066667-64l140.8-507.733333c21.333333-72.533333-55.466667-132.266667-123.733333-98.133333zM789.333333 768h-554.666666L93.866667 260.266667l183.466666 102.4c55.466667 29.866667 128 4.266667 149.333334-55.466667l85.333333-204.8 81.066667 204.8c25.6 59.733333 93.866667 85.333333 149.333333 55.466667l183.466667-102.4L789.333333 768zM170.666667 981.333333c0-25.6 17.066667-42.666667 42.666666-42.666666h597.333334c25.6 0 42.666667 17.066667 42.666666 42.666666s-17.066667 42.666667-42.666666 42.666667H213.333333c-25.6 0-42.666667-17.066667-42.666666-42.666667z"  /></svg>