<?xml version="1.0" standalone="no"?><!DOCTYPE svg PUBLIC "-//W3C//DTD SVG 1.1//EN" "http://www.w3.org/Graphics/SVG/1.1/DTD/svg11.dtd"><svg class="icon" width="200px" height="200.00px" viewBox="0 0 1024 1024" version="1.1" xmlns="http://www.w3.org/2000/svg"><path fill="#2c2c2c" d="M42.666667 960h85.333333v-298.666667c0-213.333333 170.666667-384 384-384s384 170.666667 384 384v298.666667h85.333333v-298.666667c0-260.266667-209.066667-469.333333-469.333333-469.333333S42.666667 401.066667 42.666667 661.333333v298.666667z"  /><path fill="#2c2c2c" d="M554.666667 64h-85.333334c-34.133333 0-64 29.866667-64 64v85.333333c0 34.133333 29.866667 64 64 64h85.333334c34.133333 0 64-29.866667 64-64V128c0-34.133333-29.866667-64-64-64z m-21.333334 128h-42.666666v-42.666667h42.666666v42.666667zM955.733333 64h-85.333333c-34.133333 0-64 29.866667-64 64v85.333333c0 34.133333 29.866667 64 64 64h85.333333c34.133333 0 64-29.866667 64-64V128c0-34.133333-29.866667-64-64-64z m-21.333333 128h-42.666667v-42.666667h42.666667v42.666667zM149.333333 64h-85.333333C29.866667 64 0 93.866667 0 128v85.333333c0 34.133333 29.866667 64 64 64h85.333333C183.466667 277.333333 213.333333 247.466667 213.333333 213.333333V128c0-34.133333-29.866667-64-64-64z m-21.333333 128H85.333333v-42.666667h42.666667v42.666667z"  /><path fill="#2c2c2c" d="M140.8 174.933333c0-25.6 17.066667-42.666667 42.666667-42.666666h230.4c25.6 0 42.666667 17.066667 42.666666 42.666666s-17.066667 42.666667-42.666666 42.666667H183.466667c-21.333333 0-42.666667-21.333333-42.666667-42.666667zM554.666667 174.933333c0-25.6 17.066667-42.666667 42.666666-42.666666h230.4c25.6 0 42.666667 17.066667 42.666667 42.666666s-17.066667 42.666667-42.666667 42.666667H597.333333c-25.6 0-42.666667-21.333333-42.666666-42.666667z"  /></svg>