<?xml version="1.0" standalone="no"?><!DOCTYPE svg PUBLIC "-//W3C//DTD SVG 1.1//EN" "http://www.w3.org/Graphics/SVG/1.1/DTD/svg11.dtd"><svg class="icon" width="200px" height="200.00px" viewBox="0 0 1024 1024" version="1.1" xmlns="http://www.w3.org/2000/svg"><path fill="#2c2c2c" d="M896 213.333333H426.666667c-46.933333 0-85.333333 38.4-85.333334 85.333334v627.2c0 64 68.266667 106.666667 123.733334 76.8l174.933333-93.866667c12.8-8.533333 25.6-8.533333 38.4 0l174.933333 93.866667c55.466667 29.866667 123.733333-12.8 123.733334-76.8V298.666667c4.266667-46.933333-34.133333-85.333333-81.066667-85.333334z m0 712.533334l-174.933333-93.866667c-38.4-21.333333-81.066667-21.333333-119.466667 0L426.666667 925.866667V298.666667h469.333333v627.2z"  /><path fill="#2c2c2c" d="M128 85.333333h512v42.666667h85.333333V85.333333c0-46.933333-38.4-85.333333-85.333333-85.333333H128C81.066667 0 42.666667 38.4 42.666667 85.333333v853.333334c0 46.933333 38.4 85.333333 85.333333 85.333333h128v-85.333333H128V85.333333z"  /><path fill="#2c2c2c" d="M725.333333 128c0 25.6-17.066667 42.666667-42.666666 42.666667s-42.666667-17.066667-42.666667-42.666667 17.066667-42.666667 42.666667-42.666667 42.666667 17.066667 42.666666 42.666667zM290.133333 981.333333c0 25.6-17.066667 42.666667-42.666666 42.666667s-42.666667-17.066667-42.666667-42.666667 17.066667-42.666667 42.666667-42.666666 42.666667 17.066667 42.666666 42.666666zM678.4 768c-4.266667 4.266667-8.533333 4.266667-12.8 4.266667h-8.533333c-12.8 0-21.333333-4.266667-29.866667-12.8-8.533333-8.533333-12.8-17.066667-12.8-29.866667 0-21.333333 8.533333-34.133333 21.333333-38.4 8.533333-4.266667 12.8-4.266667 17.066667-4.266667 4.266667 0 8.533333 0 12.8 4.266667 17.066667 4.266667 25.6 21.333333 25.6 42.666667 4.266667 12.8 0 25.6-12.8 34.133333z m-119.466667-349.866667c4.266667-8.533333 8.533333-21.333333 17.066667-29.866666 8.533333-8.533333 21.333333-17.066667 38.4-21.333334 17.066667-4.266667 29.866667-8.533333 46.933333-8.533333h12.8c12.8 0 25.6 4.266667 38.4 12.8 12.8 8.533333 21.333333 17.066667 29.866667 29.866667 8.533333 12.8 12.8 29.866667 12.8 46.933333 0 17.066667-4.266667 29.866667-8.533333 46.933333-4.266667 12.8-12.8 25.6-21.333334 34.133334l-29.866666 29.866666c-8.533333 4.266667-12.8 12.8-12.8 17.066667-4.266667 4.266667-4.266667 8.533333-4.266667 12.8v17.066667c0 4.266667-4.266667 12.8-8.533333 17.066666-4.266667 8.533333-8.533333 8.533333-17.066667 12.8-8.533333 0-21.333333 0-29.866667-8.533333l-8.533333-8.533333c-4.266667-4.266667-4.266667-4.266667-4.266667-8.533334V597.333333v-12.8c0-4.266667 4.266667-8.533333 4.266667-17.066666 4.266667-12.8 8.533333-21.333333 17.066667-29.866667l25.6-25.6 21.333333-21.333333c4.266667-8.533333 8.533333-17.066667 8.533333-25.6 0-21.333333-12.8-34.133333-38.4-38.4h-12.8c-17.066667 0-29.866667 4.266667-42.666666 12.8l-21.333334 21.333333c-4.266667 8.533333-4.266667 12.8-8.533333 12.8s-4.266667 0-8.533333-4.266667-4.266667-8.533333-8.533334-12.8c-4.266667-8.533333-4.266667-17.066667-4.266666-21.333333 17.066667-8.533333 17.066667-12.8 17.066666-17.066667z"  /></svg>