<?xml version="1.0" standalone="no"?><!DOCTYPE svg PUBLIC "-//W3C//DTD SVG 1.1//EN" "http://www.w3.org/Graphics/SVG/1.1/DTD/svg11.dtd"><svg class="icon" width="200px" height="200.00px" viewBox="0 0 1024 1024" version="1.1" xmlns="http://www.w3.org/2000/svg"><path fill="#2c2c2c" d="M307.2 25.6c-12.8 8.533333-25.6 21.333333-34.133333 29.866667-149.333333 149.333333-149.333333 392.533333 0 541.866666s392.533333 149.333333 541.866666 0c12.8-12.8 21.333333-25.6 34.133334-38.4L307.2 25.6z m25.6 512c-106.666667-106.666667-115.2-277.333333-25.6-396.8l418.133333 418.133333c-115.2 98.133333-285.866667 89.6-392.533333-21.333333z"  /><path fill="#2c2c2c" d="M721.066667 157.866667c17.066667 17.066667 17.066667 42.666667 0 59.733333l-128 123.733333c-17.066667 17.066667-42.666667 17.066667-59.733334 0-17.066667-17.066667-17.066667-42.666667 0-59.733333l128-123.733333c17.066667-17.066667 42.666667-17.066667 59.733334 0z"  /><path fill="#2c2c2c" d="M742.4 21.333333C682.666667 21.333333 635.733333 68.266667 635.733333 128s46.933333 106.666667 106.666667 106.666667 106.666667-46.933333 106.666667-106.666667S802.133333 21.333333 742.4 21.333333z m0 128c-12.8 0-21.333333-8.533333-21.333333-21.333333s8.533333-21.333333 21.333333-21.333333 21.333333 8.533333 21.333333 21.333333-8.533333 21.333333-21.333333 21.333333z"  /><path fill="#2c2c2c" d="M686.933333 136.533333c0 25.6-17.066667 42.666667-38.4 46.933334l-238.933333 17.066666c-25.6 0-42.666667-17.066667-46.933333-38.4 0-25.6 17.066667-42.666667 38.4-46.933333l238.933333-17.066667c25.6 0 46.933333 17.066667 46.933333 38.4zM763.733333 162.133333c21.333333 4.266667 38.4 25.6 34.133334 51.2l-46.933334 268.8c-4.266667 21.333333-25.6 38.4-51.2 34.133334-21.333333-4.266667-38.4-25.6-34.133333-51.2l46.933333-268.8c4.266667-25.6 25.6-38.4 51.2-34.133334zM652.8 861.866667L469.333333 635.733333c-34.133333-42.666667-106.666667-42.666667-136.533333 4.266667l-153.6 226.133333c-38.4 55.466667 4.266667 132.266667 72.533333 132.266667h341.333334c68.266667 4.266667 106.666667-81.066667 59.733333-136.533333z m-405.333333 55.466666l153.6-226.133333 187.733333 226.133333h-341.333333z"  /></svg>