<?xml version="1.0" standalone="no"?><!DOCTYPE svg PUBLIC "-//W3C//DTD SVG 1.1//EN" "http://www.w3.org/Graphics/SVG/1.1/DTD/svg11.dtd"><svg class="icon" width="200px" height="200.00px" viewBox="0 0 1024 1024" version="1.1" xmlns="http://www.w3.org/2000/svg"><path fill="#2c2c2c" d="M213.333333 85.333333h640v853.333334H213.333333v-170.666667H128v170.666667c0 46.933333 38.4 85.333333 85.333333 85.333333h640c46.933333 0 85.333333-38.4 85.333334-85.333333V85.333333c0-46.933333-38.4-85.333333-85.333334-85.333333H213.333333C166.4 0 128 38.4 128 85.333333v85.333334h85.333333V85.333333z"  /><path fill="#2c2c2c" d="M85.333333 298.666667c0-25.6 17.066667-42.666667 42.666667-42.666667h85.333333c25.6 0 42.666667 17.066667 42.666667 42.666667s-17.066667 42.666667-42.666667 42.666666H128c-25.6 0-42.666667-17.066667-42.666667-42.666666zM85.333333 469.333333c0-25.6 17.066667-42.666667 42.666667-42.666666h85.333333c25.6 0 42.666667 17.066667 42.666667 42.666666s-17.066667 42.666667-42.666667 42.666667H128c-25.6 0-42.666667-17.066667-42.666667-42.666667zM85.333333 640c0-25.6 17.066667-42.666667 42.666667-42.666667h85.333333c25.6 0 42.666667 17.066667 42.666667 42.666667s-17.066667 42.666667-42.666667 42.666667H128c-25.6 0-42.666667-17.066667-42.666667-42.666667z"  /><path fill="#2c2c2c" d="M213.333333 170.666667c0 25.6-17.066667 42.666667-42.666666 42.666666s-42.666667-17.066667-42.666667-42.666666 17.066667-42.666667 42.666667-42.666667 42.666667 17.066667 42.666666 42.666667zM213.333333 768c0 25.6-17.066667 42.666667-42.666666 42.666667s-42.666667-17.066667-42.666667-42.666667 17.066667-42.666667 42.666667-42.666667 42.666667 17.066667 42.666666 42.666667z"  /><path fill="#2c2c2c" d="M554.666667 213.333333c-93.866667 0-170.666667 76.8-170.666667 170.666667s76.8 170.666667 170.666667 170.666667 170.666667-76.8 170.666666-170.666667-76.8-170.666667-170.666666-170.666667z m0 256c-46.933333 0-85.333333-38.4-85.333334-85.333333s38.4-85.333333 85.333334-85.333333 85.333333 38.4 85.333333 85.333333-38.4 85.333333-85.333333 85.333333z"  /><path fill="#2c2c2c" d="M725.333333 750.933333c-8.533333-85.333333-81.066667-153.6-170.666666-153.6s-162.133333 68.266667-170.666667 153.6H298.666667c8.533333-132.266667 119.466667-238.933333 256-238.933333s247.466667 106.666667 256 238.933333h-85.333334zM810.666667 768z"  /><path fill="#2c2c2c" d="M384 750.933333c0 25.6-17.066667 42.666667-42.666667 42.666667s-42.666667-17.066667-42.666666-42.666667 17.066667-42.666667 42.666666-42.666666 42.666667 17.066667 42.666667 42.666666zM810.666667 750.933333c0 25.6-17.066667 42.666667-42.666667 42.666667s-42.666667-17.066667-42.666667-42.666667 17.066667-42.666667 42.666667-42.666666 42.666667 17.066667 42.666667 42.666666z"  /></svg>