<?xml version="1.0" standalone="no"?><!DOCTYPE svg PUBLIC "-//W3C//DTD SVG 1.1//EN" "http://www.w3.org/Graphics/SVG/1.1/DTD/svg11.dtd"><svg class="icon" width="200px" height="200.00px" viewBox="0 0 1024 1024" version="1.1" xmlns="http://www.w3.org/2000/svg"><path fill="#2c2c2c" d="M853.333333 0H170.666667C76.8 0 0 76.8 0 170.666667v682.666666c0 93.866667 76.8 170.666667 170.666667 170.666667h682.666666c93.866667 0 170.666667-76.8 170.666667-170.666667V170.666667c0-93.866667-76.8-170.666667-170.666667-170.666667z m85.333334 853.333333c0 46.933333-38.4 85.333333-85.333334 85.333334H170.666667c-46.933333 0-85.333333-38.4-85.333334-85.333334V170.666667c0-46.933333 38.4-85.333333 85.333334-85.333334h682.666666c46.933333 0 85.333333 38.4 85.333334 85.333334v682.666666z"  /><path fill="#2c2c2c" d="M396.8 170.666667c-93.866667 0-170.666667 76.8-170.666667 170.666666s76.8 170.666667 170.666667 170.666667 170.666667-76.8 170.666667-170.666667-76.8-170.666667-170.666667-170.666666z m0 256c-46.933333 0-85.333333-38.4-85.333333-85.333334s38.4-85.333333 85.333333-85.333333 85.333333 38.4 85.333333 85.333333-38.4 85.333333-85.333333 85.333334zM750.933333 622.933333c-17.066667-17.066667-42.666667-21.333333-59.733333-4.266666l-123.733333 119.466666c-51.2 51.2-132.266667 46.933333-183.466667-4.266666l-38.4-42.666667c-17.066667-17.066667-42.666667-17.066667-59.733333 0l-192 183.466667c-17.066667 17.066667-42.666667 17.066667-59.733334 0-17.066667-17.066667-17.066667-42.666667 0-59.733334l192-183.466666c51.2-51.2 132.266667-46.933333 183.466667 4.266666l38.4 42.666667c17.066667 17.066667 42.666667 17.066667 59.733333 0l123.733334-119.466667c51.2-51.2 136.533333-46.933333 183.466666 8.533334l183.466667 209.066666c17.066667 17.066667 12.8 42.666667-4.266667 59.733334-17.066667 17.066667-42.666667 12.8-59.733333-4.266667l-183.466667-209.066667z"  /></svg>