<?xml version="1.0" standalone="no"?><!DOCTYPE svg PUBLIC "-//W3C//DTD SVG 1.1//EN" "http://www.w3.org/Graphics/SVG/1.1/DTD/svg11.dtd"><svg class="icon" width="200px" height="200.00px" viewBox="0 0 1024 1024" version="1.1" xmlns="http://www.w3.org/2000/svg"><path d="M0 0h1024v1024H0z" fill="#F2F6F8" /><path d="M469.333333 170.666667H298.666667c-46.933333 0-85.333333 38.4-85.333334 85.333333v256c0 46.933333 38.4 85.333333 85.333334 85.333333h170.666666c46.933333 0 85.333333-38.4 85.333334-85.333333V256c0-46.933333-38.4-85.333333-85.333334-85.333333z m0 341.333333H298.666667V256h170.666666v256z" fill="#303133" /><path d="M640 213.333333c-25.6 0-42.666667 17.066667-42.666667 42.666667s17.066667 42.666667 42.666667 42.666667h128c25.6 0 42.666667-17.066667 42.666667-42.666667s-17.066667-42.666667-42.666667-42.666667h-128zM597.333333 512c0-25.6 17.066667-42.666667 42.666667-42.666667h128c25.6 0 42.666667 17.066667 42.666667 42.666667s-17.066667 42.666667-42.666667 42.666667h-128c-25.6 0-42.666667-17.066667-42.666667-42.666667zM256 725.333333c-25.6 0-42.666667 17.066667-42.666667 42.666667s17.066667 42.666667 42.666667 42.666667h512c25.6 0 42.666667-17.066667 42.666667-42.666667s-17.066667-42.666667-42.666667-42.666667H256z" fill="#303133" /><path d="M853.333333 0H170.666667C123.733333 0 85.333333 38.4 85.333333 85.333333v853.333334c0 46.933333 38.4 85.333333 85.333334 85.333333h682.666666c46.933333 0 85.333333-38.4 85.333334-85.333333V85.333333c0-46.933333-38.4-85.333333-85.333334-85.333333z m0 938.666667H170.666667V85.333333h682.666666v853.333334z" fill="#303133" /></svg>