<?xml version="1.0" standalone="no"?><!DOCTYPE svg PUBLIC "-//W3C//DTD SVG 1.1//EN" "http://www.w3.org/Graphics/SVG/1.1/DTD/svg11.dtd"><svg class="icon" width="200px" height="200.00px" viewBox="0 0 1024 1024" version="1.1" xmlns="http://www.w3.org/2000/svg"><path fill="#2c2c2c" d="M512 750.933333a42.666667 42.666667 0 0 0 42.666667-42.666666V214.016l97.834666 97.834667a42.666667 42.666667 0 0 0 60.330667-60.373334L571.733333 110.336a85.333333 85.333333 0 0 0-119.466666-1.237333l-140.458667 134.826666A42.666667 42.666667 0 0 0 370.858667 305.493333L469.333333 211.029333V708.266667a42.666667 42.666667 0 0 0 42.666667 42.666666zM981.333333 597.333333a42.666667 42.666667 0 1 0-85.333333 0v256H128v-246.357333a42.666667 42.666667 0 1 0-85.333333 0V853.333333a85.333333 85.333333 0 0 0 85.333333 85.333334h768a85.333333 85.333333 0 0 0 85.333333-85.333334v-256z"  /></svg>