<?xml version="1.0" standalone="no"?><!DOCTYPE svg PUBLIC "-//W3C//DTD SVG 1.1//EN" "http://www.w3.org/Graphics/SVG/1.1/DTD/svg11.dtd"><svg class="icon" width="200px" height="200.00px" viewBox="0 0 1024 1024" version="1.1" xmlns="http://www.w3.org/2000/svg"><path fill="#2c2c2c" d="M512 170.666667C418.133333 170.666667 341.333333 247.466667 341.333333 341.333333s76.8 170.666667 170.666667 170.666667 170.666667-76.8 170.666667-170.666667-76.8-170.666667-170.666667-170.666666z m0 256c-46.933333 0-85.333333-38.4-85.333333-85.333334s38.4-85.333333 85.333333-85.333333 85.333333 38.4 85.333333 85.333333-38.4 85.333333-85.333333 85.333334z"  /><path fill="#2c2c2c" d="M512 0C230.4 0 0 230.4 0 512s230.4 512 512 512 512-230.4 512-512S793.6 0 512 0z m213.333333 883.2c-64 34.133333-136.533333 55.466667-213.333333 55.466667-76.8 0-149.333333-21.333333-213.333333-55.466667-4.266667 0-4.266667-4.266667-8.533334-4.266667 4.266667 0 4.266667 4.266667 8.533334 4.266667V853.333333c0-119.466667 93.866667-213.333333 213.333333-213.333333s213.333333 93.866667 213.333333 213.333333v29.866667z m85.333334-64c-17.066667-149.333333-145.066667-264.533333-298.666667-264.533333s-277.333333 115.2-298.666667 264.533333c4.266667 0 4.266667 4.266667 8.533334 4.266667-4.266667 0-4.266667-4.266667-8.533334-4.266667-81.066667-76.8-128-187.733333-128-307.2C85.333333 277.333333 277.333333 85.333333 512 85.333333s426.666667 192 426.666667 426.666667c0 119.466667-51.2 230.4-128 307.2z"  /></svg>