<?xml version="1.0" standalone="no"?><!DOCTYPE svg PUBLIC "-//W3C//DTD SVG 1.1//EN" "http://www.w3.org/Graphics/SVG/1.1/DTD/svg11.dtd"><svg class="icon" width="200px" height="200.00px" viewBox="0 0 1024 1024" version="1.1" xmlns="http://www.w3.org/2000/svg"><path fill="#2c2c2c" d="M512 0C386.844444 0 284.444444 102.4 284.444444 227.555556s102.4 227.555556 227.555556 227.555555 227.555556-102.4 227.555556-227.555555-102.4-227.555556-227.555556-227.555556z m0 379.259259c-83.437037 0-151.703704-68.266667-151.703704-151.703703s68.266667-151.703704 151.703704-151.703704 151.703704 68.266667 151.703704 151.703704-68.266667 151.703704-151.703704 151.703703zM512 606.814815c170.666667 0 314.785185 109.985185 360.296296 265.481481 3.792593 18.962963 18.962963 34.133333 37.925926 34.133334s37.925926-15.17037 37.925926-34.133334c-49.303704-197.214815-227.555556-341.333333-439.940741-341.333333S117.57037 675.081481 68.266667 872.296296c3.792593 18.962963 18.962963 34.133333 37.925926 34.133334s37.925926-15.17037 37.925926-34.133334c53.096296-155.496296 197.214815-265.481481 367.881481-265.481481zM967.111111 986.074074z"  /></svg>