<?xml version="1.0" standalone="no"?><!DOCTYPE svg PUBLIC "-//W3C//DTD SVG 1.1//EN" "http://www.w3.org/Graphics/SVG/1.1/DTD/svg11.dtd"><svg class="icon" width="200px" height="200.00px" viewBox="0 0 1024 1024" version="1.1" xmlns="http://www.w3.org/2000/svg"><path fill="#2c2c2c" d="M405.333333 0C277.333333 0 170.666667 106.666667 170.666667 234.666667S277.333333 469.333333 405.333333 469.333333 640 362.666667 640 234.666667 533.333333 0 405.333333 0z m0 384C324.266667 384 256 315.733333 256 234.666667S324.266667 85.333333 405.333333 85.333333 554.666667 153.6 554.666667 234.666667 486.4 384 405.333333 384zM597.333333 554.666667H213.333333c-119.466667 0-213.333333 93.866667-213.333333 213.333333v256h810.666667v-256c0-119.466667-93.866667-213.333333-213.333334-213.333333z m128 384H85.333333v-170.666667c0-72.533333 55.466667-128 128-128h384c72.533333 0 128 55.466667 128 128v170.666667z"  /><path fill="#2c2c2c" d="M746.666667 38.4c-8.533333-4.266667-17.066667-8.533333-25.6-8.533333-25.6 0-42.666667 17.066667-42.666667 42.666666 0 17.066667 8.533333 29.866667 25.6 38.4 38.4 25.6 64 72.533333 64 123.733334s-25.6 98.133333-68.266667 123.733333c-12.8 8.533333-25.6 21.333333-25.6 38.4 0 25.6 17.066667 42.666667 42.666667 42.666667 8.533333 0 17.066667-4.266667 21.333333-8.533334C810.666667 392.533333 853.333333 320 853.333333 234.666667c0-81.066667-42.666667-153.6-106.666666-196.266667zM938.666667 1024v-256c0-59.733333-42.666667-110.933333-98.133334-123.733333-25.6 0-42.666667-21.333333-42.666666-42.666667 0-25.6 21.333333-42.666667 42.666666-42.666667h8.533334c98.133333 17.066667 174.933333 106.666667 174.933333 209.066667v256h-85.333333z"  /></svg>