<?xml version="1.0" standalone="no"?><!DOCTYPE svg PUBLIC "-//W3C//DTD SVG 1.1//EN" "http://www.w3.org/Graphics/SVG/1.1/DTD/svg11.dtd"><svg class="icon" width="200px" height="200.00px" viewBox="0 0 1024 1024" version="1.1" xmlns="http://www.w3.org/2000/svg"><path fill="#2c2c2c" d="M938.666667 0h-170.666667c-46.933333 0-85.333333 38.4-85.333333 85.333333v853.333334c0 46.933333 38.4 85.333333 85.333333 85.333333h170.666667c46.933333 0 85.333333-38.4 85.333333-85.333333V85.333333c0-46.933333-38.4-85.333333-85.333333-85.333333z m0 938.666667h-170.666667V85.333333h170.666667v853.333334z"  /><path fill="#2c2c2c" d="M682.666667 0h-170.666667c-46.933333 0-85.333333 38.4-85.333333 85.333333v853.333334c0 46.933333 38.4 85.333333 85.333333 85.333333h170.666667c46.933333 0 85.333333-38.4 85.333333-85.333333V85.333333c0-46.933333-38.4-85.333333-85.333333-85.333333z m0 938.666667h-170.666667V85.333333h170.666667v853.333334z"  /><path fill="#2c2c2c" d="M371.2 0h-170.666667c-42.666667 0-81.066667 34.133333-85.333333 76.8l-106.666667 853.333333C4.266667 981.333333 42.666667 1024 93.866667 1024h170.666666c42.666667 0 81.066667-34.133333 85.333334-76.8l106.666666-853.333333c8.533333-46.933333-34.133333-93.866667-85.333333-93.866667zM264.533333 938.666667h-170.666666L204.8 85.333333h170.666667L264.533333 938.666667z"  /><path fill="#2c2c2c" d="M554.666667 256c0-25.6 17.066667-42.666667 42.666666-42.666667s42.666667 17.066667 42.666667 42.666667v85.333333c0 25.6-17.066667 42.666667-42.666667 42.666667s-42.666667-17.066667-42.666666-42.666667V256zM810.666667 256c0-25.6 17.066667-42.666667 42.666666-42.666667s42.666667 17.066667 42.666667 42.666667v85.333333c0 25.6-17.066667 42.666667-42.666667 42.666667s-42.666667-17.066667-42.666666-42.666667V256z"  /></svg>