<?xml version="1.0" standalone="no"?><!DOCTYPE svg PUBLIC "-//W3C//DTD SVG 1.1//EN" "http://www.w3.org/Graphics/SVG/1.1/DTD/svg11.dtd"><svg class="icon" width="200px" height="200.00px" viewBox="0 0 1024 1024" version="1.1" xmlns="http://www.w3.org/2000/svg"><path fill="#2c2c2c" d="M725.333333 554.666667c-119.466667 0-213.333333 93.866667-213.333333 213.333333s93.866667 213.333333 213.333333 213.333333 213.333333-93.866667 213.333334-213.333333-93.866667-213.333333-213.333334-213.333333z m0 341.333333c-72.533333 0-128-55.466667-128-128s55.466667-128 128-128 128 55.466667 128 128-55.466667 128-128 128z"  /><path fill="#2c2c2c" d="M823.466667 866.133333c17.066667-17.066667 42.666667-17.066667 59.733333 0l81.066667 81.066667c17.066667 17.066667 17.066667 42.666667 0 59.733333-17.066667 17.066667-42.666667 17.066667-59.733334 0l-81.066666-81.066666c-17.066667-17.066667-17.066667-42.666667 0-59.733334z"  /><path fill="#2c2c2c" d="M128 85.333333h682.666667v341.333334h85.333333V85.333333c0-46.933333-38.4-85.333333-85.333333-85.333333H128C81.066667 0 42.666667 38.4 42.666667 85.333333v853.333334c0 46.933333 38.4 85.333333 85.333333 85.333333h294.4v-85.333333H128V85.333333z"  /><path fill="#2c2c2c" d="M469.333333 981.333333c0 25.6-17.066667 42.666667-42.666666 42.666667s-42.666667-17.066667-42.666667-42.666667 17.066667-42.666667 42.666667-42.666666 42.666667 17.066667 42.666666 42.666666zM896 426.666667c0 25.6-17.066667 42.666667-42.666667 42.666666s-42.666667-17.066667-42.666666-42.666666 17.066667-42.666667 42.666666-42.666667 42.666667 17.066667 42.666667 42.666667z"  /><path fill="#2c2c2c" d="M213.333333 256c0-25.6 17.066667-42.666667 42.666667-42.666667h426.666667c25.6 0 42.666667 17.066667 42.666666 42.666667s-17.066667 42.666667-42.666666 42.666667H256c-25.6 0-42.666667-17.066667-42.666667-42.666667zM213.333333 469.333333c0-25.6 17.066667-42.666667 42.666667-42.666666h384c25.6 0 42.666667 17.066667 42.666667 42.666666s-17.066667 42.666667-42.666667 42.666667H256c-25.6 0-42.666667-17.066667-42.666667-42.666667zM213.333333 682.666667c0-25.6 17.066667-42.666667 42.666667-42.666667h128c25.6 0 42.666667 17.066667 42.666667 42.666667s-17.066667 42.666667-42.666667 42.666666H256c-25.6 0-42.666667-17.066667-42.666667-42.666666z"  /></svg>