<?xml version="1.0" standalone="no"?><!DOCTYPE svg PUBLIC "-//W3C//DTD SVG 1.1//EN" "http://www.w3.org/Graphics/SVG/1.1/DTD/svg11.dtd"><svg class="icon" width="200px" height="200.00px" viewBox="0 0 1024 1024" version="1.1" xmlns="http://www.w3.org/2000/svg"><path fill="#2c2c2c" d="M925.866667 384h-768c-42.666667 0-76.8 29.866667-85.333334 72.533333l-59.733333 384c-8.533333 51.2 34.133333 98.133333 85.333333 98.133334h768c42.666667 0 76.8-29.866667 85.333334-72.533334l59.733333-384c4.266667-51.2-34.133333-98.133333-85.333333-98.133333z m-59.733334 469.333333h-768l59.733334-384h768l-59.733334 384z"  /><path fill="#2c2c2c" d="M0 170.666667c0-46.933333 38.4-85.333333 85.333333-85.333334h238.933334c25.6 0 51.2 12.8 68.266666 29.866667L469.333333 213.333333h384c46.933333 0 85.333333 38.4 85.333334 85.333334v128h-85.333334V298.666667h-384c-25.6 0-51.2-12.8-68.266666-29.866667L324.266667 170.666667H85.333333v640h4.266667v85.333333H85.333333c-46.933333 0-85.333333-38.4-85.333333-85.333333V170.666667z"  /></svg>