<?xml version="1.0" standalone="no"?><!DOCTYPE svg PUBLIC "-//W3C//DTD SVG 1.1//EN" "http://www.w3.org/Graphics/SVG/1.1/DTD/svg11.dtd"><svg class="icon" width="200px" height="200.00px" viewBox="0 0 1024 1024" version="1.1" xmlns="http://www.w3.org/2000/svg"><path fill="#2c2c2c" d="M507.818667 224c185.770667 0 348.416 98.944 438.186666 247.04l69.589334-49.749333c-105.386667-169.642667-293.376-282.624-507.818667-282.624C293.418667 138.666667 105.386667 251.648 0 421.290667l69.632 49.706666a511.701333 511.701333 0 0 1 438.186667-246.997333z"  /><path fill="#2c2c2c" d="M156.757333 533.248l69.845334 49.92A319.914667 319.914667 0 0 1 507.733333 416a319.957333 319.957333 0 0 1 281.216 167.125333l69.845334-49.92a405.162667 405.162667 0 0 0-351.061334-202.538666 405.162667 405.162667 0 0 0-351.018666 202.581333z"  /><path fill="#2c2c2c" d="M701.184 645.845333a213.333333 213.333333 0 0 0-386.773333 0l71.466666 51.072a128.042667 128.042667 0 0 1 243.84 0l71.466667-51.072zM507.776 885.290667a64 64 0 1 0 0-128 64 64 0 0 0 0 128z"  /></svg>