<?xml version="1.0" standalone="no"?><!DOCTYPE svg PUBLIC "-//W3C//DTD SVG 1.1//EN" "http://www.w3.org/Graphics/SVG/1.1/DTD/svg11.dtd"><svg class="icon" width="200px" height="200.00px" viewBox="0 0 1024 1024" version="1.1" xmlns="http://www.w3.org/2000/svg"><path fill="#2c2c2c" d="M913.066667 273.066667L665.6 25.6c-12.8-17.066667-34.133333-25.6-59.733333-25.6H170.666667C123.733333 0 85.333333 38.4 85.333333 85.333333v853.333334c0 46.933333 38.4 85.333333 85.333334 85.333333h682.666666c46.933333 0 85.333333-38.4 85.333334-85.333333V332.8c0-21.333333-8.533333-42.666667-25.6-59.733333zM640 119.466667L819.2 298.666667H640V119.466667zM853.333333 938.666667H170.666667V85.333333h384v213.333334c0 46.933333 38.4 85.333333 85.333333 85.333333h213.333333v554.666667z"  /><path fill="#2c2c2c" d="M332.8 853.333333h115.2l34.133333-166.4 12.8-89.6h4.266667l12.8 89.6 34.133333 166.4h115.2l64-379.733333h-85.333333l-25.6 174.933333c-4.266667 38.4-8.533333 81.066667-12.8 119.466667H597.333333c-8.533333-42.666667-12.8-81.066667-21.333333-119.466667l-38.4-174.933333h-76.8l-38.4 174.933333c-8.533333 38.4-17.066667 76.8-25.6 119.466667l-17.066667-119.466667-25.6-174.933333H264.533333L332.8 853.333333z"  /></svg>