<?xml version="1.0" standalone="no"?><!DOCTYPE svg PUBLIC "-//W3C//DTD SVG 1.1//EN" "http://www.w3.org/Graphics/SVG/1.1/DTD/svg11.dtd"><svg class="icon" width="200px" height="200.00px" viewBox="0 0 1024 1024" version="1.1" xmlns="http://www.w3.org/2000/svg"><path fill="#2c2c2c" d="M256 85.333333h682.666667v853.333334H256v-128H170.666667v128c0 46.933333 38.4 85.333333 85.333333 85.333333h682.666667c46.933333 0 85.333333-38.4 85.333333-85.333333V85.333333c0-46.933333-38.4-85.333333-85.333333-85.333333H256C209.066667 0 170.666667 38.4 170.666667 85.333333v128h85.333333V85.333333z"  /><path fill="#2c2c2c" d="M512 213.333333H85.333333C38.4 213.333333 0 251.733333 0 298.666667v426.666666c0 46.933333 38.4 85.333333 85.333333 85.333334h426.666667c46.933333 0 85.333333-38.4 85.333333-85.333334V298.666667c0-46.933333-38.4-85.333333-85.333333-85.333334z m0 512H85.333333V298.666667h426.666667v426.666666z"  /><path fill="#2c2c2c" d="M149.333333 682.666667h93.866667l29.866667-136.533334c4.266667-25.6 8.533333-51.2 12.8-72.533333 4.266667 25.6 8.533333 51.2 12.8 72.533333l29.866666 136.533334H426.666667l55.466666-315.733334H405.333333L384 507.733333l-12.8 102.4c-4.266667-34.133333-12.8-68.266667-17.066667-102.4l-34.133333-140.8H256L221.866667 512c-4.266667 34.133333-12.8 68.266667-17.066667 102.4L192 512 170.666667 366.933333H89.6L149.333333 682.666667zM640 298.666667c0-25.6 17.066667-42.666667 42.666667-42.666667h128c25.6 0 42.666667 17.066667 42.666666 42.666667s-17.066667 42.666667-42.666666 42.666666h-128c-25.6 0-42.666667-17.066667-42.666667-42.666666zM640 512c0-25.6 17.066667-42.666667 42.666667-42.666667h128c25.6 0 42.666667 17.066667 42.666666 42.666667s-17.066667 42.666667-42.666666 42.666667h-128c-25.6 0-42.666667-17.066667-42.666667-42.666667zM682.666667 682.666667c-25.6 0-42.666667 17.066667-42.666667 42.666666s17.066667 42.666667 42.666667 42.666667h128c25.6 0 42.666667-17.066667 42.666666-42.666667s-17.066667-42.666667-42.666666-42.666666h-128z"  /></svg>