<?xml version="1.0" standalone="no"?><!DOCTYPE svg PUBLIC "-//W3C//DTD SVG 1.1//EN" "http://www.w3.org/Graphics/SVG/1.1/DTD/svg11.dtd"><svg class="icon" width="200px" height="200.00px" viewBox="0 0 1024 1024" version="1.1" xmlns="http://www.w3.org/2000/svg"><path fill="#2c2c2c" d="M938.666667 256h-85.333334l-102.4-136.533333c-17.066667-21.333333-42.666667-34.133333-68.266666-34.133334H341.333333c-25.6 0-51.2 12.8-68.266666 34.133334L170.666667 256H85.333333C38.4 256 0 294.4 0 341.333333v512c0 46.933333 38.4 85.333333 85.333333 85.333334h853.333334c46.933333 0 85.333333-38.4 85.333333-85.333334V341.333333c0-46.933333-38.4-85.333333-85.333333-85.333333z m0 597.333333H85.333333V341.333333h128l128-170.666666h341.333334l128 170.666666h128v512z"  /><path fill="#2c2c2c" d="M512 341.333333c-119.466667 0-213.333333 93.866667-213.333333 213.333334s93.866667 213.333333 213.333333 213.333333 213.333333-93.866667 213.333333-213.333333-93.866667-213.333333-213.333333-213.333334z m0 341.333334c-72.533333 0-128-55.466667-128-128s55.466667-128 128-128 128 55.466667 128 128-55.466667 128-128 128zM725.333333 426.666667c0-25.6 17.066667-42.666667 42.666667-42.666667h85.333333c25.6 0 42.666667 17.066667 42.666667 42.666667s-17.066667 42.666667-42.666667 42.666666h-85.333333c-25.6 0-42.666667-17.066667-42.666667-42.666666z"  /></svg>