<?xml version="1.0" standalone="no"?><!DOCTYPE svg PUBLIC "-//W3C//DTD SVG 1.1//EN" "http://www.w3.org/Graphics/SVG/1.1/DTD/svg11.dtd"><svg class="icon" width="200px" height="200.00px" viewBox="0 0 1024 1024" version="1.1" xmlns="http://www.w3.org/2000/svg"><path fill="#2c2c2c" d="M921.6 750.933333L853.333333 682.666667v-213.333334c0-145.066667-93.866667-273.066667-221.866666-320 4.266667 0 4.266667 0 8.533333 4.266667V128c0-72.533333-55.466667-128-128-128S384 55.466667 384 128c0 8.533333 0 17.066667 4.266667 25.6C260.266667 200.533333 170.666667 324.266667 170.666667 469.333333v213.333334l-68.266667 68.266666C51.2 802.133333 85.333333 896 162.133333 896h695.466667c81.066667 0 115.2-93.866667 64-145.066667zM512 85.333333c25.6 0 42.666667 17.066667 42.666667 42.666667v4.266667h8.533333C546.133333 128 529.066667 128 512 128c-12.8 0-29.866667 0-42.666667 4.266667V128c0-25.6 17.066667-42.666667 42.666667-42.666667zM162.133333 810.666667L256 716.8V469.333333c0-140.8 115.2-256 256-256s256 115.2 256 256v247.466667l93.866667 93.866667H162.133333z"  /><path fill="#2c2c2c" d="M341.333333 938.666667c-25.6 0-42.666667 17.066667-42.666666 42.666666s17.066667 42.666667 42.666666 42.666667h341.333334c25.6 0 42.666667-17.066667 42.666666-42.666667s-17.066667-42.666667-42.666666-42.666666H341.333333z"  /></svg>