<?xml version="1.0" standalone="no"?><!DOCTYPE svg PUBLIC "-//W3C//DTD SVG 1.1//EN" "http://www.w3.org/Graphics/SVG/1.1/DTD/svg11.dtd"><svg class="icon" width="200px" height="200.00px" viewBox="0 0 1024 1024" version="1.1" xmlns="http://www.w3.org/2000/svg"><path fill="#2c2c2c" d="M955.733333 759.466667L896 682.666667v-213.333334c0-196.266667-149.333333-358.4-341.333333-379.733333V42.666667c0-25.6-17.066667-42.666667-42.666667-42.666667s-42.666667 17.066667-42.666667 42.666667v42.666666c-192 21.333333-341.333333 187.733333-341.333333 384v213.333334l-59.733333 76.8c-42.666667 55.466667-4.266667 136.533333 68.266666 136.533333h213.333334c17.066667 72.533333 85.333333 128 166.4 128s145.066667-55.466667 166.4-128h213.333333c64 0 102.4-81.066667 59.733333-136.533333zM512 938.666667c-29.866667 0-59.733333-17.066667-72.533333-42.666667h149.333333c-17.066667 25.6-46.933333 42.666667-76.8 42.666667z m-375.466667-128L213.333333 712.533333V469.333333c0-162.133333 128-294.4 290.133334-298.666666h17.066666c162.133333 4.266667 290.133333 136.533333 290.133334 298.666666v243.2l76.8 98.133334H136.533333z"  /></svg>