<?xml version="1.0" standalone="no"?><!DOCTYPE svg PUBLIC "-//W3C//DTD SVG 1.1//EN" "http://www.w3.org/Graphics/SVG/1.1/DTD/svg11.dtd"><svg class="icon" width="200px" height="200.00px" viewBox="0 0 1024 1024" version="1.1" xmlns="http://www.w3.org/2000/svg"><path fill="#2c2c2c" d="M119.466667 477.866667v281.6c0 34.133333 21.333333 68.266667 51.2 81.066666l268.8 115.2c42.666667 17.066667 89.6 17.066667 132.266666 0l268.8-115.2c34.133333-12.8 51.2-46.933333 51.2-81.066666v-281.6h-85.333333v281.6l-268.8 115.2c-21.333333 8.533333-46.933333 8.533333-68.266667 0l-268.8-115.2v-281.6H119.466667z"  /><path fill="#2c2c2c" d="M994.133333 247.466667l-469.333333-170.666667c-8.533333-4.266667-21.333333-4.266667-29.866667 0l-469.333333 170.666667c-38.4 12.8-38.4 68.266667 0 81.066666l469.333333 170.666667c8.533333 4.266667 21.333333 4.266667 29.866667 0l469.333333-170.666667c38.4-17.066667 38.4-68.266667 0-81.066666zM512 409.6L170.666667 285.866667l341.333333-123.733334 341.333333 123.733334-341.333333 123.733333z"  /><path fill="#2c2c2c" d="M977.066667 268.8c25.6 0 42.666667 21.333333 42.666666 42.666667v260.266666c0 25.6-21.333333 42.666667-42.666666 42.666667-25.6 0-42.666667-21.333333-42.666667-42.666667V311.466667c0-21.333333 21.333333-42.666667 42.666667-42.666667z"  /><path fill="#2c2c2c" d="M209.066667 473.6c0 25.6-21.333333 42.666667-42.666667 42.666667s-42.666667-21.333333-42.666667-42.666667c0-25.6 21.333333-42.666667 42.666667-42.666667s42.666667 17.066667 42.666667 42.666667zM904.533333 473.6c0 25.6-21.333333 42.666667-42.666666 42.666667-25.6 0-42.666667-21.333333-42.666667-42.666667 0-25.6 21.333333-42.666667 42.666667-42.666667s42.666667 17.066667 42.666666 42.666667z"  /></svg>