<?xml version="1.0" standalone="no"?><!DOCTYPE svg PUBLIC "-//W3C//DTD SVG 1.1//EN" "http://www.w3.org/Graphics/SVG/1.1/DTD/svg11.dtd"><svg class="icon" width="200px" height="200.00px" viewBox="0 0 1024 1024" version="1.1" xmlns="http://www.w3.org/2000/svg"><path fill="#2c2c2c" d="M857.6 162.133333c-42.666667-8.533333-93.866667-17.066667-132.266667-38.4-51.2-25.6-110.933333-68.266667-153.6-102.4-34.133333-25.6-81.066667-25.6-115.2 0C409.6 59.733333 349.866667 102.4 298.666667 128c-38.4 17.066667-89.6 29.866667-132.266667 34.133333C119.466667 170.666667 85.333333 209.066667 85.333333 251.733333v162.133334c0 192 85.333333 375.466667 238.933334 499.2l81.066666 64c64 51.2 153.6 51.2 213.333334 0l81.066666-68.266667c145.066667-119.466667 230.4-298.666667 234.666667-486.4L938.666667 256c0-46.933333-34.133333-85.333333-81.066667-93.866667z m-8.533333 260.266667c-4.266667 162.133333-76.8 320-204.8 422.4l-81.066667 68.266667c-29.866667 25.6-76.8 25.6-106.666667 0l-81.066666-64C247.466667 738.133333 170.666667 580.266667 170.666667 413.866667V251.733333l4.266666-4.266666c42.666667-8.533333 106.666667-21.333333 157.866667-42.666667 59.733333-29.866667 128-76.8 170.666667-110.933333h8.533333c42.666667 34.133333 110.933333 85.333333 170.666667 110.933333 51.2 21.333333 110.933333 34.133333 157.866666 42.666667 4.266667 0 4.266667 0 4.266667 4.266666l4.266667 170.666667z"  /><path fill="#2c2c2c" d="M742.4 366.933333c17.066667 17.066667 17.066667 42.666667 0 59.733334l-226.133333 217.6c-34.133333 34.133333-93.866667 29.866667-123.733334-4.266667l-110.933333-132.266667c-17.066667-17.066667-12.8-42.666667 4.266667-59.733333 17.066667-17.066667 42.666667-12.8 59.733333 4.266667l110.933333 132.266666L682.666667 366.933333c17.066667-17.066667 42.666667-17.066667 59.733333 0z"  /></svg>