<?xml version="1.0" standalone="no"?><!DOCTYPE svg PUBLIC "-//W3C//DTD SVG 1.1//EN" "http://www.w3.org/Graphics/SVG/1.1/DTD/svg11.dtd"><svg class="icon" width="200px" height="200.00px" viewBox="0 0 1024 1024" version="1.1" xmlns="http://www.w3.org/2000/svg"><path fill="#2c2c2c" d="M913.066667 230.4L708.266667 25.6c-12.8-17.066667-34.133333-25.6-59.733334-25.6H170.666667C123.733333 0 85.333333 38.4 85.333333 85.333333v853.333334c0 46.933333 38.4 85.333333 85.333334 85.333333h682.666666c46.933333 0 85.333333-38.4 85.333334-85.333333V290.133333c0-21.333333-8.533333-42.666667-25.6-59.733333zM853.333333 938.666667H170.666667V85.333333h469.333333l213.333333 213.333334v640z"  /><path fill="#2c2c2c" d="M426.666667 170.666667H341.333333v85.333333h85.333334v85.333333H341.333333v85.333334h85.333334v85.333333H341.333333v85.333333h85.333334v85.333334H341.333333v85.333333h85.333334v85.333333h85.333333v-85.333333h-85.333333v-85.333333h85.333333v-85.333334h-85.333333v-85.333333h85.333333v-85.333333h-85.333333V341.333333h85.333333V256h-85.333333V170.666667z"  /></svg>