<?xml version="1.0" standalone="no"?><!DOCTYPE svg PUBLIC "-//W3C//DTD SVG 1.1//EN" "http://www.w3.org/Graphics/SVG/1.1/DTD/svg11.dtd"><svg class="icon" width="200px" height="200.00px" viewBox="0 0 1024 1024" version="1.1" xmlns="http://www.w3.org/2000/svg"><path fill="#2c2c2c" d="M853.333333 1024c46.933333 0 85.333333-38.4 85.333334-85.333333v-85.333334h-85.333334v85.333334H170.666667v-85.333334H85.333333v85.333334c0 46.933333 38.4 85.333333 85.333334 85.333333h682.666666zM85.333333 341.333333h85.333334V85.333333h469.333333c4.266667 4.266667 17.066667 17.066667 29.866667 34.133334C729.6 174.933333 836.266667 281.6 853.333333 298.666667v42.666666h85.333334V290.133333c0-21.333333-8.533333-42.666667-25.6-59.733333L708.266667 25.6c-12.8-17.066667-34.133333-25.6-59.733334-25.6H170.666667C123.733333 0 85.333333 38.4 85.333333 85.333333v256z"  /><path fill="#2c2c2c" d="M938.666667 341.333333H85.333333c-46.933333 0-85.333333 38.4-85.333333 85.333334v341.333333c0 46.933333 38.4 85.333333 85.333333 85.333333h853.333334c46.933333 0 85.333333-38.4 85.333333-85.333333v-341.333333c0-46.933333-38.4-85.333333-85.333333-85.333334z m0 426.666667H85.333333v-341.333333h853.333334v341.333333z"  /><path fill="#2c2c2c" d="M273.066667 725.333333h187.733333v-51.2H349.866667l110.933333-166.4V469.333333H285.866667v51.2H384l-110.933333 166.4v38.4zM503.466667 725.333333h59.733333v-256h-59.733333v256zM622.933333 725.333333H682.666667v-85.333333h29.866666c55.466667 0 102.4-25.6 102.4-85.333333 0-64-46.933333-81.066667-102.4-81.066667h-89.6V725.333333z m59.733334-132.266666v-72.533334h25.6c29.866667 0 46.933333 8.533333 46.933333 34.133334 0 25.6-12.8 38.4-42.666667 38.4H682.666667z"  /></svg>