<?xml version="1.0" standalone="no"?><!DOCTYPE svg PUBLIC "-//W3C//DTD SVG 1.1//EN" "http://www.w3.org/Graphics/SVG/1.1/DTD/svg11.dtd"><svg class="icon" width="200px" height="192.12px" viewBox="0 0 1066 1024" version="1.1" xmlns="http://www.w3.org/2000/svg"><path fill="#2c2c2c" d="M512 213.333333c-187.733333 0-341.333333 153.6-341.333333 341.333334v341.333333h682.666666v-341.333333c0-187.733333-153.6-341.333333-341.333333-341.333334z m256 597.333334H256v-256c0-140.8 115.2-256 256-256s256 115.2 256 256v256zM170.666667 981.333333c0-25.6 17.066667-42.666667 42.666666-42.666666h597.333334c25.6 0 42.666667 17.066667 42.666666 42.666666s-17.066667 42.666667-42.666666 42.666667H213.333333c-25.6 0-42.666667-17.066667-42.666666-42.666667zM512 21.333333c25.6 0 42.666667 17.066667 42.666667 42.666667V128c0 25.6-17.066667 42.666667-42.666667 42.666667s-42.666667-17.066667-42.666667-42.666667V64c0-25.6 17.066667-42.666667 42.666667-42.666667zM119.466667 162.133333c17.066667-17.066667 42.666667-17.066667 59.733333 0l46.933333 46.933334c17.066667 17.066667 17.066667 42.666667 0 59.733333-17.066667 17.066667-42.666667 17.066667-59.733333 0L119.466667 221.866667c-17.066667-17.066667-17.066667-42.666667 0-59.733334zM904.533333 162.133333c-17.066667-17.066667-42.666667-17.066667-59.733333 0l-46.933333 46.933334c-17.066667 17.066667-17.066667 42.666667 0 59.733333 17.066667 17.066667 42.666667 17.066667 59.733333 0l46.933333-46.933333c17.066667-17.066667 17.066667-42.666667 0-59.733334zM0 512c0-25.6 17.066667-42.666667 42.666667-42.666667h64c25.6 0 42.666667 17.066667 42.666666 42.666667s-17.066667 42.666667-42.666666 42.666667H42.666667c-21.333333 0-42.666667-17.066667-42.666667-42.666667zM874.666667 512c0-25.6 17.066667-42.666667 42.666666-42.666667H981.333333c25.6 0 42.666667 17.066667 42.666667 42.666667s-17.066667 42.666667-42.666667 42.666667h-64c-21.333333 0-42.666667-17.066667-42.666666-42.666667z"  /></svg>