<?xml version="1.0" standalone="no"?><!DOCTYPE svg PUBLIC "-//W3C//DTD SVG 1.1//EN" "http://www.w3.org/Graphics/SVG/1.1/DTD/svg11.dtd"><svg class="icon" width="200px" height="200.00px" viewBox="0 0 1024 1024" version="1.1" xmlns="http://www.w3.org/2000/svg"><path fill="#2c2c2c" d="M516.266667 25.6c25.6 0 42.666667 17.066667 42.666666 42.666667v746.666666c0 25.6-17.066667 42.666667-42.666666 42.666667s-42.666667-17.066667-42.666667-42.666667V68.266667c0-25.6 21.333333-42.666667 42.666667-42.666667z"  /><path fill="#2c2c2c" d="M379.733333 661.333333l-128 8.533334c-93.866667 8.533333-166.4 89.6-157.866666 183.466666 8.533333 93.866667 89.6 166.4 183.466666 157.866667l128-8.533333c93.866667-8.533333 166.4-89.6 157.866667-183.466667-8.533333-93.866667-89.6-162.133333-183.466667-157.866667z m17.066667 256l-128 8.533334c-46.933333 4.266667-89.6-29.866667-89.6-76.8-4.266667-46.933333 29.866667-89.6 76.8-89.6l128-8.533334c46.933333-4.266667 89.6 29.866667 89.6 76.8 4.266667 46.933333-29.866667 85.333333-76.8 89.6zM849.066667 115.2c-21.333333 0-42.666667 0-64-4.266667-25.6-4.266667-42.666667-12.8-59.733334-21.333333-17.066667-8.533333-34.133333-17.066667-59.733333-21.333333-72.533333-17.066667-192 0-192 0v341.333333s38.4-4.266667 85.333333-8.533333c34.133333 0 76.8 0 106.666667 8.533333 21.333333 4.266667 42.666667 12.8 59.733333 21.333333 17.066667 8.533333 34.133333 17.066667 59.733334 21.333334 25.6 4.266667 55.466667 4.266667 85.333333 4.266666 42.666667 0 76.8-38.4 76.8-81.066666v-170.666667c-4.266667-46.933333-46.933333-89.6-98.133333-89.6z m8.533333 256c-21.333333 0-42.666667 0-59.733333-4.266667-12.8-4.266667-21.333333-8.533333-38.4-12.8-17.066667-8.533333-42.666667-21.333333-76.8-25.6-38.4-8.533333-85.333333-8.533333-123.733334-8.533333v-170.666667c34.133333 0 68.266667 0 89.6 4.266667 12.8 4.266667 21.333333 8.533333 38.4 17.066667s42.666667 21.333333 76.8 25.6c25.6 4.266667 55.466667 8.533333 81.066667 8.533333 4.266667 0 8.533333 0 8.533333 4.266667v162.133333z"  /></svg>