<?xml version="1.0" standalone="no"?><!DOCTYPE svg PUBLIC "-//W3C//DTD SVG 1.1//EN" "http://www.w3.org/Graphics/SVG/1.1/DTD/svg11.dtd"><svg class="icon" width="200px" height="200.00px" viewBox="0 0 1024 1024" version="1.1" xmlns="http://www.w3.org/2000/svg"><path fill="#2c2c2c" d="M550.4 85.333333L213.333333 298.666667H85.333333C38.4 298.666667 0 337.066667 0 384v256c0 46.933333 38.4 85.333333 85.333333 85.333333h128l337.066667 213.333334c55.466667 34.133333 132.266667-4.266667 132.266667-72.533334V153.6c0-64-72.533333-106.666667-132.266667-68.266667zM597.333333 870.4L238.933333 640H85.333333V384h153.6L597.333333 153.6v716.8z"  /><path fill="#2c2c2c" d="M793.6 362.666667c0-4.266667 0-4.266667 0 0-12.8-8.533333-21.333333-12.8-29.866667-12.8-8.533333 0-21.333333 4.266667-25.6 8.533333-8.533333 8.533333-12.8 21.333333-12.8 34.133333 0 12.8 4.266667 25.6 12.8 34.133334 21.333333 21.333333 34.133333 46.933333 34.133334 76.8s-12.8 59.733333-34.133334 76.8c-12.8 8.533333-21.333333 21.333333-21.333333 38.4 0 25.6 21.333333 42.666667 42.666667 42.666666 8.533333 0 17.066667-4.266667 21.333333-8.533333l4.266667-4.266667c38.4-34.133333 64-85.333333 64-145.066666 8.533333-55.466667-17.066667-106.666667-55.466667-140.8zM925.866667 264.533333c59.733333 59.733333 98.133333 145.066667 98.133333 238.933334 0 93.866667-38.4 174.933333-93.866667 238.933333-8.533333 8.533333-17.066667 12.8-29.866666 12.8-12.8 0-21.333333-4.266667-29.866667-12.8-8.533333-8.533333-12.8-17.066667-12.8-29.866667 0-12.8 4.266667-21.333333 12.8-29.866666 42.666667-46.933333 68.266667-106.666667 68.266667-174.933334 0-68.266667-25.6-128-68.266667-174.933333-8.533333-8.533333-12.8-17.066667-12.8-29.866667 0-12.8 4.266667-21.333333 12.8-29.866666 8.533333-8.533333 17.066667-12.8 29.866667-12.8 8.533333-8.533333 21.333333-4.266667 25.6 4.266666z"  /></svg>