<?xml version="1.0" standalone="no"?><!DOCTYPE svg PUBLIC "-//W3C//DTD SVG 1.1//EN" "http://www.w3.org/Graphics/SVG/1.1/DTD/svg11.dtd"><svg class="icon" width="200px" height="200.00px" viewBox="0 0 1024 1024" version="1.1" xmlns="http://www.w3.org/2000/svg"><path fill="#2c2c2c" d="M866.133333 196.266667c0-25.6-21.333333-42.666667-46.933333-42.666667l-426.666667 29.866667c-21.333333 0-38.4 21.333333-38.4 42.666666v520.533334c0 25.6-17.066667 42.666667-42.666666 42.666666s-42.666667-17.066667-42.666667-42.666666V226.133333c0-68.266667 51.2-123.733333 119.466667-128l426.666666-29.866666c72.533333-4.266667 136.533333 55.466667 136.533334 128v507.733333c0 25.6-17.066667 42.666667-42.666667 42.666667s-42.666667-17.066667-42.666667-42.666667V196.266667z"  /><path fill="#2c2c2c" d="M917.333333 345.6c0 25.6-17.066667 42.666667-38.4 46.933333l-529.066666 42.666667c-25.6 0-42.666667-17.066667-46.933334-38.4 0-25.6 17.066667-42.666667 38.4-46.933333l529.066667-42.666667c25.6-4.266667 46.933333 12.8 46.933333 38.4zM384 797.866667c-17.066667-68.266667-102.4-106.666667-196.266667-85.333334-89.6 21.333333-153.6 93.866667-136.533333 166.4 17.066667 68.266667 102.4 106.666667 196.266667 85.333334 89.6-25.6 149.333333-98.133333 136.533333-166.4z m-93.866667 42.666666c-12.8 12.8-34.133333 29.866667-64 34.133334s-55.466667 8.533333-72.533333 0c-17.066667-8.533333-21.333333-17.066667-21.333333-17.066667 0-4.266667 0-12.8 8.533333-25.6 12.8-12.8 34.133333-29.866667 64-34.133333 29.866667-8.533333 55.466667-4.266667 72.533333 4.266666 17.066667 4.266667 21.333333 12.8 21.333334 17.066667 0 0 4.266667 8.533333-8.533334 21.333333zM972.8 746.666667c-17.066667-68.266667-102.4-106.666667-196.266667-85.333334-89.6 21.333333-153.6 93.866667-136.533333 166.4 17.066667 68.266667 102.4 106.666667 196.266667 85.333334 93.866667-21.333333 153.6-98.133333 136.533333-166.4z m-93.866667 46.933333c-12.8 12.8-34.133333 29.866667-64 34.133333s-55.466667 4.266667-72.533333-4.266666c-12.8-4.266667-17.066667-12.8-17.066667-17.066667 0-4.266667 0-12.8 8.533334-25.6 12.8-12.8 34.133333-29.866667 64-34.133333 29.866667-8.533333 55.466667-4.266667 72.533333 4.266666 17.066667 8.533333 21.333333 17.066667 21.333333 17.066667 0 4.266667 0 12.8-12.8 25.6z"  /></svg>