<?xml version="1.0" standalone="no"?><!DOCTYPE svg PUBLIC "-//W3C//DTD SVG 1.1//EN" "http://www.w3.org/Graphics/SVG/1.1/DTD/svg11.dtd"><svg class="icon" width="200px" height="200.00px" viewBox="0 0 1024 1024" version="1.1" xmlns="http://www.w3.org/2000/svg"><path fill="#2c2c2c" d="M913.066667 273.066667L665.6 25.6c-12.8-17.066667-34.133333-25.6-59.733333-25.6H170.666667C123.733333 0 85.333333 38.4 85.333333 85.333333v853.333334c0 46.933333 38.4 85.333333 85.333334 85.333333h682.666666c46.933333 0 85.333333-38.4 85.333334-85.333333V332.8c0-21.333333-8.533333-42.666667-25.6-59.733333zM853.333333 938.666667H170.666667V85.333333h426.666666c38.4 38.4 221.866667 226.133333 256 256v597.333334z"  /><path fill="#2c2c2c" d="M426.666667 554.666667c-93.866667 0-170.666667 76.8-170.666667 170.666666s76.8 170.666667 170.666667 170.666667 170.666667-76.8 170.666666-170.666667-76.8-170.666667-170.666666-170.666666z m0 256c-46.933333 0-85.333333-38.4-85.333334-85.333334s38.4-85.333333 85.333334-85.333333 85.333333 38.4 85.333333 85.333333-38.4 85.333333-85.333333 85.333334z"  /><path fill="#2c2c2c" d="M503.466667 324.266667c0-72.533333 85.333333-110.933333 140.8-64L742.4 341.333333c17.066667 17.066667 21.333333 42.666667 4.266667 59.733334-17.066667 17.066667-42.666667 21.333333-59.733334 4.266666l-98.133333-81.066666v332.8c0 25.6-17.066667 42.666667-42.666667 42.666666s-42.666667-17.066667-42.666666-42.666666V324.266667z"  /></svg>