<?xml version="1.0" standalone="no"?><!DOCTYPE svg PUBLIC "-//W3C//DTD SVG 1.1//EN" "http://www.w3.org/Graphics/SVG/1.1/DTD/svg11.dtd"><svg class="icon" width="200px" height="200.00px" viewBox="0 0 1024 1024" version="1.1" xmlns="http://www.w3.org/2000/svg"><path fill="#2c2c2c" d="M1024 426.666667V298.666667c0-93.866667-76.8-170.666667-170.666667-170.666667H170.666667C76.8 128 0 204.8 0 298.666667v128c46.933333 0 85.333333 38.4 85.333333 85.333333s-38.4 85.333333-85.333333 85.333333v128c0 93.866667 76.8 170.666667 170.666667 170.666667h682.666666c93.866667 0 170.666667-76.8 170.666667-170.666667v-128c-46.933333 0-85.333333-38.4-85.333333-85.333333s38.4-85.333333 85.333333-85.333333z m-85.333333-64c-51.2 29.866667-85.333333 85.333333-85.333334 149.333333s34.133333 119.466667 85.333334 149.333333V725.333333c0 46.933333-38.4 85.333333-85.333334 85.333334H170.666667c-46.933333 0-85.333333-38.4-85.333334-85.333334v-64c51.2-29.866667 85.333333-85.333333 85.333334-149.333333s-34.133333-119.466667-85.333334-149.333333V298.666667c0-46.933333 38.4-85.333333 85.333334-85.333334h682.666666c46.933333 0 85.333333 38.4 85.333334 85.333334v64z"  /><path fill="#2c2c2c" d="M558.933333 490.666667h68.266667v46.933333h-89.6v42.666667h89.6v46.933333h-89.6V725.333333h-81.066667v-102.4H362.666667v-46.933333h89.6v-42.666667H362.666667v-46.933333h68.266666L328.533333 311.466667h93.866667l72.533333 149.333333h4.266667l76.8-149.333333h89.6l-106.666667 179.2z"  /></svg>