<?xml version="1.0" standalone="no"?><!DOCTYPE svg PUBLIC "-//W3C//DTD SVG 1.1//EN" "http://www.w3.org/Graphics/SVG/1.1/DTD/svg11.dtd"><svg class="icon" width="200px" height="200.00px" viewBox="0 0 1024 1024" version="1.1" xmlns="http://www.w3.org/2000/svg"><path fill="#2c2c2c" d="M853.333333 128H422.4c-8.533333 38.4-42.666667 64-81.066667 64S268.8 166.4 260.266667 128H170.666667C76.8 128 0 204.8 0 298.666667v426.666666c0 93.866667 76.8 170.666667 170.666667 170.666667h89.6c8.533333-38.4 42.666667-64 81.066666-64s72.533333 25.6 81.066667 64H853.333333c93.866667 0 170.666667-76.8 170.666667-170.666667V298.666667c0-93.866667-76.8-170.666667-170.666667-170.666667z m85.333334 597.333333c0 46.933333-38.4 85.333333-85.333334 85.333334h-379.733333c-29.866667-38.4-81.066667-64-132.266667-64s-102.4 25.6-132.266666 64H170.666667c-46.933333 0-85.333333-38.4-85.333334-85.333334V298.666667c0-46.933333 38.4-85.333333 85.333334-85.333334h38.4c29.866667 38.4 76.8 64 132.266666 64s102.4-25.6 132.266667-64H853.333333c46.933333 0 85.333333 38.4 85.333334 85.333334v426.666666z"  /><path fill="#2c2c2c" d="M337.066667 234.666667c25.6 0 42.666667 17.066667 42.666666 42.666666v59.733334c0 25.6-17.066667 42.666667-42.666666 42.666666s-42.666667-17.066667-42.666667-42.666666V277.333333c0-21.333333 21.333333-42.666667 42.666667-42.666666z m0 174.933333c25.6 0 42.666667 17.066667 42.666666 42.666667v115.2c0 25.6-17.066667 42.666667-42.666666 42.666666s-42.666667-17.066667-42.666667-42.666666v-115.2c0-21.333333 21.333333-42.666667 42.666667-42.666667z m0 234.666667c25.6 0 42.666667 17.066667 42.666666 42.666666v59.733334c0 25.6-17.066667 42.666667-42.666666 42.666666s-42.666667-17.066667-42.666667-42.666666v-59.733334c0-25.6 21.333333-42.666667 42.666667-42.666666zM469.333333 384c0-25.6 17.066667-42.666667 42.666667-42.666667h298.666667c25.6 0 42.666667 17.066667 42.666666 42.666667s-17.066667 42.666667-42.666666 42.666667h-298.666667c-25.6 0-42.666667-17.066667-42.666667-42.666667zM469.333333 635.733333c0-25.6 17.066667-42.666667 42.666667-42.666666h298.666667c25.6 0 42.666667 17.066667 42.666666 42.666666s-17.066667 42.666667-42.666666 42.666667h-298.666667c-25.6 0-42.666667-17.066667-42.666667-42.666667z"  /></svg>