<?xml version="1.0" standalone="no"?><!DOCTYPE svg PUBLIC "-//W3C//DTD SVG 1.1//EN" "http://www.w3.org/Graphics/SVG/1.1/DTD/svg11.dtd"><svg class="icon" width="200px" height="200.00px" viewBox="0 0 1024 1024" version="1.1" xmlns="http://www.w3.org/2000/svg"><path fill="#2c2c2c" d="M853.333333 85.333333H170.666667C76.8 85.333333 0 162.133333 0 256v512c0 93.866667 76.8 170.666667 170.666667 170.666667h682.666666c93.866667 0 170.666667-76.8 170.666667-170.666667V256c0-93.866667-76.8-170.666667-170.666667-170.666667z m85.333334 682.666667c0 46.933333-38.4 85.333333-85.333334 85.333333H170.666667c-46.933333 0-85.333333-38.4-85.333334-85.333333V256c0-46.933333 38.4-85.333333 85.333334-85.333333h682.666666c46.933333 0 85.333333 38.4 85.333334 85.333333v512z"  /><path fill="#2c2c2c" d="M968.533333 140.8c17.066667 17.066667 17.066667 42.666667 0 59.733333l-311.466666 307.2c-81.066667 81.066667-217.6 81.066667-298.666667 0l-302.933333-298.666666c-17.066667-17.066667-17.066667-42.666667 0-59.733334 17.066667-17.066667 42.666667-17.066667 59.733333 0l302.933333 298.666667c51.2 51.2 132.266667 46.933333 179.2 0l311.466667-307.2c17.066667-17.066667 42.666667-17.066667 59.733333 0z"  /></svg>