<?xml version="1.0" standalone="no"?><!DOCTYPE svg PUBLIC "-//W3C//DTD SVG 1.1//EN" "http://www.w3.org/Graphics/SVG/1.1/DTD/svg11.dtd"><svg class="icon" width="200px" height="200.00px" viewBox="0 0 1024 1024" version="1.1" xmlns="http://www.w3.org/2000/svg"><path fill="#2c2c2c" d="M1024 486.4C1024 290.133333 861.866667 128 665.6 128H358.4C162.133333 128 0 290.133333 0 486.4c0 34.133333 8.533333 68.266667 21.333333 93.866667V725.333333c0 93.866667 76.8 170.666667 170.666667 170.666667h17.066667c68.266667 0 128-42.666667 157.866666-102.4l25.6-68.266667H640l29.866667 68.266667c25.6 64 89.6 102.4 157.866666 102.4h17.066667c93.866667 0 170.666667-76.8 170.666667-170.666667v-162.133333-4.266667c4.266667-21.333333 8.533333-46.933333 8.533333-72.533333z m-93.866667 46.933333l-4.266666 17.066667V725.333333c0 46.933333-38.4 85.333333-85.333334 85.333334h-17.066666c-34.133333 0-64-21.333333-76.8-51.2L695.466667 640H337.066667l-51.2 119.466667c-12.8 29.866667-42.666667 51.2-76.8 51.2h-17.066667c-46.933333 0-85.333333-38.4-85.333333-85.333334v-162.133333l-8.533334-17.066667c-8.533333-17.066667-12.8-38.4-12.8-59.733333C85.333333 337.066667 209.066667 213.333333 358.4 213.333333h307.2c149.333333 0 273.066667 123.733333 273.066667 273.066667 0 17.066667-4.266667 34.133333-8.533334 46.933333z"  /><path fill="#2c2c2c" d="M341.333333 298.666667c25.6 0 42.666667 17.066667 42.666667 42.666666v170.666667c0 25.6-17.066667 42.666667-42.666667 42.666667s-42.666667-17.066667-42.666666-42.666667V341.333333c0-25.6 17.066667-42.666667 42.666666-42.666666z"  /><path fill="#2c2c2c" d="M213.333333 426.666667c0-25.6 17.066667-42.666667 42.666667-42.666667h170.666667c25.6 0 42.666667 17.066667 42.666666 42.666667s-17.066667 42.666667-42.666666 42.666666H256c-25.6 0-42.666667-17.066667-42.666667-42.666666z"  /><path fill="#2c2c2c" d="M597.333333 384c0-25.6 17.066667-42.666667 42.666667-42.666667s42.666667 17.066667 42.666667 42.666667-17.066667 42.666667-42.666667 42.666667-42.666667-17.066667-42.666667-42.666667zM704 512c0-25.6 17.066667-42.666667 42.666667-42.666667s42.666667 17.066667 42.666666 42.666667-17.066667 42.666667-42.666666 42.666667-42.666667-17.066667-42.666667-42.666667z"  /></svg>