<?xml version="1.0" standalone="no"?><!DOCTYPE svg PUBLIC "-//W3C//DTD SVG 1.1//EN" "http://www.w3.org/Graphics/SVG/1.1/DTD/svg11.dtd"><svg class="icon" width="200px" height="200.00px" viewBox="0 0 1024 1024" version="1.1" xmlns="http://www.w3.org/2000/svg"><path fill="#2c2c2c" d="M1015.466667 230.4l-21.333334-157.866667c-4.266667-17.066667-17.066667-34.133333-34.133333-34.133333L802.133333 17.066667c-25.6-4.266667-55.466667 4.266667-72.533333 25.6l-51.2 42.666666-68.266667-8.533333c-25.6-4.266667-51.2 21.333333-46.933333 46.933333l8.533333 68.266667-25.6 25.6h-81.066666c-21.333333 0-42.666667 17.066667-42.666667 42.666667V341.333333l-34.133333 29.866667c-98.133333-17.066667-204.8 12.8-285.866667 89.6-128 128-128 332.8 0 460.8 128 128 332.8 128 460.8 0 81.066667-81.066667 110.933333-187.733333 89.6-290.133333L985.6 298.666667c21.333333-17.066667 29.866667-42.666667 29.866667-68.266667z m-452.266667 375.466667l8.533333 42.666666c12.8 76.8-8.533333 157.866667-68.266666 213.333334-93.866667 93.866667-247.466667 93.866667-341.333334 0s-93.866667-247.466667 0-341.333334c55.466667-55.466667 136.533333-81.066667 213.333334-68.266666l42.666666 8.533333 89.6-89.6V298.666667h72.533334l76.8-76.8-4.266667-55.466667 55.466667 4.266667 76.8-76.8 123.733333 17.066666 17.066667 123.733334-362.666667 371.2z"  /><path fill="#2c2c2c" d="M422.4 601.6c-51.2-51.2-132.266667-51.2-179.2 0-51.2 51.2-51.2 132.266667 0 179.2 51.2 51.2 132.266667 51.2 179.2 0 51.2-46.933333 51.2-128 0-179.2z m-59.733333 119.466667c-17.066667 17.066667-42.666667 17.066667-59.733334 0-17.066667-17.066667-17.066667-42.666667 0-59.733334 17.066667-17.066667 42.666667-17.066667 59.733334 0 17.066667 17.066667 17.066667 46.933333 0 59.733334z"  /></svg>