<?xml version="1.0" standalone="no"?><!DOCTYPE svg PUBLIC "-//W3C//DTD SVG 1.1//EN" "http://www.w3.org/Graphics/SVG/1.1/DTD/svg11.dtd"><svg class="icon" width="200px" height="200.00px" viewBox="0 0 1024 1024" version="1.1" xmlns="http://www.w3.org/2000/svg"><path fill="#2c2c2c" d="M512 362.666667c-81.066667 0-149.333333 68.266667-149.333333 149.333333s68.266667 149.333333 149.333333 149.333333 149.333333-68.266667 149.333333-149.333333-68.266667-149.333333-149.333333-149.333333z m0 213.333333c-34.133333 0-64-29.866667-64-64s29.866667-64 64-64 64 29.866667 64 64-29.866667 64-64 64z"  /><path fill="#2c2c2c" d="M998.4 490.666667c-213.333333-375.466667-750.933333-384-977.066667-17.066667l-8.533333 17.066667c-8.533333 12.8-8.533333 29.866667 0 42.666666l8.533333 17.066667c226.133333 371.2 763.733333 358.4 972.8-17.066667 8.533333-12.8 8.533333-29.866667 4.266667-42.666666zM98.133333 512c187.733333-298.666667 622.933333-298.666667 810.666667 0-183.466667 298.666667-622.933333 298.666667-810.666667 0z"  /></svg>