<?xml version="1.0" standalone="no"?><!DOCTYPE svg PUBLIC "-//W3C//DTD SVG 1.1//EN" "http://www.w3.org/Graphics/SVG/1.1/DTD/svg11.dtd"><svg class="icon" width="200px" height="200.00px" viewBox="0 0 1024 1024" version="1.1" xmlns="http://www.w3.org/2000/svg"><path fill="#2c2c2c" d="M85.333333 128c0-25.6 17.066667-42.666667 42.666667-42.666667h128c25.6 0 42.666667-17.066667 42.666667-42.666666s-17.066667-42.666667-42.666667-42.666667H128C55.466667 0 0 55.466667 0 128v128c0 25.6 17.066667 42.666667 42.666667 42.666667s42.666667-17.066667 42.666666-42.666667V128zM85.333333 896c0 25.6 17.066667 42.666667 42.666667 42.666667h128c25.6 0 42.666667 17.066667 42.666667 42.666666s-17.066667 42.666667-42.666667 42.666667H128c-72.533333 0-128-55.466667-128-128v-128c0-25.6 17.066667-42.666667 42.666667-42.666667s42.666667 17.066667 42.666666 42.666667v128zM896 85.333333c25.6 0 42.666667 17.066667 42.666667 42.666667v128c0 25.6 17.066667 42.666667 42.666666 42.666667s42.666667-17.066667 42.666667-42.666667V128c0-72.533333-55.466667-128-128-128h-128c-25.6 0-42.666667 17.066667-42.666667 42.666667s17.066667 42.666667 42.666667 42.666666h128zM938.666667 896c0 25.6-17.066667 42.666667-42.666667 42.666667h-128c-25.6 0-42.666667 17.066667-42.666667 42.666666s17.066667 42.666667 42.666667 42.666667h128c72.533333 0 128-55.466667 128-128v-128c0-25.6-17.066667-42.666667-42.666667-42.666667s-42.666667 17.066667-42.666666 42.666667v128z"  /><path fill="#2c2c2c" d="M947.2 486.4l-21.333333-25.6c-204.8-281.6-622.933333-281.6-827.733334 0l-21.333333 25.6c-12.8 17.066667-12.8 34.133333 0 51.2l21.333333 25.6c204.8 281.6 622.933333 281.6 827.733334 0l21.333333-25.6c8.533333-17.066667 8.533333-34.133333 0-51.2z m-89.6 29.866667c-170.666667 234.666667-520.533333 234.666667-691.2 0v-8.533334c170.666667-234.666667 520.533333-234.666667 691.2 0v8.533334z"  /><path fill="#2c2c2c" d="M512 362.666667c-81.066667 0-149.333333 68.266667-149.333333 149.333333s68.266667 149.333333 149.333333 149.333333 149.333333-68.266667 149.333333-149.333333-68.266667-149.333333-149.333333-149.333333z m0 213.333333c-34.133333 0-64-29.866667-64-64s29.866667-64 64-64 64 29.866667 64 64-29.866667 64-64 64z"  /></svg>