<?xml version="1.0" standalone="no"?><!DOCTYPE svg PUBLIC "-//W3C//DTD SVG 1.1//EN" "http://www.w3.org/Graphics/SVG/1.1/DTD/svg11.dtd"><svg class="icon" width="200px" height="200.00px" viewBox="0 0 1024 1024" version="1.1" xmlns="http://www.w3.org/2000/svg"><path fill="#2c2c2c" d="M512 0C384 0 277.333333 106.666667 277.333333 234.666667v256c0 128 106.666667 234.666667 234.666667 234.666666s234.666667-106.666667 234.666667-234.666666v-256C746.666667 106.666667 640 0 512 0z m149.333333 490.666667c0 81.066667-68.266667 149.333333-149.333333 149.333333s-149.333333-68.266667-149.333333-149.333333v-256C362.666667 153.6 430.933333 85.333333 512 85.333333s149.333333 68.266667 149.333333 149.333334v256z"  /><path fill="#2c2c2c" d="M226.133333 704c68.266667 85.333333 170.666667 140.8 285.866667 140.8s217.6-51.2 281.6-136.533333l-64-55.466667c-51.2 64-128 106.666667-217.6 106.666667-89.6 0-166.4-42.666667-217.6-106.666667l-68.266667 51.2z"  /><path fill="#2c2c2c" d="M512 759.466667c25.6 0 42.666667 17.066667 42.666667 42.666666v140.8c0 25.6-17.066667 42.666667-42.666667 42.666667s-42.666667-17.066667-42.666667-42.666667v-140.8c0-21.333333 17.066667-42.666667 42.666667-42.666666z"  /><path fill="#2c2c2c" d="M298.666667 981.333333c0-25.6 17.066667-42.666667 42.666666-42.666666h341.333334c25.6 0 42.666667 17.066667 42.666666 42.666666s-17.066667 42.666667-42.666666 42.666667H341.333333c-25.6 0-42.666667-21.333333-42.666666-42.666667z"  /><path fill="#2c2c2c" d="M806.4 678.4c0 25.6-17.066667 42.666667-42.666667 42.666667s-42.666667-17.066667-42.666666-42.666667 17.066667-42.666667 42.666666-42.666667 42.666667 21.333333 42.666667 42.666667zM302.933333 678.4c0 25.6-17.066667 42.666667-42.666666 42.666667s-42.666667-17.066667-42.666667-42.666667 17.066667-42.666667 42.666667-42.666667c21.333333 0 42.666667 21.333333 42.666666 42.666667z"  /></svg>