<?xml version="1.0" standalone="no"?><!DOCTYPE svg PUBLIC "-//W3C//DTD SVG 1.1//EN" "http://www.w3.org/Graphics/SVG/1.1/DTD/svg11.dtd"><svg class="icon" width="200px" height="200.00px" viewBox="0 0 1024 1024" version="1.1" xmlns="http://www.w3.org/2000/svg"><path fill="#2c2c2c" d="M853.333333 0H170.666667C123.733333 0 85.333333 38.4 85.333333 85.333333v853.333334c0 46.933333 38.4 85.333333 85.333334 85.333333h682.666666c46.933333 0 85.333333-38.4 85.333334-85.333333V85.333333c0-46.933333-38.4-85.333333-85.333334-85.333333z m0 938.666667H170.666667V85.333333h682.666666v853.333334z"  /><path fill="#2c2c2c" d="M256 213.333333c0-25.6 17.066667-42.666667 42.666667-42.666666h426.666666c25.6 0 42.666667 17.066667 42.666667 42.666666s-17.066667 42.666667-42.666667 42.666667H298.666667c-25.6 0-42.666667-17.066667-42.666667-42.666667zM708.266667 494.933333l-98.133334-8.533333-38.4-89.6c-21.333333-51.2-98.133333-51.2-119.466666 0l-38.4 89.6-98.133334 8.533333c-55.466667 4.266667-81.066667 76.8-38.4 110.933334l76.8 64-21.333333 98.133333c-12.8 55.466667 46.933333 98.133333 93.866667 68.266667l85.333333-51.2 85.333333 51.2c46.933333 29.866667 110.933333-12.8 93.866667-68.266667l-21.333333-98.133333 76.8-64c42.666667-34.133333 17.066667-106.666667-38.4-110.933334z m-106.666667 119.466667c-17.066667 17.066667-25.6 38.4-21.333333 64l12.8 59.733333-51.2-29.866666c-21.333333-12.8-46.933333-12.8-68.266667 0l-46.933333 29.866666 12.8-59.733333c4.266667-21.333333-4.266667-46.933333-21.333334-64l-46.933333-38.4 59.733333-4.266667c25.6 0 42.666667-17.066667 55.466667-38.4l21.333333-55.466666 21.333334 55.466666c8.533333 21.333333 29.866667 38.4 55.466666 38.4l59.733334 4.266667-42.666667 38.4z"  /></svg>