<?xml version="1.0" standalone="no"?><!DOCTYPE svg PUBLIC "-//W3C//DTD SVG 1.1//EN" "http://www.w3.org/Graphics/SVG/1.1/DTD/svg11.dtd"><svg class="icon" width="200px" height="200.00px" viewBox="0 0 1024 1024" version="1.1" xmlns="http://www.w3.org/2000/svg"><path fill="#2c2c2c" d="M853.333333 0H170.666667C123.733333 0 85.333333 38.4 85.333333 85.333333v853.333334c0 46.933333 38.4 85.333333 85.333334 85.333333h682.666666c46.933333 0 85.333333-38.4 85.333334-85.333333V85.333333c0-46.933333-38.4-85.333333-85.333334-85.333333z m0 938.666667H170.666667V85.333333h682.666666v853.333334z"  /><path fill="#2c2c2c" d="M512 140.8c-140.8 0-256 115.2-256 256s115.2 256 256 256 256-115.2 256-256-115.2-256-256-256z m0 426.666667c-93.866667 0-170.666667-76.8-170.666667-170.666667s76.8-170.666667 170.666667-170.666667 170.666667 76.8 170.666667 170.666667-76.8 170.666667-170.666667 170.666667z"  /><path fill="#2c2c2c" d="M512 273.066667c-72.533333 0-128 55.466667-128 128s55.466667 128 128 128 128-55.466667 128-128-55.466667-128-128-128z m0 170.666666c-25.6 0-42.666667-17.066667-42.666667-42.666666s17.066667-42.666667 42.666667-42.666667 42.666667 17.066667 42.666667 42.666667-17.066667 42.666667-42.666667 42.666666z"  /><path fill="#2c2c2c" d="M384 520.533333H298.666667v320c0 29.866667 29.866667 51.2 59.733333 38.4l153.6-64 153.6 64c29.866667 12.8 59.733333-8.533333 59.733333-38.4v-320h-85.333333v256L512 725.333333l-128 51.2v-256z"  /></svg>