<?xml version="1.0" standalone="no"?><!DOCTYPE svg PUBLIC "-//W3C//DTD SVG 1.1//EN" "http://www.w3.org/Graphics/SVG/1.1/DTD/svg11.dtd"><svg class="icon" width="200px" height="200.00px" viewBox="0 0 1024 1024" version="1.1" xmlns="http://www.w3.org/2000/svg"><path fill="#2c2c2c" d="M85.333333 128a42.666667 42.666667 0 0 0-85.333333 0v682.666667a128 128 0 0 0 128 128h853.333333a42.666667 42.666667 0 1 0 0-85.333334H128a42.666667 42.666667 0 0 1-42.666667-42.666666V128z"  /><path fill="#2c2c2c" d="M886.485333 332.672a42.666667 42.666667 0 1 0-63.232-57.344l-255.957333 282.24-115.498667-107.776a85.333333 85.333333 0 0 0-121.941333 5.632l-154.709333 173.653333a42.666667 42.666667 0 0 0 63.744 56.746667l154.709333-173.653333 115.498667 107.776a85.333333 85.333333 0 0 0 121.429333-5.077334l255.957333-282.197333z"  /></svg>