<?xml version="1.0" standalone="no"?><!DOCTYPE svg PUBLIC "-//W3C//DTD SVG 1.1//EN" "http://www.w3.org/Graphics/SVG/1.1/DTD/svg11.dtd"><svg class="icon" width="200px" height="200.00px" viewBox="0 0 1024 1024" version="1.1" xmlns="http://www.w3.org/2000/svg"><path fill="#2c2c2c" d="M512 0C230.4 0 0 230.4 0 512s230.4 512 512 512 512-230.4 512-512S793.6 0 512 0z m0 938.666667C277.333333 938.666667 85.333333 746.666667 85.333333 512S277.333333 85.333333 512 85.333333s426.666667 192 426.666667 426.666667-192 426.666667-426.666667 426.666667z"  /><path fill="#2c2c2c" d="M512 170.666667c25.6 0 42.666667 17.066667 42.666667 42.666666v298.666667h213.333333c25.6 0 42.666667 17.066667 42.666667 42.666667s-17.066667 42.666667-42.666667 42.666666h-213.333333c-46.933333 0-85.333333-38.4-85.333334-85.333333V213.333333c0-25.6 17.066667-42.666667 42.666667-42.666666z"  /></svg>