<?xml version="1.0" standalone="no"?><!DOCTYPE svg PUBLIC "-//W3C//DTD SVG 1.1//EN" "http://www.w3.org/Graphics/SVG/1.1/DTD/svg11.dtd"><svg class="icon" width="200px" height="200.00px" viewBox="0 0 1024 1024" version="1.1" xmlns="http://www.w3.org/2000/svg"><path fill="#2c2c2c" d="M938.666667 0H85.333333C38.4 0 0 38.4 0 85.333333v853.333334c0 46.933333 38.4 85.333333 85.333333 85.333333h853.333334c46.933333 0 85.333333-38.4 85.333333-85.333333V85.333333c0-46.933333-38.4-85.333333-85.333333-85.333333z m0 938.666667H85.333333V85.333333h853.333334v853.333334z"  /><path fill="#2c2c2c" d="M682.666667 256H341.333333c-46.933333 0-85.333333 38.4-85.333333 85.333333v341.333334c0 46.933333 38.4 85.333333 85.333333 85.333333h341.333334c46.933333 0 85.333333-38.4 85.333333-85.333333V341.333333c0-46.933333-38.4-85.333333-85.333333-85.333333z m0 426.666667H341.333333V341.333333h341.333334v341.333334z"  /><path fill="#2c2c2c" d="M738.133333 294.4c17.066667 17.066667 17.066667 42.666667 0 59.733333l-384 375.466667c-17.066667 17.066667-42.666667 17.066667-59.733333 0-17.066667-17.066667-17.066667-42.666667 0-59.733333l384-375.466667c17.066667-17.066667 42.666667-17.066667 59.733333 0zM503.466667 285.866667c17.066667 17.066667 17.066667 42.666667 0 59.733333l-162.133334 170.666667c-17.066667 17.066667-42.666667 17.066667-59.733333 0-17.066667-17.066667-17.066667-42.666667 0-59.733334l162.133333-170.666666c17.066667-17.066667 42.666667-17.066667 59.733334 0zM738.133333 524.8c17.066667 17.066667 17.066667 42.666667 0 59.733333l-166.4 157.866667c-17.066667 17.066667-42.666667 17.066667-59.733333 0-17.066667-17.066667-17.066667-42.666667 0-59.733333l166.4-157.866667c17.066667-17.066667 42.666667-17.066667 59.733333 0z"  /></svg>