<?xml version="1.0" standalone="no"?><!DOCTYPE svg PUBLIC "-//W3C//DTD SVG 1.1//EN" "http://www.w3.org/Graphics/SVG/1.1/DTD/svg11.dtd"><svg class="icon" width="200px" height="200.00px" viewBox="0 0 1024 1024" version="1.1" xmlns="http://www.w3.org/2000/svg"><path fill="#2c2c2c" d="M682.666667 0H85.333333C38.4 0 0 38.4 0 85.333333v597.333334c0 46.933333 38.4 85.333333 85.333333 85.333333h597.333334c46.933333 0 85.333333-38.4 85.333333-85.333333V85.333333c0-46.933333-38.4-85.333333-85.333333-85.333333z m0 682.666667H85.333333V85.333333h597.333334v597.333334z"  /><path fill="#2c2c2c" d="M938.666667 256H341.333333c-46.933333 0-85.333333 38.4-85.333333 85.333333v597.333334c0 46.933333 38.4 85.333333 85.333333 85.333333h597.333334c46.933333 0 85.333333-38.4 85.333333-85.333333V341.333333c0-46.933333-38.4-85.333333-85.333333-85.333333z m0 682.666667H341.333333V341.333333h597.333334v597.333334z"  /><path fill="#2c2c2c" d="M507.733333 298.666667c17.066667 17.066667 17.066667 42.666667 0 59.733333L358.4 512c-17.066667 17.066667-42.666667 17.066667-59.733333 0-17.066667-17.066667-17.066667-42.666667 0-59.733333L448 298.666667c17.066667-17.066667 42.666667-17.066667 59.733333 0zM721.066667 307.2c17.066667 17.066667 17.066667 42.666667 0 59.733333l-358.4 354.133334c-17.066667 17.066667-42.666667 17.066667-59.733334 0s-17.066667-42.666667 0-59.733334l358.4-354.133333c17.066667-17.066667 42.666667-17.066667 59.733334 0zM733.866667 507.733333c17.066667 17.066667 17.066667 42.666667-4.266667 59.733334l-192 179.2c-17.066667 17.066667-42.666667 17.066667-59.733333-4.266667-17.066667-17.066667-17.066667-42.666667 4.266666-59.733333l192-179.2c17.066667-12.8 42.666667-12.8 59.733334 4.266666z"  /></svg>