<?xml version="1.0" standalone="no"?><!DOCTYPE svg PUBLIC "-//W3C//DTD SVG 1.1//EN" "http://www.w3.org/Graphics/SVG/1.1/DTD/svg11.dtd"><svg class="icon" width="200px" height="200.00px" viewBox="0 0 1024 1024" version="1.1" xmlns="http://www.w3.org/2000/svg"><path fill="#2c2c2c" d="M926.037333 615.509333C879.786667 801.109333 711.936 938.666667 512 938.666667c-199.936 0-367.786667-137.557333-414.037333-323.157334l-82.773334 20.693334C70.656 858.922667 272.042667 1024 512 1024c239.914667 0 441.301333-165.034667 496.853333-387.797333l-82.816-20.693334zM97.962667 408.490667C144.213333 222.890667 312.064 85.333333 512 85.333333c199.936 0 367.786667 137.514667 414.037333 323.157334l82.773334-20.693334C953.386667 165.077333 752 0 512 0 272.085333 0 70.656 165.034667 15.189333 387.797333l82.773334 20.693334z"  /><path fill="#2c2c2c" d="M101.461333 389.504a42.666667 42.666667 0 1 1-85.333333 0 42.666667 42.666667 0 0 1 85.333333 0zM1007.872 389.504a42.666667 42.666667 0 1 1-85.333333 0 42.666667 42.666667 0 0 1 85.333333 0zM1007.872 633.386667a42.666667 42.666667 0 1 1-85.333333 0 42.666667 42.666667 0 0 1 85.333333 0zM101.461333 633.386667a42.666667 42.666667 0 1 1-85.333333 0 42.666667 42.666667 0 0 1 85.333333 0z"  /><path fill="#2c2c2c" d="M753.408 316.672a42.666667 42.666667 0 0 1 55.253333-24.192l175.36 68.48a42.666667 42.666667 0 1 1-31.061333 79.488l-175.36-68.48a42.666667 42.666667 0 0 1-24.192-55.296zM19.029333 617.813333a42.666667 42.666667 0 0 1 55.296-24.192l175.36 68.522667a42.666667 42.666667 0 1 1-31.061333 79.445333l-175.36-68.48a42.666667 42.666667 0 0 1-24.234667-55.253333z"  /><path fill="#2c2c2c" d="M571.306667 501.76h78.506666v51.882667H546.133333v46.421333h103.765334v51.882667h-103.765334V768h-93.525333v-116.053333H348.8v-51.882667h103.765333v-46.421333H348.8V501.76h79.189333l-119.466666-207.530667h106.496l83.968 169.301334h4.778666l86.698667-169.301334h103.765333l-122.88 207.530667z"  /></svg>