<?xml version="1.0" standalone="no"?><!DOCTYPE svg PUBLIC "-//W3C//DTD SVG 1.1//EN" "http://www.w3.org/Graphics/SVG/1.1/DTD/svg11.dtd"><svg class="icon" width="200px" height="200.00px" viewBox="0 0 1024 1024" version="1.1" xmlns="http://www.w3.org/2000/svg"><path fill="#2c2c2c" d="M853.333333 0H170.666667C76.8 0 0 76.8 0 170.666667v793.6c0 38.4 46.933333 55.466667 72.533333 29.866666l157.866667-157.866666c17.066667-17.066667 38.4-25.6 59.733333-25.6H853.333333c93.866667 0 170.666667-76.8 170.666667-170.666667V170.666667c0-93.866667-76.8-170.666667-170.666667-170.666667z m85.333334 640c0 46.933333-38.4 85.333333-85.333334 85.333333H290.133333c-46.933333 0-89.6 17.066667-119.466666 51.2l-85.333334 85.333334V170.666667c0-46.933333 38.4-85.333333 85.333334-85.333334h682.666666c46.933333 0 85.333333 38.4 85.333334 85.333334v469.333333z"  /><path fill="#2c2c2c" d="M486.4 221.866667c0-25.6 17.066667-42.666667 42.666667-42.666667s42.666667 17.066667 42.666666 42.666667v256c0 25.6-17.066667 42.666667-42.666666 42.666666s-42.666667-17.066667-42.666667-42.666666v-256zM486.4 605.866667c0-25.6 17.066667-42.666667 42.666667-42.666667s42.666667 17.066667 42.666666 42.666667-17.066667 42.666667-42.666666 42.666666c-21.333333 0-42.666667-21.333333-42.666667-42.666666z"  /></svg>