<?xml version="1.0" standalone="no"?><!DOCTYPE svg PUBLIC "-//W3C//DTD SVG 1.1//EN" "http://www.w3.org/Graphics/SVG/1.1/DTD/svg11.dtd"><svg class="icon" width="200px" height="200.00px" viewBox="0 0 1024 1024" version="1.1" xmlns="http://www.w3.org/2000/svg"><path fill="#2c2c2c" d="M981.333333 938.666667h-42.666666V170.666667c0-46.933333-38.4-85.333333-85.333334-85.333334h-85.333333c-46.933333 0-85.333333 38.4-85.333333 85.333334v768h-42.666667V426.666667c0-46.933333-38.4-85.333333-85.333333-85.333334h-85.333334c-46.933333 0-85.333333 38.4-85.333333 85.333334v512H341.333333v-256c0-46.933333-38.4-85.333333-85.333333-85.333334H170.666667c-46.933333 0-85.333333 38.4-85.333334 85.333334v256H42.666667c-25.6 0-42.666667 17.066667-42.666667 42.666666s17.066667 42.666667 42.666667 42.666667h938.666666c25.6 0 42.666667-17.066667 42.666667-42.666667s-17.066667-42.666667-42.666667-42.666666zM256 938.666667H170.666667v-256h85.333333v256z m298.666667 0h-85.333334V426.666667h85.333334v512z m298.666666 0h-85.333333V170.666667h85.333333v768z"  /></svg>