<?xml version="1.0" standalone="no"?><!DOCTYPE svg PUBLIC "-//W3C//DTD SVG 1.1//EN" "http://www.w3.org/Graphics/SVG/1.1/DTD/svg11.dtd"><svg class="icon" width="200px" height="200.00px" viewBox="0 0 1024 1024" version="1.1" xmlns="http://www.w3.org/2000/svg"><path fill="#2c2c2c" d="M951.466667 200.533333l-405.333334-153.6c-21.333333-8.533333-38.4-8.533333-59.733333 0L76.8 200.533333c-38.4 12.8-38.4 68.266667 0 81.066667l405.333333 153.6c21.333333 8.533333 38.4 8.533333 59.733334 0l405.333333-153.6c38.4-12.8 38.4-64 4.266667-81.066667zM512 358.4L213.333333 243.2 512 128l298.666667 115.2-298.666667 115.2zM46.933333 750.933333c8.533333-21.333333 34.133333-34.133333 55.466667-25.6l405.333333 166.4 413.866667-166.4c21.333333-8.533333 46.933333 0 55.466667 25.6 8.533333 21.333333 0 46.933333-25.6 55.466667l-413.866667 166.4c-21.333333 8.533333-42.666667 8.533333-64 0l-405.333333-166.4c-21.333333-8.533333-29.866667-34.133333-21.333334-55.466667z"  /><path fill="#2c2c2c" d="M46.933333 576c8.533333-21.333333 34.133333-34.133333 55.466667-25.6l405.333333 166.4 413.866667-166.4c21.333333-8.533333 46.933333 0 55.466667 25.6 8.533333 21.333333 0 46.933333-25.6 55.466667l-413.866667 166.4c-21.333333 8.533333-42.666667 8.533333-64 0l-405.333333-166.4c-21.333333-8.533333-29.866667-34.133333-21.333334-55.466667z"  /><path fill="#2c2c2c" d="M46.933333 401.066667c8.533333-21.333333 34.133333-34.133333 55.466667-25.6l405.333333 166.4 413.866667-166.4c21.333333-8.533333 46.933333 0 55.466667 25.6 8.533333 21.333333 0 46.933333-25.6 55.466666l-413.866667 166.4c-21.333333 8.533333-42.666667 8.533333-64 0l-405.333333-166.4c-21.333333-8.533333-29.866667-34.133333-21.333334-55.466666z"  /></svg>