<?xml version="1.0" standalone="no"?><!DOCTYPE svg PUBLIC "-//W3C//DTD SVG 1.1//EN" "http://www.w3.org/Graphics/SVG/1.1/DTD/svg11.dtd"><svg class="icon" width="200px" height="200.00px" viewBox="0 0 1024 1024" version="1.1" xmlns="http://www.w3.org/2000/svg"><path fill="#2c2c2c" d="M213.333333 0c-25.6 0-42.666667 17.066667-42.666666 42.666667s17.066667 42.666667 42.666666 42.666666h597.333334c25.6 0 42.666667-17.066667 42.666666-42.666666s-17.066667-42.666667-42.666666-42.666667H213.333333zM85.333333 213.333333c0-25.6 17.066667-42.666667 42.666667-42.666666h768c25.6 0 42.666667 17.066667 42.666667 42.666666s-17.066667 42.666667-42.666667 42.666667H128c-25.6 0-42.666667-17.066667-42.666667-42.666667z"  /><path fill="#2c2c2c" d="M853.333333 341.333333H170.666667c-93.866667 0-170.666667 76.8-170.666667 170.666667v341.333333c0 93.866667 76.8 170.666667 170.666667 170.666667h682.666666c93.866667 0 170.666667-76.8 170.666667-170.666667v-341.333333c0-93.866667-76.8-170.666667-170.666667-170.666667z m85.333334 512c0 46.933333-38.4 85.333333-85.333334 85.333334H170.666667c-46.933333 0-85.333333-38.4-85.333334-85.333334v-341.333333c0-46.933333 38.4-85.333333 85.333334-85.333333h682.666666c46.933333 0 85.333333 38.4 85.333334 85.333333v341.333333z"  /></svg>