<?xml version="1.0" standalone="no"?><!DOCTYPE svg PUBLIC "-//W3C//DTD SVG 1.1//EN" "http://www.w3.org/Graphics/SVG/1.1/DTD/svg11.dtd"><svg class="icon" width="200px" height="200.00px" viewBox="0 0 1024 1024" version="1.1" xmlns="http://www.w3.org/2000/svg"><path fill="#2c2c2c" d="M810.666667 42.666667H213.333333l-213.333333 384 512 554.666666 512-554.666666-213.333333-384zM106.666667 413.866667L264.533333 128h494.933334l157.866666 285.866667L512 857.6 106.666667 413.866667z"  /><path fill="#2c2c2c" d="M59.733333 418.133333c0-25.6 17.066667-42.666667 42.666667-42.666666h823.466667c25.6 0 42.666667 17.066667 42.666666 42.666666s-17.066667 42.666667-42.666666 42.666667H102.4c-21.333333 0-42.666667-21.333333-42.666667-42.666667z"  /><path fill="#2c2c2c" d="M435.2 89.6c21.333333 8.533333 29.866667 38.4 17.066667 55.466667L337.066667 379.733333l209.066666 452.266667c8.533333 21.333333 0 46.933333-21.333333 55.466667-21.333333 8.533333-46.933333 0-55.466667-21.333334L243.2 375.466667l136.533333-268.8c8.533333-17.066667 34.133333-25.6 55.466667-17.066667z"  /><path fill="#2c2c2c" d="M571.733333 81.066667c21.333333-12.8 46.933333-4.266667 55.466667 17.066666l153.6 294.4-230.4 448c-12.8 21.333333-38.4 29.866667-55.466667 17.066667s-29.866667-38.4-17.066666-55.466667l213.333333-409.6-132.266667-256c-17.066667-17.066667-8.533333-42.666667 12.8-55.466666z"  /></svg>